<?xml version="1.0" encoding="UTF-8" standalone="no"?>
<!-- Created with Inkscape (http://www.inkscape.org/) -->

<svg
   width="4.7077961in"
   height="1.1929978in"
   viewBox="0 0 119.57802 30.302145"
   version="1.1"
   id="svg353"
   inkscape:version="1.2 (dc2aedaf03, 2022-05-15)"
   sodipodi:docname="inland beach logo.svg"
   xmlns:inkscape="http://www.inkscape.org/namespaces/inkscape"
   xmlns:sodipodi="http://sodipodi.sourceforge.net/DTD/sodipodi-0.dtd"
   xmlns="http://www.w3.org/2000/svg"
   xmlns:svg="http://www.w3.org/2000/svg">
  <sodipodi:namedview
     id="namedview355"
     pagecolor="#ffffff"
     bordercolor="#666666"
     borderopacity="1.0"
     inkscape:showpageshadow="2"
     inkscape:pageopacity="0.0"
     inkscape:pagecheckerboard="0"
     inkscape:deskcolor="#d1d1d1"
     inkscape:document-units="mm"
     showgrid="false"
     inkscape:zoom="4.5270833"
     inkscape:cx="240"
     inkscape:cy="57.211229"
     inkscape:window-width="2560"
     inkscape:window-height="1537"
     inkscape:window-x="-8"
     inkscape:window-y="-8"
     inkscape:window-maximized="1"
     inkscape:current-layer="layer1" />
  <defs
     id="defs350" />
  <g
     inkscape:label="Layer 1"
     inkscape:groupmode="layer"
     id="layer1"
     transform="translate(53.192713,-62.410635)">
    <path
       style="fill:#ffffff;fill-opacity:1;stroke:none;stroke-width:0.0591937"
       d="m -47.904977,66.252417 c -1.788107,0 -3.549407,0.52387 -4.617262,2.071846 -0.261408,0.37902 -0.973663,1.380973 -0.526146,1.828486 0.229512,0.22956 0.759984,0.124969 1.058914,0.124969 h 2.782214 c -0.284776,0.448875 -0.731113,0.788067 -1.026038,1.243103 -0.672456,1.03746 -0.905507,2.341366 -0.703753,3.551734 0.08155,0.489313 0.271231,1.668309 0.96033,1.593374 0.492666,-0.05358 1.028305,-0.84585 1.361443,-1.179004 1.095569,-1.095593 2.220916,-2.16176 3.314981,-3.25576 -0.314538,1.169531 -0.379466,2.42542 -0.675866,3.610935 -0.579527,2.318101 -1.478549,4.621103 -2.675286,6.6891 -0.431079,0.744738 -0.872972,1.484274 -1.366454,2.190232 -0.147247,0.210688 -0.368296,0.676191 -0.614973,0.772862 -0.185633,0.07271 -0.51669,-0.0837 -0.70544,-0.121704 -0.551842,-0.111173 -1.092915,-0.236789 -1.657401,-0.236789 l -0.05888,0.947137 1.775946,0.295975 -0.296006,0.355175 v 0.05918 c 0.157413,0.154736 0.526658,0.601192 0.767904,0.565673 0.261118,-0.03853 0.581241,-0.604505 0.733371,-0.802458 0.669661,-0.871416 1.294557,-1.781254 1.861364,-2.723 1.537168,-2.554044 2.631188,-5.333985 3.3347,-8.228182 0.260915,-1.073567 0.38227,-2.16999 0.5607,-3.255756 0.05804,-0.351799 -0.03544,-0.863661 0.12496,-1.183914 0.125043,-0.250159 0.399063,-0.414488 0.549228,-0.651142 h 0.0588 c 0.100911,0.159121 0.294404,0.296209 0.358501,0.473551 0.127409,0.352923 -0.05449,0.997698 -0.108566,1.361505 -0.140968,0.951693 -0.290301,1.893249 -0.463675,2.841399 -0.61755,3.376689 -1.863473,6.656714 -3.410322,9.708066 -0.483332,0.953349 -1.046164,1.872892 -1.60815,2.782193 -0.244054,0.394838 -0.630466,0.790268 -0.746515,1.243104 0.206802,0.109517 0.524061,0.467235 0.767896,0.439056 0.153558,-0.01776 0.241099,-0.207006 0.317281,-0.320658 0.209652,-0.312558 0.40675,-0.631976 0.611754,-0.947136 0.07104,-0.108862 0.183501,-0.354342 0.338677,-0.343685 0.13096,0.0091 0.278328,0.149763 0.3914,0.210506 0.397952,0.213691 0.796729,0.419632 1.183911,0.654459 1.729505,1.048892 3.031211,2.444785 4.439655,3.8592 h 0.0588 l 0.710351,-0.591961 -0.947143,-1.124713 -2.367876,-2.131047 h 21.132889 v -0.947125 h -18.350622 -2.900553 c -0.610105,0 -1.163982,0.06431 -1.716732,-0.223641 -0.226966,-0.118212 -1.056216,-0.41792 -1.123064,-0.669208 -0.06938,-0.260106 0.39499,-0.834653 0.516359,-1.060606 0.515725,-0.960384 0.990729,-1.953276 1.412503,-2.959777 1.003161,-2.394402 1.827808,-4.901923 2.295458,-7.458652 0.200854,-1.098608 0.505016,-2.254518 0.509694,-3.374135 0.466221,0.295796 0.852036,0.792798 1.243111,1.183902 l 2.249454,2.249442 c 0.376329,0.376308 0.893188,1.138909 1.420688,1.284188 0.810665,0.223335 1.000583,-1.230742 1.078692,-1.757758 0.268232,-1.810561 -0.537899,-3.366099 -1.789036,-4.617254 h 2.841367 c 0.292779,0 0.831004,0.106073 1.050699,-0.124965 0.453571,-0.476879 -0.298447,-1.496643 -0.585376,-1.887688 -1.114267,-1.518526 -2.8119,-2.012648 -4.609054,-2.012648 l 1.95347,-1.953455 c 0.233201,-0.233178 0.668195,-0.529201 0.692273,-0.887932 0.04905,-0.736282 -1.432039,-0.889219 -1.935369,-0.960277 -1.839167,-0.259704 -3.969957,0.765923 -4.913215,2.380969 -0.545948,-0.548267 -1.019659,-1.121992 -1.657472,-1.575261 -0.964148,-0.685184 -2.220991,-0.922958 -3.374135,-0.797501 -0.493898,0.05373 -1.937108,0.240769 -1.887711,0.95207 0.02487,0.359137 0.475299,0.647171 0.702152,0.887932 0.622356,0.660584 1.252981,1.310555 1.895865,1.953455 m 3.314965,1.18391 -0.828712,-0.509737 -0.710359,-0.348594 -1.835041,-1.805468 -1.124742,-1.243111 c 0.477535,-0.05011 0.933826,-0.161918 1.42068,-0.113457 1.044812,0.103995 1.93308,0.625863 2.663829,1.356568 0.252384,0.252436 0.696151,0.642845 0.777767,1.006327 0.04217,0.186156 -0.09195,0.416494 -0.144723,0.591953 -0.104289,0.346568 -0.0979,0.735098 -0.218699,1.065511 m 6.452326,-3.906902 c -0.353302,0.556823 -0.960399,1.00641 -1.420665,1.479889 -0.482539,0.496339 -0.916822,1.109114 -1.479918,1.521008 -0.263757,0.192949 -0.606281,0.287264 -0.887913,0.455473 -0.619213,0.369786 -1.122225,0.873306 -1.539087,1.45687 -0.331573,-0.550221 -0.06605,-1.574263 0.154541,-2.131047 0.578733,-1.462077 2.104193,-2.73749 3.693139,-2.89565 0.511379,-0.05086 0.979059,0.0882 1.479903,0.113457 m -6.511502,5.386799 -2.012655,0.02296 -1.183949,0.386433 -4.084404,0.0045 c 0.22129,-0.702356 0.967745,-1.284517 1.598219,-1.611427 1.728786,-0.8964 4.626694,-0.611254 5.682789,1.197054 m 9.293731,0.414373 -4.025378,-0.0045 -1.53902,-0.445626 -1.657448,0.03611 c 0.205388,-0.461309 0.700329,-0.832143 1.124681,-1.088539 1.279434,-0.772992 3.23691,-0.793564 4.558024,-0.108515 0.575167,0.298215 1.429825,0.927009 1.539141,1.611431 m -9.175355,0.651142 -1.302281,1.361506 -2.486184,2.431927 -1.539133,1.474983 c -0.162634,-0.42532 -0.168605,-0.917353 -0.123342,-1.361498 0.264385,-2.595847 2.88456,-4.607843 5.45094,-3.906918 m 7.162685,5.268416 c -0.572582,-0.209313 -1.108977,-0.990576 -1.539103,-1.420695 l -2.48617,-2.486215 c -0.427699,-0.427632 -0.978953,-0.85182 -1.302371,-1.361506 3.006489,-0.858982 6.155918,2.235769 5.327644,5.268416 m -9.767261,14.443766 v 0.947129 h 1.006312 v -0.947121 h -1.006312 m 11.069564,0 v 0.947129 h 10.122421 v -0.947113 h -10.122308 m -14.088531,1.006318 v 1.006327 h 0.947135 v -1.006327 h -0.947135 m 16.278793,1.006327 v 1.00633 h 5.742004 V 91.70645 Z"
       id="path21950-89"
       sodipodi:nodetypes="cccsccssccccccccccccccccccccccccccscccccccccccccscccccccccccscccccccssccccccccsccccccscccccccccsccccccccccccccccccccccccccccccccccccccc" />
    <g
       aria-label="@austin_inland_beach"
       id="text64843-7"
       style="font-size:10.1582px;line-height:1.25;font-family:'Arial Rounded MT Bold';-inkscape-font-specification:'Arial Rounded MT Bold, Normal';fill:#FFFFFF;stroke-width:0.254399">
      <path
         d="m -37.577529,79.762533 0.124002,-0.550567 h 1.309455 l -0.753929,3.556362 q -0.06944,0.337284 -0.06944,0.446405 0,0.114082 0.05456,0.178563 0.05952,0.06448 0.138882,0.06448 0.267843,0 0.689448,-0.347204 0.426565,-0.352164 0.739049,-0.952331 0.317443,-0.605127 0.317443,-1.319376 0,-0.595207 -0.228162,-1.120973 -0.223203,-0.525766 -0.649768,-0.912651 -0.426565,-0.386884 -1.056493,-0.605127 -0.624967,-0.218242 -1.418576,-0.218242 -0.80849,0 -1.483058,0.213282 -0.674568,0.208323 -1.185454,0.605127 -0.510886,0.391845 -0.85313,0.972172 -0.302564,0.505926 -0.461285,1.120973 -0.158722,0.615047 -0.158722,1.254895 0,0.85313 0.337284,1.562418 0.342244,0.704329 0.987051,1.180494 0.649768,0.481126 1.567379,0.679528 0.917611,0.203363 2.073304,0.08432 0.917611,-0.109121 1.552499,-0.416645 0.639847,-0.307523 1.081293,-0.86305 h 1.056492 q -0.257923,0.530727 -0.674568,0.947371 -0.411685,0.416645 -0.967211,0.699369 -0.555527,0.287683 -1.244975,0.436485 -0.689448,0.148802 -1.502898,0.148802 -1.220174,0 -2.197306,-0.322404 -0.977131,-0.317444 -1.646739,-0.922571 -0.664648,-0.600167 -1.006892,-1.433457 -0.342244,-0.83825 -0.342244,-1.850102 0,-1.056492 0.352164,-1.974103 0.352164,-0.917611 1.011852,-1.592179 0.664648,-0.679528 1.616979,-1.061453 0.957291,-0.381924 2.108025,-0.381924 0.942411,0 1.7261,0.277763 0.78865,0.272803 1.349136,0.788649 0.560487,0.515846 0.85313,1.225135 0.297604,0.704328 0.297604,1.557458 0,0.664648 -0.238083,1.304496 -0.238083,0.634887 -0.684488,1.145773 -0.441445,0.505926 -1.041612,0.80353 -0.600167,0.292643 -1.294576,0.292643 -0.401764,0 -0.624967,-0.133921 -0.223203,-0.138882 -0.297604,-0.436485 -0.431525,0.426565 -0.992011,0.540646 -0.560487,0.109121 -1.086253,-0.104161 -0.525766,-0.218243 -0.85313,-0.729129 -0.322404,-0.510886 -0.322404,-1.259855 0,-0.778729 0.332324,-1.532658 0.337284,-0.753929 0.952331,-1.235055 0.620007,-0.481125 1.398737,-0.481125 0.89281,0 1.309455,0.669608 z m -2.713152,2.56931 q 0,0.595207 0.248003,0.912651 0.248003,0.317444 0.649768,0.317444 0.466245,0 0.818409,-0.372005 0.357125,-0.372004 0.540647,-0.937451 0.183522,-0.570407 0.183522,-1.101133 0,-0.262883 -0.06448,-0.471206 -0.05952,-0.213282 -0.183522,-0.372004 -0.119041,-0.158722 -0.292643,-0.238083 -0.168642,-0.08432 -0.386885,-0.08432 -0.436485,0 -0.788649,0.342244 -0.347204,0.337284 -0.535687,0.882891 -0.188482,0.540646 -0.188482,1.120973 z"
         id="path185" />
      <path
         d="m -29.676155,83.824821 q -0.491046,0.381924 -0.952332,0.575367 -0.456325,0.188482 -1.026732,0.188482 -0.520806,0 -0.917611,-0.203363 -0.391844,-0.208322 -0.605127,-0.560486 -0.213282,-0.352164 -0.213282,-0.763849 0,-0.555527 0.352164,-0.947372 0.352164,-0.391844 0.967211,-0.525766 0.128962,-0.02976 0.639848,-0.133921 0.510886,-0.104162 0.87297,-0.188483 0.367045,-0.08928 0.79361,-0.213282 -0.0248,-0.535686 -0.218243,-0.783689 -0.188482,-0.252963 -0.788649,-0.252963 -0.515846,0 -0.778729,0.143841 -0.257924,0.143842 -0.446406,0.431525 -0.183522,0.287684 -0.262883,0.381925 -0.0744,0.08928 -0.327364,0.08928 -0.228162,0 -0.396804,-0.143842 -0.163682,-0.148801 -0.163682,-0.376964 0,-0.357124 0.252963,-0.694408 0.252963,-0.337284 0.788649,-0.555527 0.535686,-0.218243 1.334256,-0.218243 0.89281,0 1.403696,0.213283 0.510886,0.208322 0.719209,0.664648 0.213282,0.456325 0.213282,1.210254 0,0.476166 -0.005,0.80849 0,0.332324 -0.005,0.739048 0,0.381925 0.124002,0.79857 0.128961,0.411685 0.128961,0.530726 0,0.208323 -0.198402,0.381925 -0.193442,0.168642 -0.441445,0.168642 -0.208323,0 -0.411685,-0.193443 -0.203363,-0.198402 -0.431525,-0.570406 z m -0.08928,-1.959223 q -0.297604,0.109121 -0.868011,0.233122 -0.565446,0.119042 -0.783689,0.178562 -0.218242,0.05456 -0.416645,0.223203 -0.198402,0.163682 -0.198402,0.461285 0,0.307524 0.233123,0.525767 0.233122,0.213282 0.610087,0.213282 0.401765,0 0.739049,-0.173602 0.342244,-0.178562 0.500965,-0.456325 0.183523,-0.307524 0.183523,-1.011852 z"
         id="path187" />
      <path
         d="m -23.545523,83.824821 v -0.173602 q -0.243043,0.307523 -0.510886,0.515846 -0.267843,0.208322 -0.585287,0.307523 -0.317444,0.104162 -0.724168,0.104162 -0.491046,0 -0.882891,-0.203363 -0.386885,-0.203362 -0.600167,-0.560486 -0.252963,-0.431526 -0.252963,-1.240015 v -2.683392 q 0,-0.406725 0.183522,-0.605127 0.183522,-0.203362 0.486086,-0.203362 0.307524,0 0.496006,0.203362 0.188482,0.203362 0.188482,0.605127 v 2.167546 q 0,0.471205 0.07936,0.793609 0.07936,0.317444 0.282723,0.500966 0.208323,0.178562 0.560487,0.178562 0.342244,0 0.644808,-0.203362 0.302563,-0.203363 0.441445,-0.530726 0.114081,-0.287684 0.114081,-1.259855 v -1.64674 q 0,-0.401765 0.188482,-0.605127 0.188483,-0.203362 0.491046,-0.203362 0.302564,0 0.486086,0.203362 0.183522,0.198402 0.183522,0.605127 v 3.923407 q 0,0.386884 -0.178562,0.580326 -0.173602,0.193443 -0.451365,0.193443 -0.277764,0 -0.461286,-0.198403 -0.178562,-0.203362 -0.178562,-0.565446 z"
         id="path189" />
      <path
         d="m -16.56672,82.817929 q 0,0.560486 -0.272804,0.962251 -0.272803,0.396805 -0.808489,0.605127 -0.530727,0.203363 -1.294576,0.203363 -0.729128,0 -1.249934,-0.223203 -0.520807,-0.223203 -0.76881,-0.555526 -0.248002,-0.337284 -0.248002,-0.674568 0,-0.223203 0.158721,-0.381925 0.158722,-0.158722 0.401765,-0.158722 0.213283,0 0.327364,0.104161 0.114081,0.104162 0.218243,0.292644 0.208322,0.362084 0.496006,0.540646 0.292643,0.178562 0.793609,0.178562 0.406725,0 0.664648,-0.178562 0.262883,-0.183522 0.262883,-0.416645 0,-0.357124 -0.272803,-0.520806 -0.267844,-0.163682 -0.887851,-0.312484 -0.699368,-0.173602 -1.140813,-0.362084 -0.436486,-0.193442 -0.699369,-0.505926 -0.262883,-0.312484 -0.262883,-0.768809 0,-0.406725 0.243043,-0.768809 0.243043,-0.362084 0.714249,-0.575367 0.476165,-0.218242 1.145773,-0.218242 0.525766,0 0.942411,0.109121 0.421605,0.109121 0.699369,0.292643 0.282723,0.183522 0.426565,0.406725 0.148801,0.223203 0.148801,0.436485 0,0.233123 -0.158721,0.381925 -0.153762,0.148802 -0.441446,0.148802 -0.208322,0 -0.357124,-0.119042 -0.143842,-0.119041 -0.332324,-0.357124 -0.153762,-0.198402 -0.362084,-0.317444 -0.208323,-0.119041 -0.565447,-0.119041 -0.367044,0 -0.610087,0.158722 -0.243043,0.153761 -0.243043,0.386884 0,0.213283 0.178562,0.352164 0.178562,0.133922 0.481126,0.223203 0.302563,0.08928 0.83329,0.218243 0.629927,0.153761 1.026732,0.367044 0.401765,0.213283 0.605127,0.505926 0.208323,0.287683 0.208323,0.659688 z"
         id="path191" />
      <path
         d="m -15.346546,79.202046 h 0.148801 v -0.81345 q 0,-0.327364 0.01488,-0.510886 0.01984,-0.188482 0.0992,-0.322404 0.07936,-0.138881 0.228162,-0.223202 0.148802,-0.08928 0.332324,-0.08928 0.257923,0 0.466246,0.193442 0.138882,0.128962 0.173602,0.317444 0.03968,0.183522 0.03968,0.525766 v 0.922571 h 0.496006 q 0.287684,0 0.436485,0.138882 0.153762,0.133921 0.153762,0.347204 0,0.272803 -0.218242,0.381924 -0.213283,0.109122 -0.615048,0.109122 h -0.252963 v 2.489949 q 0,0.317444 0.01984,0.491046 0.0248,0.168642 0.119041,0.277763 0.0992,0.104161 0.317444,0.104161 0.119041,0 0.322404,-0.03968 0.203362,-0.04464 0.317443,-0.04464 0.163682,0 0.292644,0.133922 0.133921,0.128961 0.133921,0.322404 0,0.327364 -0.357124,0.500966 -0.357124,0.173602 -1.026732,0.173602 -0.634887,0 -0.962251,-0.213283 -0.327364,-0.213282 -0.431525,-0.590247 -0.0992,-0.376964 -0.0992,-1.006892 v -2.59907 h -0.178562 q -0.292643,0 -0.446405,-0.138882 -0.153762,-0.138882 -0.153762,-0.352164 0,-0.213283 0.158722,-0.347204 0.163682,-0.138882 0.471206,-0.138882 z"
         id="path193" />
      <path
         d="M -10.470809,79.851814 V 83.7653 q 0,0.406725 -0.193442,0.615047 -0.193442,0.208323 -0.491046,0.208323 -0.297603,0 -0.486085,-0.213283 -0.183523,-0.213282 -0.183523,-0.610087 v -3.873806 q 0,-0.401765 0.183523,-0.605127 0.188482,-0.203362 0.486085,-0.203362 0.297604,0 0.491046,0.203362 0.193442,0.203362 0.193442,0.565447 z m -0.669608,-1.398737 q -0.282723,0 -0.486085,-0.173602 -0.198403,-0.173602 -0.198403,-0.491046 0,-0.287683 0.203363,-0.471205 0.208322,-0.188483 0.481125,-0.188483 0.262884,0 0.466246,0.168642 0.203362,0.168642 0.203362,0.491046 0,0.312484 -0.198402,0.491046 -0.198402,0.173602 -0.471206,0.173602 z"
         id="path195" />
      <path
         d="m -7.8419758,79.831973 v 0.163682 q 0.3571243,-0.471205 0.7787293,-0.689448 0.426565,-0.223202 0.9771315,-0.223202 0.5356864,0 0.9572914,0.233122 0.421605,0.233123 0.6299274,0.659688 0.1339216,0.248003 0.1736021,0.535686 0.03968,0.287684 0.03968,0.734089 v 2.51971 q 0,0.406725 -0.1884822,0.615047 -0.1835222,0.208323 -0.4811257,0.208323 -0.3025636,0 -0.4910458,-0.213283 -0.1884822,-0.213282 -0.1884822,-0.610087 v -2.256827 q 0,-0.669608 -0.1884823,-1.021772 -0.1835221,-0.357124 -0.7390487,-0.357124 -0.3620843,0 -0.6596878,0.218243 -0.2976035,0.213282 -0.4364852,0.590247 -0.099201,0.302563 -0.099201,1.130893 v 1.69634 q 0,0.411685 -0.1934422,0.620007 -0.1884823,0.203363 -0.4910459,0.203363 -0.2926434,0 -0.4811257,-0.213283 -0.1884822,-0.213282 -0.1884822,-0.610087 v -3.913486 q 0,-0.386885 0.168642,-0.575367 0.168642,-0.193442 0.4612855,-0.193442 0.1785621,0 0.3224038,0.08432 0.1438417,0.08432 0.2281627,0.252963 0.089281,0.168642 0.089281,0.411684 z"
         id="path197" />
      <path
         d="m -3.6953697,85.734443 v -0.505926 h 5.1981415 v 0.505926 z"
         id="path199" />
      <path
         d="M 3.4967169,79.851814 V 83.7653 q 0,0.406725 -0.1934423,0.615047 -0.1934423,0.208323 -0.4910458,0.208323 -0.2976036,0 -0.4860858,-0.213283 Q 2.1426208,84.162105 2.1426208,83.7653 v -3.873806 q 0,-0.401765 0.1835222,-0.605127 0.1884822,-0.203362 0.4860858,-0.203362 0.2976035,0 0.4910458,0.203362 0.1934423,0.203362 0.1934423,0.565447 z m -0.669608,-1.398737 q -0.2827233,0 -0.4860857,-0.173602 -0.1984024,-0.173602 -0.1984024,-0.491046 0,-0.287683 0.2033625,-0.471205 0.2083224,-0.188483 0.4811256,-0.188483 0.2628832,0 0.4662456,0.168642 0.2033624,0.168642 0.2033624,0.491046 0,0.312484 -0.1984024,0.491046 -0.1984023,0.173602 -0.4712056,0.173602 z"
         id="path201" />
      <path
         d="m 6.1255497,79.831973 v 0.163682 Q 6.482674,79.52445 6.9042789,79.306207 7.330844,79.083005 7.8814105,79.083005 q 0.5356864,0 0.9572913,0.233122 0.421605,0.233123 0.6299275,0.659688 0.1339216,0.248003 0.1736021,0.535686 0.03968,0.287684 0.03968,0.734089 v 2.51971 q 0,0.406725 -0.1884822,0.615047 -0.1835222,0.208323 -0.4811257,0.208323 -0.3025636,0 -0.4910458,-0.213283 Q 8.3327759,84.162105 8.3327759,83.7653 v -2.256827 q 0,-0.669608 -0.1884823,-1.021772 -0.1835221,-0.357124 -0.7390487,-0.357124 -0.3620843,0 -0.6596878,0.218243 -0.2976036,0.213282 -0.4364852,0.590247 -0.099201,0.302563 -0.099201,1.130893 v 1.69634 q 0,0.411685 -0.1934423,0.620007 -0.1884822,0.203363 -0.4910458,0.203363 -0.2926434,0 -0.4811257,-0.213283 Q 4.8557747,84.162105 4.8557747,83.7653 v -3.913486 q 0,-0.386885 0.168642,-0.575367 0.168642,-0.193442 0.4612855,-0.193442 0.1785621,0 0.3224038,0.08432 0.1438417,0.08432 0.2281627,0.252963 0.089281,0.168642 0.089281,0.411684 z"
         id="path203" />
      <path
         d="m 11.031045,83.7653 v -5.87271 q 0,-0.406724 0.178562,-0.615047 0.183522,-0.208322 0.491046,-0.208322 0.307523,0 0.496006,0.208322 0.188482,0.203363 0.188482,0.615047 v 5.87271 q 0,0.411685 -0.193442,0.620007 -0.188483,0.203363 -0.491046,0.203363 -0.297604,0 -0.486086,-0.213283 -0.183522,-0.213282 -0.183522,-0.610087 z"
         id="path205" />
      <path
         d="m 17.20632,83.824821 q -0.491046,0.381924 -0.952332,0.575367 -0.456325,0.188482 -1.026732,0.188482 -0.520806,0 -0.917611,-0.203363 -0.391844,-0.208322 -0.605127,-0.560486 -0.213282,-0.352164 -0.213282,-0.763849 0,-0.555527 0.352164,-0.947372 0.352164,-0.391844 0.967211,-0.525766 0.128962,-0.02976 0.639848,-0.133921 0.510886,-0.104162 0.87297,-0.188483 0.367044,-0.08928 0.79361,-0.213282 -0.0248,-0.535686 -0.218243,-0.783689 -0.188482,-0.252963 -0.788649,-0.252963 -0.515846,0 -0.77873,0.143841 -0.257923,0.143842 -0.446405,0.431525 -0.183522,0.287684 -0.262883,0.381925 -0.0744,0.08928 -0.327364,0.08928 -0.228163,0 -0.396805,-0.143842 -0.163682,-0.148801 -0.163682,-0.376964 0,-0.357124 0.252963,-0.694408 0.252963,-0.337284 0.78865,-0.555527 0.535686,-0.218243 1.334256,-0.218243 0.89281,0 1.403696,0.213283 0.510886,0.208322 0.719209,0.664648 0.213282,0.456325 0.213282,1.210254 0,0.476166 -0.005,0.80849 0,0.332324 -0.005,0.739048 0,0.381925 0.124002,0.79857 0.128961,0.411685 0.128961,0.530726 0,0.208323 -0.198402,0.381925 -0.193442,0.168642 -0.441445,0.168642 -0.208323,0 -0.411685,-0.193443 -0.203363,-0.198402 -0.431525,-0.570406 z m -0.08928,-1.959223 q -0.297604,0.109121 -0.868011,0.233122 -0.565446,0.119042 -0.783689,0.178562 -0.218243,0.05456 -0.416645,0.223203 -0.198402,0.163682 -0.198402,0.461285 0,0.307524 0.233122,0.525767 0.233123,0.213282 0.610088,0.213282 0.401764,0 0.739048,-0.173602 0.342244,-0.178562 0.500966,-0.456325 0.183523,-0.307524 0.183523,-1.011852 z"
         id="path207" />
      <path
         d="m 21.050366,79.831973 v 0.163682 q 0.357124,-0.471205 0.778729,-0.689448 0.426565,-0.223202 0.977132,-0.223202 0.535686,0 0.957291,0.233122 0.421605,0.233123 0.629927,0.659688 0.133922,0.248003 0.173602,0.535686 0.03968,0.287684 0.03968,0.734089 v 2.51971 q 0,0.406725 -0.188482,0.615047 -0.183522,0.208323 -0.481126,0.208323 -0.302564,0 -0.491046,-0.213283 -0.188482,-0.213282 -0.188482,-0.610087 v -2.256827 q 0,-0.669608 -0.188482,-1.021772 -0.183522,-0.357124 -0.739049,-0.357124 -0.362084,0 -0.659688,0.218243 -0.297603,0.213282 -0.436485,0.590247 -0.0992,0.302563 -0.0992,1.130893 v 1.69634 q 0,0.411685 -0.193442,0.620007 -0.188483,0.203363 -0.491046,0.203363 -0.292644,0 -0.481126,-0.213283 -0.188482,-0.213282 -0.188482,-0.610087 v -3.913486 q 0,-0.386885 0.168642,-0.575367 0.168642,-0.193442 0.461285,-0.193442 0.178562,0 0.322404,0.08432 0.143842,0.08432 0.228163,0.252963 0.08928,0.168642 0.08928,0.411684 z"
         id="path209" />
      <path
         d="m 29.665985,83.814901 v -0.133922 q -0.272803,0.312484 -0.540647,0.510886 -0.262883,0.193442 -0.575366,0.292644 -0.307524,0.104161 -0.674568,0.104161 -0.486086,0 -0.902731,-0.203363 -0.411685,-0.208322 -0.714249,-0.590247 -0.302563,-0.381924 -0.461285,-0.89777 -0.153762,-0.515846 -0.153762,-1.116013 0,-1.269776 0.620008,-1.979064 0.620007,-0.709288 1.631859,-0.709288 0.585287,0 0.987052,0.203362 0.401764,0.198402 0.783689,0.615047 v -1.998903 q 0,-0.416645 0.163682,-0.629928 0.168642,-0.213282 0.476165,-0.213282 0.307524,0 0.471206,0.198402 0.168642,0.193442 0.168642,0.575367 v 5.971911 q 0,0.386884 -0.178562,0.580326 -0.178562,0.193443 -0.461286,0.193443 -0.277763,0 -0.461285,-0.198403 -0.178562,-0.203362 -0.178562,-0.575366 z m -2.663552,-1.988984 q 0,0.550567 0.168642,0.937451 0.173602,0.386885 0.471206,0.585287 0.297603,0.193442 0.649768,0.193442 0.357124,0 0.649767,-0.183522 0.297604,-0.188482 0.471206,-0.570407 0.178562,-0.386884 0.178562,-0.962251 0,-0.540646 -0.178562,-0.927531 -0.173602,-0.391845 -0.476166,-0.595207 -0.297603,-0.208322 -0.654728,-0.208322 -0.372004,0 -0.664647,0.213282 -0.292644,0.208323 -0.456326,0.605127 -0.158722,0.391845 -0.158722,0.912651 z"
         id="path211" />
      <path
         d="m 31.545849,85.734443 v -0.505926 h 5.198141 v 0.505926 z"
         id="path213" />
      <path
         d="m 38.633774,77.84299 v 2.068344 q 0.381925,-0.396804 0.778729,-0.605127 0.396805,-0.213282 0.982092,-0.213282 0.674568,0 1.180494,0.322403 0.510886,0.317444 0.788649,0.927531 0.282724,0.605128 0.282724,1.438418 0,0.615047 -0.158722,1.130893 -0.153762,0.510886 -0.451366,0.88785 -0.297603,0.376965 -0.724168,0.585287 -0.421605,0.203363 -0.932491,0.203363 -0.312484,0 -0.590247,-0.0744 -0.272803,-0.0744 -0.466246,-0.193442 -0.193442,-0.124002 -0.332324,-0.252963 -0.133921,-0.128962 -0.357124,-0.386885 v 0.133922 q 0,0.381924 -0.183522,0.580326 -0.183522,0.193443 -0.466245,0.193443 -0.287684,0 -0.461286,-0.193443 -0.168642,-0.198402 -0.168642,-0.580326 v -5.91239 q 0,-0.411685 0.163682,-0.620008 0.168642,-0.213282 0.466246,-0.213282 0.312483,0 0.481125,0.203362 0.168642,0.198402 0.168642,0.570407 z m 0.06448,4.022608 q 0,0.808489 0.367044,1.244974 0.372005,0.431525 0.972172,0.431525 0.510886,0 0.87793,-0.441445 0.372005,-0.446405 0.372005,-1.274735 0,-0.535686 -0.153762,-0.922571 -0.153762,-0.386884 -0.436485,-0.595207 -0.282724,-0.213282 -0.659688,-0.213282 -0.386885,0 -0.689448,0.213282 -0.302564,0.208323 -0.476166,0.610087 -0.173602,0.396805 -0.173602,0.947372 z"
         id="path215" />
      <path
         d="M 47.512281,82.168161 H 44.86361 q 0.005,0.461286 0.183522,0.81345 0.183522,0.352164 0.481126,0.530726 0.302563,0.178562 0.664647,0.178562 0.243043,0 0.441446,-0.05456 0.203362,-0.05952 0.391844,-0.178562 0.188483,-0.124001 0.347204,-0.262883 0.158722,-0.138881 0.411685,-0.376964 0.104162,-0.08928 0.297604,-0.08928 0.208322,0 0.337284,0.114081 0.128961,0.114081 0.128961,0.322404 0,0.183522 -0.143841,0.431525 -0.143842,0.243043 -0.436485,0.471206 -0.287684,0.223202 -0.729129,0.372004 -0.436485,0.148802 -1.006892,0.148802 -1.304495,0 -2.028664,-0.744009 -0.724169,-0.744009 -0.724169,-2.018744 0,-0.600167 0.178562,-1.111053 0.178563,-0.515846 0.520807,-0.882891 0.342244,-0.367044 0.84321,-0.560486 0.500966,-0.198403 1.111053,-0.198403 0.793609,0 1.359056,0.337284 0.570407,0.332324 0.85313,0.863051 0.282723,0.530726 0.282723,1.081292 0,0.510887 -0.292643,0.664648 -0.292644,0.148802 -0.82337,0.148802 z M 44.86361,81.399352 h 2.455229 q -0.0496,-0.694408 -0.376965,-1.036652 -0.322403,-0.347204 -0.85313,-0.347204 -0.505926,0 -0.83329,0.352164 -0.322403,0.347204 -0.391844,1.031692 z"
         id="path217" />
      <path
         d="m 53.191541,83.824821 q -0.491045,0.381924 -0.952331,0.575367 -0.456325,0.188482 -1.026732,0.188482 -0.520806,0 -0.917611,-0.203363 -0.391844,-0.208322 -0.605127,-0.560486 -0.213283,-0.352164 -0.213283,-0.763849 0,-0.555527 0.352165,-0.947372 0.352164,-0.391844 0.967211,-0.525766 0.128962,-0.02976 0.639848,-0.133921 0.510886,-0.104162 0.87297,-0.188483 0.367044,-0.08928 0.793609,-0.213282 -0.0248,-0.535686 -0.218242,-0.783689 -0.188482,-0.252963 -0.78865,-0.252963 -0.515846,0 -0.778729,0.143841 -0.257923,0.143842 -0.446405,0.431525 -0.183522,0.287684 -0.262883,0.381925 -0.0744,0.08928 -0.327364,0.08928 -0.228163,0 -0.396805,-0.143842 -0.163682,-0.148801 -0.163682,-0.376964 0,-0.357124 0.252963,-0.694408 0.252963,-0.337284 0.78865,-0.555527 0.535686,-0.218243 1.334255,-0.218243 0.892811,0 1.403697,0.213283 0.510886,0.208322 0.719209,0.664648 0.213282,0.456325 0.213282,1.210254 0,0.476166 -0.005,0.80849 0,0.332324 -0.005,0.739048 0,0.381925 0.124001,0.79857 0.128962,0.411685 0.128962,0.530726 0,0.208323 -0.198402,0.381925 -0.193443,0.168642 -0.441446,0.168642 -0.208322,0 -0.411684,-0.193443 -0.203363,-0.198402 -0.431526,-0.570406 z m -0.08928,-1.959223 q -0.297603,0.109121 -0.86801,0.233122 -0.565447,0.119042 -0.783689,0.178562 -0.218243,0.05456 -0.416645,0.223203 -0.198402,0.163682 -0.198402,0.461285 0,0.307524 0.233122,0.525767 0.233123,0.213282 0.610088,0.213282 0.401764,0 0.739048,-0.173602 0.342244,-0.178562 0.500966,-0.456325 0.183522,-0.307524 0.183522,-1.011852 z"
         id="path219" />
      <path
         d="m 60.661391,82.91217 q 0,0.252963 -0.153762,0.540646 -0.148802,0.287684 -0.461286,0.550567 -0.307523,0.257923 -0.778729,0.416645 -0.471205,0.158722 -1.061452,0.158722 -1.254895,0 -1.959224,-0.729129 -0.704328,-0.734089 -0.704328,-1.964183 0,-0.83329 0.322404,-1.473138 0.322404,-0.639847 0.932491,-0.987051 0.610087,-0.352165 1.458257,-0.352165 0.525766,0 0.962252,0.153762 0.441445,0.153762 0.744008,0.396805 0.307524,0.243043 0.466246,0.520806 0.163682,0.272803 0.163682,0.510886 0,0.243043 -0.183522,0.411685 -0.178562,0.168642 -0.436486,0.168642 -0.168642,0 -0.282723,-0.08432 -0.109121,-0.08928 -0.248003,-0.282723 -0.248003,-0.376965 -0.520806,-0.565447 -0.267843,-0.188482 -0.684488,-0.188482 -0.600167,0 -0.967212,0.471205 -0.367044,0.466246 -0.367044,1.279696 0,0.381924 0.09424,0.704328 0.09424,0.317444 0.272803,0.545606 0.178563,0.223203 0.431526,0.342244 0.252963,0.114082 0.555526,0.114082 0.406725,0 0.694408,-0.188483 0.292644,-0.188482 0.515846,-0.575366 0.124002,-0.228163 0.267844,-0.357125 0.143841,-0.128961 0.352164,-0.128961 0.248003,0 0.411685,0.188482 0.163682,0.188482 0.163682,0.401765 z"
         id="path221" />
      <path
         d="m 62.913261,77.89259 v 2.008824 q 0.257923,-0.297603 0.500966,-0.471205 0.248003,-0.173602 0.545606,-0.257923 0.297604,-0.08928 0.639848,-0.08928 0.515846,0 0.912651,0.218242 0.401764,0.218243 0.629927,0.634888 0.143842,0.243043 0.193442,0.545606 0.0496,0.297604 0.0496,0.689448 V 83.7653 q 0,0.406725 -0.188482,0.615047 -0.183522,0.208323 -0.491046,0.208323 -0.669608,0 -0.669608,-0.82337 v -2.286587 q 0,-0.649768 -0.193442,-0.996972 -0.193443,-0.352164 -0.734089,-0.352164 -0.362084,0 -0.654728,0.208322 -0.287683,0.203363 -0.431525,0.560487 -0.109121,0.302564 -0.109121,1.076333 V 83.7653 q 0,0.401765 -0.183522,0.615047 -0.178562,0.208323 -0.500966,0.208323 -0.669608,0 -0.669608,-0.82337 v -5.87271 q 0,-0.411684 0.173602,-0.615047 0.178562,-0.208322 0.496006,-0.208322 0.322404,0 0.500966,0.208322 0.183522,0.208323 0.183522,0.615047 z"
         id="path223" />
    </g>
  </g>
</svg>
