<?xml version="1.0" encoding="UTF-8" standalone="no"?>
<!-- Created with Inkscape (http://www.inkscape.org/) -->

<svg
   width="3in"
   height="3.0033913in"
   viewBox="0 0 76.200001 76.28614"
   version="1.1"
   id="svg353"
   inkscape:version="1.2 (dc2aedaf03, 2022-05-15)"
   sodipodi:docname="beach icon.svg"
   xmlns:inkscape="http://www.inkscape.org/namespaces/inkscape"
   xmlns:sodipodi="http://sodipodi.sourceforge.net/DTD/sodipodi-0.dtd"
   xmlns="http://www.w3.org/2000/svg"
   xmlns:svg="http://www.w3.org/2000/svg">
  <sodipodi:namedview
     id="namedview355"
     pagecolor="#ffffff"
     bordercolor="#666666"
     borderopacity="1.0"
     inkscape:showpageshadow="2"
     inkscape:pageopacity="0.0"
     inkscape:pagecheckerboard="0"
     inkscape:deskcolor="#d1d1d1"
     inkscape:document-units="mm"
     showgrid="false"
     inkscape:zoom="2.1300295"
     inkscape:cx="378.16378"
     inkscape:cy="540.83759"
     inkscape:window-width="4480"
     inkscape:window-height="2690"
     inkscape:window-x="-12"
     inkscape:window-y="-12"
     inkscape:window-maximized="1"
     inkscape:current-layer="layer1" />
  <defs
     id="defs350" />
  <g
     inkscape:label="Layer 1"
     inkscape:groupmode="layer"
     id="layer1"
     transform="translate(-5.0302496,-5.2801336)">
    <path
       style="stroke:none;stroke-width:0.149021"
       d="m 18.342198,14.951871 c -4.501585,0 -8.9356811,1.318854 -11.6240207,5.215903 -0.6580955,0.954189 -2.4512098,3.476615 -1.3245818,4.603243 0.5778028,0.577918 1.9132679,0.314607 2.665831,0.314607 h 7.0042615 c -0.716926,1.130053 -1.840586,1.983972 -2.583065,3.12953 -1.69292,2.611815 -2.279627,5.894415 -1.771709,8.941542 0.205298,1.231845 0.68283,4.199992 2.417646,4.011341 1.240294,-0.134898 2.588773,-2.129448 3.427451,-2.968164 2.75811,-2.758169 5.591187,-5.442264 8.345511,-8.196417 -0.791853,2.944306 -0.955312,6.10603 -1.701501,9.090577 -1.458967,5.835849 -3.722269,11.633686 -6.735071,16.839904 -1.085246,1.874891 -2.197718,3.736673 -3.440066,5.513938 -0.370697,0.530407 -0.92719,1.702319 -1.548203,1.945689 -0.467334,0.183038 -1.300779,-0.21072 -1.775952,-0.306387 C 8.3094564,62.807295 6.9472969,62.491051 5.5261927,62.491051 l -0.1482181,2.384428 4.4709702,0.745122 -0.7451999,0.894161 v 0.148978 c 0.3962882,0.389554 1.3258761,1.513517 1.9332081,1.424092 0.657372,-0.09704 1.463286,-1.521851 1.846275,-2.020197 1.68588,-2.193798 3.259065,-4.484327 4.68601,-6.855188 3.869841,-6.429846 6.624051,-13.42838 8.395151,-20.714559 0.656859,-2.702724 0.962371,-5.462985 1.411572,-8.196417 0.146125,-0.885655 -0.08923,-2.174276 0.314588,-2.980514 0.314796,-0.629783 1.004647,-1.043481 1.382689,-1.639264 h 0.148028 c 0.254044,0.400588 0.741166,0.745712 0.902531,1.192175 0.320752,0.88849 -0.137182,2.511714 -0.273318,3.427603 -0.354887,2.395898 -0.730835,4.766284 -1.167307,7.153259 -1.554691,8.500864 -4.691319,16.758376 -8.585533,24.440197 -1.216795,2.400065 -2.633733,4.715025 -4.048539,7.004203 -0.61441,0.994012 -1.587208,1.989509 -1.879363,3.129531 0.520628,0.275717 1.319331,1.176268 1.933189,1.105337 0.386585,-0.04471 0.606971,-0.521141 0.79876,-0.807264 0.527801,-0.786868 1.023998,-1.591013 1.540098,-2.384426 0.178851,-0.274062 0.461968,-0.892067 0.852624,-0.865239 0.329695,0.02283 0.700696,0.377033 0.985355,0.52995 1.001851,0.537979 2.005776,1.056439 2.980512,1.647618 4.354053,2.640601 7.631116,6.154775 11.176894,9.715584 h 0.148028 l 1.78832,-1.490266 -2.384446,-2.831478 -5.961161,-5.364939 H 81.23025 V 68.89913 H 35.032305 27.730124 c -1.535949,0 -2.93034,0.161917 -4.321896,-0.563019 -0.571391,-0.297596 -2.659038,-1.05212 -2.82733,-1.684737 -0.174665,-0.654823 0.994392,-2.101252 1.299942,-2.670094 1.298345,-2.417779 2.494173,-4.917394 3.555995,-7.451275 2.525472,-6.027943 4.601532,-12.340661 5.778847,-18.777259 0.505653,-2.76576 1.271384,-5.675779 1.283161,-8.494433 1.173718,0.744667 2.145013,1.995881 3.12955,2.980495 l 5.663031,5.662992 c 0.947415,0.947359 2.248614,2.867228 3.576601,3.232961 2.040861,0.562257 2.518983,-3.098404 2.715623,-4.425173 0.675278,-4.558114 -1.354168,-8.474207 -4.503924,-11.624002 h 7.153183 c 0.737075,0 2.092062,0.26704 2.645149,-0.314606 1.141869,-1.200547 -0.751345,-3.76782 -1.473693,-4.75228 -2.805183,-3.822902 -7.078998,-5.066868 -11.603358,-5.066868 l 4.917889,-4.91785 C 45.305981,9.4469512 46.401083,8.7017134 46.461701,7.7986112 46.585184,5.945011 42.856522,5.5599867 41.589382,5.3810976 36.959254,4.7272831 31.59496,7.3093205 29.220295,11.375212 27.845864,9.9949392 26.653289,8.5505843 25.047588,7.409477 22.620332,5.6845164 19.456211,5.0859174 16.553155,5.4017606 15.30976,5.5370405 11.676459,6.0078942 11.800818,7.7986112 c 0.0626,0.9041297 1.19657,1.6292562 1.767676,2.2353708 1.566791,1.663029 3.154398,3.299344 4.772867,4.91785 m 8.345471,2.980514 -2.086296,-1.283275 -1.788338,-0.877587 -4.61974,-4.545289 -2.831554,-3.1295497 c 1.202202,-0.1261469 2.35092,-0.4076279 3.576582,-0.2856287 2.630327,0.2618074 4.866555,1.5756201 6.706227,3.4151784 0.635378,0.635511 1.752569,1.618373 1.958038,2.533443 0.106169,0.468647 -0.231498,1.048524 -0.364342,1.490248 -0.26255,0.872488 -0.246454,1.850613 -0.550577,2.682441 M 42.93065,8.0966453 c -0.889441,1.4018112 -2.417818,2.5336527 -3.576544,3.7256377 -1.214798,1.24954 -2.30811,2.792206 -3.725713,3.829161 -0.664013,0.485751 -1.526322,0.723186 -2.235333,1.146663 -1.558878,0.930939 -2.825218,2.198555 -3.874673,3.667682 -0.83474,-1.385182 -0.166294,-3.963223 0.389058,-5.364939 1.456969,-3.680792 5.297336,-6.8916617 9.29753,-7.2898334 1.287404,-0.1280498 2.464795,0.2220415 3.725675,0.2856287 m -16.392796,13.5613377 -5.066887,0.05784 -2.980608,0.972855 -10.2825432,0.01142 C 8.7649176,20.931908 10.644128,19.4663 12.231354,18.6433 c 4.352244,-2.256699 11.647766,-1.538841 14.3065,3.013602 m 23.397096,1.043196 -10.133945,-0.01142 -3.874502,-1.121872 -4.17265,0.09095 c 0.517068,-1.161352 1.763089,-2.094935 2.831401,-2.740417 3.220992,-1.946012 8.148964,-1.997802 11.474889,-0.273184 1.447989,0.750756 3.599604,2.333758 3.874807,4.056797 m -23.099081,1.639264 -3.278511,3.427603 -6.259003,6.122412 -3.874788,3.713289 c -0.409435,-1.070746 -0.424467,-2.309443 -0.310516,-3.427584 0.665592,-6.535082 7.26192,-11.600313 13.722818,-9.83572 M 44.868025,37.60352 C 43.426543,37.076576 42.076161,35.109729 40.993314,34.0269 l -6.258967,-6.259081 c -1.07674,-1.076569 -2.464529,-2.144461 -3.278739,-3.427603 7.568879,-2.162498 15.497609,5.628574 13.412417,13.263304 m 14.604496,3.336541 c -2.24987,0.374941 -4.240176,1.042568 -6.110102,2.384406 -5.668396,4.067491 -6.866317,12.672393 -2.475487,18.123162 3.046174,3.781232 7.746701,5.32858 12.460205,4.586709 1.620389,-0.255128 3.273145,-0.984613 4.619835,-1.904249 3.449198,-2.355201 5.662935,-6.376798 5.662935,-10.580824 0,-7.186899 -6.793445,-13.836579 -14.157386,-12.609204 m 0.148217,2.508538 c 9.033307,-1.25464 14.876464,9.781759 9.098816,16.6578 -0.840295,0.999966 -1.824775,1.811266 -2.988696,2.417494 -1.106821,0.576433 -2.323692,1.02202 -3.576734,1.146739 -1.682987,0.167435 -3.493453,-0.0076 -5.066924,-0.641694 -6.146708,-2.475774 -8.170369,-10.095586 -4.470646,-15.440682 0.761961,-1.101037 1.838854,-2.050754 2.980398,-2.740453 1.249389,-0.754809 2.580954,-1.198759 4.023786,-1.399204 M 20.278811,73.965902 v 2.384408 h 2.533406 v -2.384389 h -2.533406 m 27.867781,0 V 76.35033 H 73.629926 V 73.965959 H 48.146877 m -35.468072,2.533425 v 2.533444 h 2.384426 v -2.533444 h -2.384426 m 40.982085,2.533444 v 2.533442 h 14.455574 v -2.533423 z"
       id="path21950" />
  </g>
</svg>
