<?xml version="1.0" encoding="UTF-8" standalone="no"?>
<!-- Created with Inkscape (http://www.inkscape.org/) -->

<svg
   width="40.094002mm"
   height="29.641607mm"
   viewBox="0 0 40.094002 29.641607"
   version="1.1"
   id="svg16234"
   inkscape:version="1.2 (dc2aedaf03, 2022-05-15)"
   sodipodi:docname="couple-icon.svg"
   xmlns:inkscape="http://www.inkscape.org/namespaces/inkscape"
   xmlns:sodipodi="http://sodipodi.sourceforge.net/DTD/sodipodi-0.dtd"
   xmlns="http://www.w3.org/2000/svg"
   xmlns:svg="http://www.w3.org/2000/svg">
  <sodipodi:namedview
     id="namedview16236"
     pagecolor="#ffffff"
     bordercolor="#000000"
     borderopacity="0.25"
     inkscape:showpageshadow="2"
     inkscape:pageopacity="0.0"
     inkscape:pagecheckerboard="0"
     inkscape:deskcolor="#d1d1d1"
     inkscape:document-units="mm"
     showgrid="false"
     inkscape:zoom="0.2102413"
     inkscape:cx="380.51515"
     inkscape:cy="561.25984"
     inkscape:window-width="2560"
     inkscape:window-height="1537"
     inkscape:window-x="-8"
     inkscape:window-y="-8"
     inkscape:window-maximized="1"
     inkscape:current-layer="layer1" />
  <defs
     id="defs16231" />
  <g
     inkscape:label="Layer 1"
     inkscape:groupmode="layer"
     id="layer1">
    <path
       style="fill:#050505;stroke:none;stroke-width:0.0836516"
       d="m 13.154916,0.06543135 c -0.82068,0.14242 -1.56879,0.4165 -2.25863,0.88756 -0.60717,0.41471005 -1.0704404,0.89452005 -1.4778704,1.50588005 -2.70474,4.05715 1.0734504,9.3245196 5.7441404,8.4163596 0.69603,-0.13541 1.42709,-0.45745 2.00772,-0.86203 3.84271,-2.6775696 2.62813,-8.9631196 -2.00772,-9.89665965 -0.62209,-0.12537 -1.37908,-0.16022 -2.00764,-0.0518 m 0.41828,1.24077005 c 4.28833,-0.60550005 6.43603,5.7161 2.59331,7.77984 -0.47341,0.25415 -0.9681,0.46866 -1.5059,0.54832 -4.33167,0.6417096 -6.5942204,-5.12304 -3.01143,-7.61934 0.56076,-0.39069 1.25015,-0.61352 1.92402,-0.70882 m 13.21726,0.51596 c -1.10553,0.18426 -2.11956,0.58121 -2.92794,1.38948 -3.21092,3.21096 -0.45178,8.9788396 4.09903,8.3467396 0.81988,-0.11375 1.58509,-0.38793 2.25866,-0.87591 3.3173,-2.4035996 2.2692,-7.8424996 -1.75667,-8.7556896 -0.54032,-0.12272 -1.12191,-0.19644 -1.67308,-0.10462 m -0.084,1.3244 c 3.72464,-0.62081 5.85719,4.51869 2.59321,6.57391 -0.38497,0.24224 -0.80395,0.4202196 -1.25476,0.4994696 -0.56809,0.10005 -1.11449,0.0959 -1.6731,-0.0643 -3.53077,-1.0134696 -3.39708,-6.3863796 0.33465,-7.0083396 M 6.0440856,25.212571 c 0.34236,0.823 0.32077,1.95623 0.41138,2.84419 0.0401,0.39385 -0.009,0.99504 0.29739,1.29895 0.48405,0.48417 1.99637,0.20683 2.63743,0.20683 h 7.3615204 c 0.6691,0 1.33854,0.008 2.00762,0 0.30749,-0.004 0.66972,-0.0448 0.84117,-0.34147 0.30115,-0.52191 0.18368,-1.41556 0.26484,-2.00075 0.24236,-1.74452 0.38553,-3.51694 0.5601,-5.27028 l 0.16737,-1.67302 c 0.0224,-0.23295 -0.0539,-0.545 0.1834,-0.69254 0.30459,-0.18951 0.97961,-0.0607 1.32928,-0.0607 1.06382,0 2.12251,0.0151 3.17877,-0.091 2.69906,-0.26867 5.3143,-0.94667 7.8634,-1.86126 1.36777,-0.49066 3.70729,-1.26446 3.3973,-3.15096 -0.0462,-0.28104 -0.0983,-0.57986 -0.2254,-0.83652 -0.76814,-1.55073 -2.27289,-1.23386 -3.6738,-1.09439 -1.4366,0.14289 -2.90376,0.17414 -4.34992,0.17414 -3.88361,0 -7.85308,-0.0415 -11.71149,-0.4252 -1.88928,-0.18803 -3.95274,-0.51003 -5.85575,-0.32075 -2.5084804,0.24974 -4.7590604,1.47392 -6.4343004,3.33932 -1.3421,1.49424 -1.82391,3.29876 -2.29583,5.18652 -0.42496,1.69957 -0.82991,3.40328 -1.25486998,5.10272 -0.21574,0.86283 -0.41341,1.72987 -0.62733,2.59326 -0.0759,0.30868 -0.19979,0.78441 -0.0347,1.08523 0.21217,0.38697 0.73909,0.33691 1.11075998,0.33691 h 2.67691 c 0.37569,0 0.8463,0.0692 1.15012,-0.2068 0.29059,-0.26419 0.30815,-0.85196 0.38806,-1.21534 0.21054,-0.95694 0.58726,-1.94617 0.63665,-2.92779 m -4.60085,3.01152 c 0.43909,-2.27232 1.08143,-4.53037 1.64279,-6.77593 0.45245,-1.80981 0.77809,-3.60674 1.98687,-5.10289 3.11703,-3.85832 7.8113504,-3.20244 12.1808204,-2.76746 2.22073,0.22093 4.47268,0.11362 6.6923,0.33457 1.25675,0.12517 2.58456,0.009 3.84802,0.009 1.48862,0 3.04406,0.10233 4.51726,-0.10231 0.82668,-0.11482 2.49819,-0.63725 2.88604,0.43685 0.13699,0.37929 0.0101,0.86211 -0.29969,1.11312 -0.74891,0.60737 -2.01281,0.9544 -2.92088,1.25702 -2.75338,0.91776 -5.49732,1.35285 -8.36534,1.63833 -0.73733,0.0732 -1.60505,0.0732 -2.34239,0 -0.41258,-0.0414 -1.02872,-0.21907 -1.42205,-0.017 -0.58894,0.30366 -0.54881,1.45893 -0.58328,2.0309 -0.11433,1.89967 -0.3925,3.79521 -0.58097,5.6885 l -0.1672,1.58938 c -0.0189,0.18395 0.0536,0.47969 -0.11854,0.60879 -0.15471,0.11638 -0.46047,0.0603 -0.64144,0.0603 h -1.58933 -6.02308 -1.7567204 c -0.21133,0 -0.52133,0.0594 -0.62732,-0.17662 -0.23685,-0.52683 -0.15738,-1.42167 -0.21609,-1.99841 -0.1222,-1.19865 -0.33294,-2.39453 -0.41368,-3.59708 -0.0352,-0.53025 -0.0195,-1.75588 -0.75057,-1.82872 -0.37165,-0.0363 -0.59601,0.35932 -0.69482,0.65761 -0.28606,0.86431 -0.41327,1.79342 -0.63192,2.67682 -0.24705,0.9974 -0.4899,2.00525 -0.69717,3.0116 -0.0577,0.27615 -0.11428,1.02215 -0.3463,1.19435 -0.17072,0.12676 -0.52487,0.06 -0.72493,0.06 h -1.84039 m 31.3700404,-1.50577 c 0.52345,0.75964 0.67373,2.02785 1.35928,2.65133 0.32565,0.29613 0.91407,0.19287 1.31757,0.19287 h 3.1788 c 0.40953,0 1.09184,0.0907 1.3292,-0.3415 0.35381,-0.64384 -0.37131,-2.10258 -0.57624,-2.75368 -0.66296,-2.10575 -1.28692,-4.23426 -1.89155,-6.35766 -0.19641,-0.68987 -0.33943,-2.07696 -0.87836,-2.57226 -0.48877,-0.44935 -1.21183,0.11873 -1.66377,0.36241 -1.35994,0.73353 -2.93925,1.22051 -4.43365,1.59415 -1.7812,0.44527 -3.61325,0.76183 -5.43747,0.94338 -0.81947,0.0819 -2.19373,-0.1585 -2.92552,0.23467 -0.50925,0.27367 -0.47611,1.44132 -0.50423,1.94727 -0.0905,1.62183 -0.40666,3.22998 -0.50425,4.8519 -0.0276,0.46876 -0.28695,1.13811 -0.12318,1.58946 0.17824,0.49078 0.69059,0.50186 1.12937,0.50186 h 3.01157 5.52108 c 0.53674,0 1.58359,0.20185 1.96585,-0.27183 0.17668,-0.21898 0.1255,-0.55399 0.1255,-0.81562 v -1.75672 m -22.00095,-9.16966 c -1.5721904,0.30207 -2.4830904,1.98786 -1.8334104,3.48097 0.44795,1.02914 1.4324504,1.90013 2.1355304,2.76046 0.44398,0.5435 1.21238,1.98629 2.0402,1.8311 0.62538,-0.11723 1.27558,-1.27274 1.65693,-1.7474 1.20501,-1.50035 3.50056,-3.48242 1.83572,-5.52116 -0.65186,-0.79798 -1.79805,-0.98031 -2.73979,-0.69475 -0.28835,0.0877 -0.62329,0.39277 -0.9201,0.39277 -0.24956,0 -0.5238,-0.24444 -0.7529,-0.33472 -0.43215,-0.16995 -0.96333,-0.25544 -1.42218,-0.16727 m 2.25868,6.40876 h -0.16731 c -0.57975,-0.91985 -1.41142,-1.75516 -2.10991,-2.59331 -0.34843,-0.41813 -0.7994304,-0.91314 -0.71581,-1.50568 0.12971,-0.91837 1.14454,-1.27356 1.9055,-0.82954 0.32842,0.19158 0.59664,0.66481 1.00393,0.67622 0.4004,0.0116 0.57058,-0.34686 0.84333,-0.56005 0.62429,-0.48777 1.66674,-0.40462 1.99385,0.37869 0.28366,0.67931 -0.14464,1.25827 -0.55994,1.75674 -0.73472,0.8816 -1.51665,1.75096 -2.19364,2.67693 m 22.75371,-5.01918 2.76056,9.28549 h -2.67687 c -0.26041,0 -0.73633,0.0953 -0.93187,-0.1115 -0.25575,-0.26995 -0.35767,-0.72809 -0.51123,-1.05964 -0.42679,-0.92185 -0.84972,-1.84956 -1.29898,-2.76053 -0.20213,-0.41016 -0.37944,-1.18759 -0.93862,-1.24318 -0.61168,-0.061 -0.6693,0.65835 -0.6693,1.0759 v 4.09895 h -9.11826 l 0.46942,-4.7682 0.17665,-1.47798 0.85978,-0.17652 2.59319,-0.21842 5.60475,-1.17573 z"
       id="path22174" />
  </g>
</svg>
