<?xml version="1.0" encoding="UTF-8" standalone="no"?>
<!-- Created with Inkscape (http://www.inkscape.org/) -->

<svg
   width="40.062012mm"
   height="39.956772mm"
   viewBox="0 0 40.062012 39.956772"
   version="1.1"
   id="svg7069"
   inkscape:version="1.2 (dc2aedaf03, 2022-05-15)"
   sodipodi:docname="family-icon.svg"
   xmlns:inkscape="http://www.inkscape.org/namespaces/inkscape"
   xmlns:sodipodi="http://sodipodi.sourceforge.net/DTD/sodipodi-0.dtd"
   xmlns="http://www.w3.org/2000/svg"
   xmlns:svg="http://www.w3.org/2000/svg">
  <sodipodi:namedview
     id="namedview7071"
     pagecolor="#ffffff"
     bordercolor="#000000"
     borderopacity="0.25"
     inkscape:showpageshadow="2"
     inkscape:pageopacity="0.0"
     inkscape:pagecheckerboard="0"
     inkscape:deskcolor="#d1d1d1"
     inkscape:document-units="mm"
     showgrid="false"
     inkscape:zoom="0.2102413"
     inkscape:cx="380.51515"
     inkscape:cy="561.25984"
     inkscape:window-width="2560"
     inkscape:window-height="1537"
     inkscape:window-x="-8"
     inkscape:window-y="-8"
     inkscape:window-maximized="1"
     inkscape:current-layer="layer1" />
  <defs
     id="defs7066" />
  <g
     inkscape:label="Layer 1"
     inkscape:groupmode="layer"
     id="layer1">
    <path
       style="fill:#020202;stroke:none;stroke-width:0.0780252"
       d="m 17.446926,0.03734313 c -0.62422,0.10468 -1.18429,0.26384 -1.71659,0.61998 -0.43673,0.29218 -0.79362,0.63327997 -1.09237,1.06631997 -1.91501,2.7762 0.41721,5.64178 2.57487,7.36493 0.64895,0.51824 1.33637,0.9693899 2.0287,1.4261599 0.22963,0.15145 0.56429,0.44319 0.8583,0.39014 0.75373,-0.13609 1.74185,-1.0475099 2.3408,-1.5063899 2.12317,-1.62677 4.52968,-4.07311 3.35513,-6.97253 -0.18187,-0.44908 -0.46979,-0.87357 -0.81061,-1.21825 -0.98595,-0.99673997 -2.35134,-1.37049997 -3.71494,-1.10506997 -0.39589,0.0772 -0.86242,0.4291 -1.24842,0.4291 -0.2599,0 -0.60611,-0.23292 -0.85829,-0.31645 -0.54032,-0.17898 -1.14995,-0.27218 -1.71658,-0.17794 m 0.15605,2.32789997 c 0.65051,-0.10991 1.18624,0.15457 1.63856,0.60689 0.1857,0.18575 0.48821,0.74559 0.78026,0.74559 0.27676,0 0.59558,-0.56777 0.78027,-0.74344 0.6182,-0.58789 1.49538,-0.89317 2.26277,-0.35545 2.01964,1.41515 -0.57443,3.76297 -1.71658,4.67512 -0.32975,0.26334 -0.82466,0.77707 -1.24842,0.86047 -0.42815,0.0842 -1.08956,-0.62062 -1.40449,-0.86265 -0.92126,-0.708 -1.98749,-1.61157 -2.34081,-2.7591 -0.28728,-0.93316 0.24072,-1.99714 1.24844,-2.16743 M 6.3671459,20.840223 c -1.24911,0.76101 -2.50128,1.38257 -3.50471,2.49687 -1.66499,1.84908 -2.56463999,4.09974 -2.80893999,6.55424 -0.11676,1.17227 -0.006,2.41078 -0.006,3.58921 v 6.47623 H 39.997116 c 0,-5.28833 0.85821,-11.25036 -3.66725,-15.06351 -0.74369,-0.62657 -1.68952,-1.39942 -2.65292,-1.6342 v -0.078 c 0.3533,-0.12915 0.59551,-0.43695 0.8583,-0.70224 0.73438,-0.74125 1.26004,-1.66658 1.58651,-2.6529 1.36055,-4.11022 -1.50029,-8.76488 -5.87798,-9.20067 -4.44034,-0.44194 -8.2631,3.26144 -7.80913,7.71816 0.14831,1.45661 0.70613,2.89768 1.72524,3.97935 0.29329,0.31134 0.60768,0.71043 1.01215,0.8583 v 0.078 l -1.21806,0.53105 -0.7326,-0.51591 -1.87263,-0.78028 -2.26278,-0.0759 -1.24844,0.29697 -0.93631,-0.67407 -2.02869,-1.20075 c 0.98532,-0.43881 1.66415,-1.65089 2.12404,-2.57488 2.05678,-4.13275 -0.83863,-9.5190099 -5.4792,-9.9809199 -3.0588601,-0.30446 -6.0056301,1.22274 -7.3149701,4.0508899 -1.01316,2.18843 -0.78077,4.86614 0.55268,6.86636 0.39646,0.59472 0.94777,1.34243 1.61254,1.63855 m 3.9793601,-10.2822 c 2.53073,-0.3515 4.75214,1.99032 4.98723,4.35217 0.24852,2.49733 -1.73233,4.81894 -4.20695,5.06526 -4.3421901,0.43218 -6.8951001,-4.88804 -3.8710001,-8.01294 0.84511,-0.87328 1.91876,-1.24172 3.0907201,-1.40449 m 19.11653,2.37116 c 3.81488,0.0971 6.06268,4.51859 3.69541,7.59893 -0.38677,0.50328 -0.87341,0.92735 -1.43264,1.22892 -0.87171,0.4702 -1.75357,0.59286 -2.73093,0.5657 -0.56529,-0.0158 -1.1338,-0.20778 -1.63856,-0.45084 -3.63799,-1.75163 -3.43987,-7.36658 0.46816,-8.67828 0.53456,-0.17937 1.0724,-0.27887 1.63856,-0.26443 m -13.73281,11.11017 c -0.0746,0.4215 -0.44763,0.73352 -0.6719,1.09238 -0.37553,0.6008 -0.64027,1.2556 -0.78024,1.95067 -0.29668,1.47282 0.0144,3.02836 0.83012,4.29145 0.33106,0.51263 0.96307,0.92127 1.16821,1.48251 -1.05921,0.72097 -1.97462,1.65175 -2.55319,2.80896 -0.20872,0.41744 -0.38748,0.8735 -0.5007,1.32644 -0.0411,0.1648 -0.039,0.45459 -0.18422,0.56789 -0.16519,0.12887 -0.54447,0.0564 -0.74126,0.0564 h -2.02884 -7.8806901 v -5.22778 c 0,-1.64871 -0.038,-3.1835 0.52018,-4.75963 1.37957,-3.89532 5.61913,-5.91013 9.5452701,-5.1194 1.23001,0.24765 2.2203,0.91298 3.27711,1.53017 m 3.90133,0.64155 c 2.75045,-0.38835 4.77351,2.72046 3.56752,5.13244 -0.56349,1.12699 -1.64799,1.76145 -2.86527,1.93333 -2.30662,0.32569 -4.21362,-2.00693 -3.79298,-4.19612 0.29707,-1.54625 1.54775,-2.65173 3.09073,-2.86965 m 18.02414,12.9351 h -7.88076 -2.02869 c -0.19679,0 -0.57609,0.0724 -0.74126,-0.0564 -0.14529,-0.1133 -0.14301,-0.40309 -0.18422,-0.56789 -0.11315,-0.45294 -0.29198,-0.909 -0.5007,-1.32644 -0.57981,-1.15963 -1.49271,-2.08714 -2.55318,-2.80896 0.21543,-0.58941 0.88491,-1.00904 1.21807,-1.56053 1.07801,-1.78431 1.05914,-3.64478 0.34247,-5.53989 4.19783,-2.55747 9.94449,-0.42931 11.75166,4.05738 0.96574,2.3976 0.57654,5.27039 0.57654,7.80267 m -13.10848,0 h -9.05112 c 0.063,-0.57608 0.35088,-1.09198 0.67836,-1.56054 1.81989,-2.60328 5.87556,-2.60172 7.69437,0 0.32748,0.46856 0.6154,0.98446 0.67836,1.56054 z"
       id="path21275" />
  </g>
</svg>
