<?xml version="1.0" encoding="UTF-8" standalone="no"?>
<!-- Created with Inkscape (http://www.inkscape.org/) -->

<svg
   width="40.052002mm"
   height="40.067009mm"
   viewBox="0 0 40.052002 40.067009"
   version="1.1"
   id="svg858"
   inkscape:version="1.2 (dc2aedaf03, 2022-05-15)"
   sodipodi:docname="grill-icon.svg"
   xmlns:inkscape="http://www.inkscape.org/namespaces/inkscape"
   xmlns:sodipodi="http://sodipodi.sourceforge.net/DTD/sodipodi-0.dtd"
   xmlns="http://www.w3.org/2000/svg"
   xmlns:svg="http://www.w3.org/2000/svg">
  <sodipodi:namedview
     id="namedview860"
     pagecolor="#ffffff"
     bordercolor="#000000"
     borderopacity="0.25"
     inkscape:showpageshadow="2"
     inkscape:pageopacity="0.0"
     inkscape:pagecheckerboard="0"
     inkscape:deskcolor="#d1d1d1"
     inkscape:document-units="mm"
     showgrid="false"
     inkscape:zoom="8.5317491"
     inkscape:cx="75.717182"
     inkscape:cy="75.717182"
     inkscape:window-width="2560"
     inkscape:window-height="1537"
     inkscape:window-x="-8"
     inkscape:window-y="-8"
     inkscape:window-maximized="1"
     inkscape:current-layer="layer1" />
  <defs
     id="defs855" />
  <g
     inkscape:label="Layer 1"
     inkscape:groupmode="layer"
     id="layer1">
    <path
       style="fill:#040404;stroke:none;stroke-width:0.0781728"
       d="m 3.3615301,9.4205542 c -0.95711,0 -2.06281,-0.1912 -2.80772996,0.55371 C -0.01762986,10.545704 6.0136484e-5,11.331434 6.0136484e-5,12.078454 v 4.06501 c 0,0.68073 -0.0029999965,1.33231 0.475550003516,1.87615 0.74522996,0.84835 1.86626996,0.70357 2.88591996,0.70357 0.38579,3.67312 2.49266,7.09227 6.01933,8.52088 1.3365199,0.54144 2.7732499,0.86671 4.2213499,0.77955 0.80208,-0.0482 1.59723,-0.7482 1.64163,-1.56128 0.42638,0.27048 0.71445,0.70333 1.09445,1.0336 0.14162,0.12313 0.40616,0.30613 0.45384,0.49946 0.0413,0.16775 -0.17111,0.44121 -0.24973,0.57762 -0.28136,0.48812 -0.51775,0.99718 -0.79912,1.48529 -1.0415,1.80689 -1.97658,3.70018 -2.94018,5.55031 -0.6836,1.31252 -1.3416,2.95823 0.17372,4.0281 1.39671,0.98609 2.97535,0.149 3.65679,-1.21387 0.89641,-1.79282 1.91789,-3.52303 2.81423,-5.31577 0.30145,-0.60296 0.61197,-1.21053 0.94239,-1.798 0.12249,-0.21763 0.25116,-0.59121 0.44082,-0.75351 0.21397,-0.18307 0.67379,0.0789 0.90118,0.15416 0.72131,0.23882 1.51119,0.44175 2.26703,0.52118 v 4.14319 c 0,0.70973 -0.1007,1.51976 0.18895,2.18884 0.57669,1.33232 2.56837,1.57856 3.43093,0.39088 0.48704,-0.67066 0.36697,-1.48444 0.36697,-2.26702 v -4.45589 c 1.02398,-0.10757 2.30477,-0.34544 3.20508,-0.85991 0.17277,0.67417 0.66715,1.3406 0.99671,1.95433 0.7114,1.32457 1.39915,2.66196 2.11069,3.98685 0.51883,0.96606 0.9312,2.22731 1.69158,3.03139 0.90652,0.95865 2.48492,0.93582 3.40273,0.0109 1.12861,-1.13741 0.45601,-2.49075 -0.1325,-3.66764 -0.93511,-1.87023 -1.98155,-3.6851 -2.92712,-5.55031 -0.25219,-0.4975 -0.52003,-0.99389 -0.78393,-1.48529 -0.0877,-0.16299 -0.26733,-0.3564 -0.27796,-0.54722 -0.0177,-0.31636 0.48566,-0.6572 0.6884,-0.8599 0.64915,-0.64915 1.24387,-1.33903 1.74584,-2.11069 1.16852,-1.79634 1.86732,-3.75129 2.18017,-5.86298 0.10591,-0.71498 0.24703,-1.54643 0.10857,-2.26703 -0.47944,-2.49545 -3.7847,-3.48355 -5.91077,-4.01505 -4.26552,-1.06636 -8.63687,-1.07583 -12.97676,-0.60366 -1.92299,0.20918 -4.03591,0.63938 -5.78483,1.49178 V 4.4174942 c 0,-1.14162 0.32911,-2.82918 -0.49945,-3.74580001 -1.04884,-1.16039 -3.31029,-0.55181 -4.5818,-0.1368 C 6.4119701,1.7845542 3.5657301,5.3706542 3.3615301,9.4205842 M 21.81041,0.07888419 c -0.44238,0.15709 -0.38346,0.59075 -0.63405,0.89899 -0.67644,0.83195001 -1.53262,1.45150001 -0.98805,2.65788001 0.21084,0.46715 1.13571,0.91727 1.13571,1.40712 0,0.34147 -0.47335,0.57713 -0.68622,0.78391 -0.42736,0.4151 -0.71089,1.03604 -0.59496,1.63948 0.15954,0.83067 0.76255,1.07886 1.19433,1.71981 0.24303,0.36085 0.31894,1.0499398 0.9641,0.8208098 1.10904,-0.3938298 0.0803,-1.8051598 -0.39086,-2.2344498 -0.15704,-0.14307 -0.46821,-0.37487 -0.43433,-0.61887 0.0428,-0.30765 0.46419,-0.51604 0.66665,-0.71007 0.30534,-0.29258 0.51658,-0.6733 0.59716,-1.08792 0.11305,-0.58135 -0.10631,-1.22272 -0.51898,-1.63947 -0.22013,-0.22236 -0.68862,-0.44746 -0.74483,-0.7839 -0.0393,-0.23577 0.20236,-0.42881 0.35833,-0.56242 0.46584,-0.39912 0.86522,-0.82564 0.92939,-1.47008001 0.0466,-0.46764 -0.32954,-1.00685 -0.85339,-0.82082 m 3.98683,0 c -0.44019,0.15669 -0.35943,0.57728 -0.58631,0.89247 -0.19989,0.27769001 -0.53564,0.44843001 -0.75349,0.71658001 -0.44878,0.55254 -0.55216,1.29431 -0.26923,1.94782 0.2049,0.47347 1.12264,0.91779 1.12264,1.40712 0,0.34729 -0.46741,0.5807 -0.68403,0.78826 -0.38734,0.37109 -0.68729,1.00855 -0.59717,1.55695 0.14025,0.85342 0.74017,1.08075 1.18128,1.722 0.26938,0.39157 0.27597,1.1070898 0.97717,0.8989998 1.06778,-0.3168298 0.17568,-1.7704798 -0.31268,-2.1823598 -0.17176,-0.14485 -0.47724,-0.35025 -0.50163,-0.59498 -0.0305,-0.30898 0.38318,-0.55004 0.57979,-0.72094 0.34053,-0.29601 0.6097,-0.70254 0.68623,-1.15523 0.10231,-0.60556 -0.11089,-1.20592 -0.53207,-1.64164 -0.21309,-0.22049 -0.6775,-0.45259 -0.73179,-0.78173 -0.0366,-0.22281 0.19836,-0.40879 0.34313,-0.5407 0.4344,-0.39574 0.86358,-0.78846 0.93158,-1.41363001 0.0547,-0.50124 -0.23726,-1.11833 -0.85342,-0.89899 m 4.06501,-0.007 c -0.48819,0.1152 -0.40368,0.57487 -0.64931,0.90551 -0.22341,0.30079001 -0.57247,0.48103001 -0.80337,0.78173001 -0.48405,0.63023 -0.46013,1.53662 -0.0303,2.18886 0.22187,0.33674 0.89291,0.64832 0.94238,1.06402 0.043,0.36074 -0.57755,0.67149 -0.78174,0.89248 -0.41619,0.45054 -0.55876,1.12218 -0.45814,1.71764 0.12129,0.71795 0.74131,0.96021 1.13129,1.4853 0.17021,0.22904 0.14542,0.55918 0.35616,0.75781 0.15543,0.1464998 0.40159,0.1958998 0.60586,0.1476698 1.17369,-0.2769698 0.0493,-1.8692798 -0.39085,-2.2517998 -0.1541,-0.13394 -0.3755,-0.30938 -0.39737,-0.52984 -0.0321,-0.32307 0.35241,-0.52841 0.5537,-0.71008 0.32917,-0.29711 0.6102,-0.63858 0.68619,-1.08791 0.10444,-0.61799 -0.0504,-1.2421 -0.48206,-1.70244 -0.22188,-0.23654 -0.70904,-0.44686 -0.75352,-0.79911 -0.0282,-0.22426 0.16569,-0.4019 0.31486,-0.5407 0.43941,-0.40891 0.86171,-0.77184 0.9316,-1.41363001 0.0543,-0.4976 -0.17122,-1.04806 -0.77525,-0.90551 M 12.58611,1.3856242 c 0.37747,-0.0524 1.03373,-0.12146 1.28985,0.22367 0.2267,0.30556 0.11724,0.88481 0.11724,1.24426 v 2.97058 15.0874498 4.37771 c 0,0.47686 0.14597,1.24099 -0.46905,1.38758 -0.73026,0.17401 -1.63772,-0.0491 -2.34518,-0.22585 -2.8407499,-0.71021 -5.2083199,-2.89187 -6.0975299,-5.69579 -0.64565,-2.03602 -0.39084,-4.29874 -0.39084,-6.4102 0,-1.71879 -0.16365,-3.52804 0.007,-5.2376098 0.21901,-2.20041 1.35904,-4.29663 3.04227,-5.711 0.59385,-0.499 1.2473,-0.91426 1.95433,-1.2334 0.9383599,-0.42359 1.8792399,-0.63667 2.8923799,-0.7774 m -0.8599,1.49832 c -2.2937499,0.4354 -4.2950999,2.21374 -5.1594499,4.34732 -0.31827,0.78572 -0.54523,1.64914 -0.54719,2.50154 -9.9e-4,0.5218898 0.13999,1.0155598 0.78174,0.9315898 0.29762,-0.039 0.46821,-0.25601 0.52766,-0.54072 0.20206,-0.9675498 0.20143,-1.8143298 0.6623,-2.7360698 0.57798,-1.15605 1.5619,-2.14027 2.7186999,-2.71869 0.4936,-0.24681 1.31228,-0.30552 1.71331,-0.66231 0.59914,-0.53312 -0.0445,-1.24654 -0.69707,-1.12266 M 3.3621601,17.393784 c -0.52296,0 -1.47449,0.18973 -1.85664,-0.241 -0.30028,-0.33857 -0.17588,-0.98061 -0.17588,-1.40064 v -3.43962 c 0,-0.37648 -0.11912,-1.00297 0.11728,-1.32245 0.29848,-0.40338 0.93259,-0.32021 1.368,-0.31918 0.15299,3.7e-4 0.38481,-0.0365 0.49079,0.1042 0.0977,0.13016 0.0566,0.36944 0.0566,0.52118 v 1.40712 1.87615 2.81424 m 23.8428499,-3.98684 0.46253,4.69041 0.31917,3.2051 -2.89238,0.0781 -0.95984,-0.1042 0.0693,-1.30292 0.32575,-3.28327 0.23452,-2.42337 0.13459,-0.80347 0.66451,-0.0565 h 1.64164 m -3.67415,0.0781 -0.78175,7.73916 -2.42336,-0.28229 -0.80129,-0.21279 0.34313,-1.61561 1.05315,-3.83048 0.46036,-1.53743 0.50812,-0.13463 1.64164,-0.12593 m 9.06811,7.27011 c -0.97851,0.36179 -2.31957,0.46905 -3.36148,0.46905 l -0.70354,-7.73916 2.08463,0.21279 0.21279,0.56894 0.3496,1.25077 1.418,5.23761 m -0.39089,-6.87924 1.77408,0.49507 0.66885,1.45926 1.6221,3.83049 c -0.71514,0.34858 -1.62157,0.74132 -2.42338,0.78173 -0.30932,-1.60036 -0.84137,-3.19853 -1.28118,-4.76856 -0.1229,-0.43872 -0.58214,-1.39469 -0.36047,-1.79799 m -12.27319,0.0782 c -0.45206,1.58214 -0.89814,3.17313 -1.30072,4.76856 -0.0893,0.35311 -0.2103,1.46121 -0.52332,1.66118 -0.17094,0.10922 -0.50532,-0.0434 -0.67753,-0.0978 -0.50452,-0.15884 -0.99536,-0.34872 -1.48529,-0.5472 -0.2058,-0.0834 -0.51154,-0.16988 -0.59934,-0.39736 -0.0996,-0.25805 -0.0258,-0.65775 -0.0258,-0.93159 v -2.11068 c 0,-0.24883 -0.0993,-0.76907 0.0567,-0.97717 0.19302,-0.2582 0.82113,-0.40173 1.11618,-0.51031 1.05721,-0.38907 2.30157,-0.85295 3.43963,-0.85772 m 17.51081,5.08126 -1.79799,-4.14317 c 1.52579,0.18589 4.07213,2.02162 2.50154,3.59596 -0.2128,0.21325 -0.4452,0.39634 -0.70355,0.54721 m 0.93808,0.93809 c -0.0125,0.73357 -0.31194,1.52398 -0.60584,2.18885 -0.72491,1.6396 -1.73889,3.61997 -3.30285,4.61222 -0.7489,-1.74741 -3.19797,-1.76554 -4.11055,-0.15635 -0.56911,1.00351 0.005,1.68542 0.12374,2.6579 -2.02448,0.64649 -3.97825,0.9129 -6.09754,0.69707 -1.00077,-0.10194 -1.91967,-0.49679 -2.89242,-0.69707 0.23479,-0.96334 0.71626,-1.57293 0.21279,-2.57972 -0.86371,-1.72748 -3.24189,-1.66127 -4.12145,0 -0.49288,-0.087 -0.78892,-0.58053 -1.10091,-0.93808 -0.37967,-0.43512 -0.90237,-0.93871 -1.11614,-1.4853 -0.12422,-0.31754 -0.0501,-0.75813 -0.0501,-1.09442 v -2.26659 c 1.58207,0.37891 3.06853,1.00195 4.69039,1.29853 2.96762,0.54268 6.07042,0.64798 9.06811,0.3496 2.3241,-0.23133 4.67573,-0.52424 6.87928,-1.36585 0.85384,-0.32613 1.61494,-0.80597 2.42335,-1.22036 m -18.83979,6.74025 c 0.82058,-0.11585 1.29369,0.78188 0.99673,1.46794 -1.19447,2.75952 -2.83793,5.40302 -4.26046,8.05184 -0.39483,0.73516 -0.85856,2.3796 -1.81752,2.49506 -0.86703,0.10436 -1.33324,-0.83614 -0.99453,-1.55697 1.2637,-2.68916 2.84801,-5.23933 4.18228,-7.8955 0.38469,-0.76595 0.93276,-2.42666 1.8935,-2.56237 m 12.74227,0 c 1.04773,-0.1479 1.59168,1.59817 1.97169,2.32784 1.25162,2.40314 2.57956,4.77076 3.79578,7.19194 0.37968,0.75594 1.26093,2.24811 -0.21718,2.4842 -1.08848,0.17386 -1.6335,-1.56456 -2.01516,-2.32785 -1.23326,-2.46652 -2.51857,-4.95915 -3.89558,-7.34829 -0.43082,-0.74741 -0.99892,-2.13584 0.36045,-2.32784 m -5.6285,4.67304 v 4.6904 c 0,0.53486 0.0948,1.38305 -0.70355,1.32026 -0.72568,-0.0572 -0.62538,-0.88554 -0.62538,-1.39843 v -4.61223 z"
       id="path21838" />
  </g>
</svg>
