<?xml version="1.0" encoding="UTF-8" standalone="no"?>
<!-- Created with Inkscape (http://www.inkscape.org/) -->

<svg
   width="6.2857399in"
   height="1.4771163in"
   viewBox="0 0 159.6578 37.518756"
   version="1.1"
   id="svg353"
   inkscape:version="1.3 (0e150ed6c4, 2023-07-21)"
   sodipodi:docname="instagram-full-logo.svg"
   xml:space="preserve"
   xmlns:inkscape="http://www.inkscape.org/namespaces/inkscape"
   xmlns:sodipodi="http://sodipodi.sourceforge.net/DTD/sodipodi-0.dtd"
   xmlns="http://www.w3.org/2000/svg"
   xmlns:svg="http://www.w3.org/2000/svg"><sodipodi:namedview
     id="namedview355"
     pagecolor="#ffffff"
     bordercolor="#666666"
     borderopacity="1.0"
     inkscape:showpageshadow="2"
     inkscape:pageopacity="0.0"
     inkscape:pagecheckerboard="0"
     inkscape:deskcolor="#d1d1d1"
     inkscape:document-units="mm"
     showgrid="false"
     inkscape:zoom="2.3653141"
     inkscape:cx="369.71834"
     inkscape:cy="57.709037"
     inkscape:window-width="2560"
     inkscape:window-height="1537"
     inkscape:window-x="-8"
     inkscape:window-y="-8"
     inkscape:window-maximized="1"
     inkscape:current-layer="layer1" /><defs
     id="defs350"><radialGradient
       id="0"
       cx="332.14001"
       cy="2511.8101"
       r="3263.54"
       gradientUnits="userSpaceOnUse"><stop
         offset=".09"
         stop-color="#fa8f21"
         id="stop1998" /><stop
         offset=".78"
         stop-color="#d82d7e"
         id="stop2000" /></radialGradient><radialGradient
       id="1"
       cx="1516.14"
       cy="2623.8101"
       r="2572.1201"
       gradientUnits="userSpaceOnUse"><stop
         offset=".64"
         stop-color="#8c3aaa"
         stop-opacity="0"
         id="stop2003" /><stop
         offset="1"
         stop-color="#8c3aaa"
         id="stop2005" /></radialGradient></defs><g
     inkscape:label="Layer 1"
     inkscape:groupmode="layer"
     id="layer1"
     transform="translate(91.398987,-62.231654)"><g
       id="g2026"
       transform="matrix(0.01212051,0,0,0.01212051,-91.398987,62.231654)"><path
         d="m 833.4,1250 c 0,-230.11 186.49,-416.7 416.6,-416.7 230.11,0 416.7,186.59 416.7,416.7 0,230.11 -186.59,416.7 -416.7,416.7 -230.11,0 -416.6,-186.59 -416.6,-416.7 m -225.26,0 c 0,354.5 287.36,641.86 641.86,641.86 354.5,0 641.86,-287.36 641.86,-641.86 C 1891.86,895.5 1604.5,608.14 1250,608.14 895.5,608.14 608.14,895.5 608.14,1250 M 1767.27,582.69 a 150,150 0 1 0 150.06,-149.94 h -0.06 a 150.07,150.07 0 0 0 -150,149.94 M 745,2267.47 c -121.87,-5.55 -188.11,-25.85 -232.13,-43 -58.36,-22.72 -100,-49.78 -143.78,-93.5 -43.78,-43.72 -70.88,-85.32 -93.5,-143.68 -17.16,-44 -37.46,-110.26 -43,-232.13 -6.06,-131.76 -7.27,-171.34 -7.27,-505.15 0,-333.81 1.31,-373.28 7.27,-505.15 5.55,-121.87 26,-188 43,-232.13 22.72,-58.36 49.78,-100 93.5,-143.78 43.72,-43.78 85.32,-70.88 143.78,-93.5 44,-17.16 110.26,-37.46 232.13,-43 131.76,-6.06 171.34,-7.27 505,-7.27 333.66,0 373.28,1.31 505.15,7.27 121.87,5.55 188,26 232.13,43 58.36,22.62 100,49.78 143.78,93.5 43.78,43.72 70.78,85.42 93.5,143.78 17.16,44 37.46,110.26 43,232.13 6.06,131.87 7.27,171.34 7.27,505.15 0,333.81 -1.21,373.28 -7.27,505.15 -5.55,121.87 -25.95,188.11 -43,232.13 -22.72,58.36 -49.78,100 -93.5,143.68 -43.72,43.68 -85.42,70.78 -143.78,93.5 -44,17.16 -110.26,37.46 -232.13,43 -131.76,6.06 -171.34,7.27 -505.15,7.27 -333.81,0 -373.28,-1.21 -505,-7.27 M 734.65,7.57 C 601.58,13.63 510.65,34.73 431.24,65.63 349,97.54 279.38,140.35 209.81,209.81 140.24,279.27 97.54,349 65.63,431.24 34.73,510.7 13.63,601.58 7.57,734.65 1.41,867.93 0,910.54 0,1250 c 0,339.46 1.41,382.07 7.57,515.35 6.06,133.08 27.16,223.95 58.06,303.41 31.91,82.19 74.62,152 144.18,221.43 69.56,69.43 139.19,112.18 221.43,144.18 79.56,30.9 170.34,52 303.41,58.06 133.35,6.06 175.89,7.57 515.35,7.57 339.46,0 382.07,-1.41 515.35,-7.57 133.08,-6.06 223.95,-27.16 303.41,-58.06 82.19,-32 151.86,-74.72 221.43,-144.18 69.57,-69.46 112.18,-139.24 144.18,-221.43 30.9,-79.46 52.1,-170.34 58.06,-303.41 6.06,-133.38 7.47,-175.89 7.47,-515.35 0,-339.46 -1.41,-382.07 -7.47,-515.35 -6.06,-133.08 -27.16,-224 -58.06,-303.41 -32,-82.19 -74.72,-151.86 -144.18,-221.43 C 2220.73,140.24 2150.95,97.54 2068.86,65.63 1989.3,34.73 1898.42,13.53 1765.45,7.57 1632.17,1.51 1589.56,0 1250.1,0 910.64,0 868,1.41 734.65,7.57"
         fill="url(#0)"
         id="path2010"
         style="fill:url(#0)" /><path
         d="m 833.4,1250 c 0,-230.11 186.49,-416.7 416.6,-416.7 230.11,0 416.7,186.59 416.7,416.7 0,230.11 -186.59,416.7 -416.7,416.7 -230.11,0 -416.6,-186.59 -416.6,-416.7 m -225.26,0 c 0,354.5 287.36,641.86 641.86,641.86 354.5,0 641.86,-287.36 641.86,-641.86 C 1891.86,895.5 1604.5,608.14 1250,608.14 895.5,608.14 608.14,895.5 608.14,1250 M 1767.27,582.69 a 150,150 0 1 0 150.06,-149.94 h -0.06 a 150.07,150.07 0 0 0 -150,149.94 M 745,2267.47 c -121.87,-5.55 -188.11,-25.85 -232.13,-43 -58.36,-22.72 -100,-49.78 -143.78,-93.5 -43.78,-43.72 -70.88,-85.32 -93.5,-143.68 -17.16,-44 -37.46,-110.26 -43,-232.13 -6.06,-131.76 -7.27,-171.34 -7.27,-505.15 0,-333.81 1.31,-373.28 7.27,-505.15 5.55,-121.87 26,-188 43,-232.13 22.72,-58.36 49.78,-100 93.5,-143.78 43.72,-43.78 85.32,-70.88 143.78,-93.5 44,-17.16 110.26,-37.46 232.13,-43 131.76,-6.06 171.34,-7.27 505,-7.27 333.66,0 373.28,1.31 505.15,7.27 121.87,5.55 188,26 232.13,43 58.36,22.62 100,49.78 143.78,93.5 43.78,43.72 70.78,85.42 93.5,143.78 17.16,44 37.46,110.26 43,232.13 6.06,131.87 7.27,171.34 7.27,505.15 0,333.81 -1.21,373.28 -7.27,505.15 -5.55,121.87 -25.95,188.11 -43,232.13 -22.72,58.36 -49.78,100 -93.5,143.68 -43.72,43.68 -85.42,70.78 -143.78,93.5 -44,17.16 -110.26,37.46 -232.13,43 -131.76,6.06 -171.34,7.27 -505.15,7.27 -333.81,0 -373.28,-1.21 -505,-7.27 M 734.65,7.57 C 601.58,13.63 510.65,34.73 431.24,65.63 349,97.54 279.38,140.35 209.81,209.81 140.24,279.27 97.54,349 65.63,431.24 34.73,510.7 13.63,601.58 7.57,734.65 1.41,867.93 0,910.54 0,1250 c 0,339.46 1.41,382.07 7.57,515.35 6.06,133.08 27.16,223.95 58.06,303.41 31.91,82.19 74.62,152 144.18,221.43 69.56,69.43 139.19,112.18 221.43,144.18 79.56,30.9 170.34,52 303.41,58.06 133.35,6.06 175.89,7.57 515.35,7.57 339.46,0 382.07,-1.41 515.35,-7.57 133.08,-6.06 223.95,-27.16 303.41,-58.06 82.19,-32 151.86,-74.72 221.43,-144.18 69.57,-69.46 112.18,-139.24 144.18,-221.43 30.9,-79.46 52.1,-170.34 58.06,-303.41 6.06,-133.38 7.47,-175.89 7.47,-515.35 0,-339.46 -1.41,-382.07 -7.47,-515.35 -6.06,-133.08 -27.16,-224 -58.06,-303.41 -32,-82.19 -74.72,-151.86 -144.18,-221.43 C 2220.73,140.24 2150.95,97.54 2068.86,65.63 1989.3,34.73 1898.42,13.53 1765.45,7.57 1632.17,1.51 1589.56,0 1250.1,0 910.64,0 868,1.41 734.65,7.57"
         fill="url(#1)"
         id="path2012"
         style="fill:url(#1)" /></g><g
       style="color:#000000;fill:#000000"
       id="g1"
       transform="matrix(1.1337993,0,0,1.1337993,-96.141821,58.944971)"><path
         clip-rule="evenodd"
         d="m 37.82,4.11 c -2.32,0.97 -4.86,3.7 -5.66,7.13 -1.02,4.34 3.21,6.17 3.56,5.57 0.4,-0.7 -0.76,-0.94 -1,-3.2 -0.3,-2.9 1.05,-6.16 2.75,-7.58 0.32,-0.27 0.3,0.1 0.3,0.78 l -0.06,14.46 c 0,3.1 -0.13,4.07 -0.36,5.04 -0.23,0.98 -0.6,1.64 -0.33,1.9 0.32,0.28 1.68,-0.4 2.46,-1.5 a 8.13,8.13 0 0 0 1.33,-4.58 c 0.07,-2.06 0.06,-5.33 0.07,-7.19 0,-1.7 0.03,-6.71 -0.03,-9.72 -0.02,-0.74 -2.07,-1.51 -3.03,-1.1 z m 82.13,14.48 a 9.42,9.42 0 0 1 -0.88,3.75 c -0.85,1.72 -2.63,2.25 -3.39,-0.22 -0.4,-1.34 -0.43,-3.59 -0.13,-5.47 0.3,-1.9 1.14,-3.35 2.53,-3.22 1.38,0.13 2.02,1.9 1.87,5.16 z M 96.8,28.57 c -0.02,2.67 -0.44,5.01 -1.34,5.7 -1.29,0.96 -3,0.23 -2.65,-1.72 0.31,-1.72 1.8,-3.48 4,-5.64 z m -0.35,-10 a 10.56,10.56 0 0 1 -0.88,3.77 c -0.85,1.72 -2.64,2.25 -3.39,-0.22 -0.5,-1.69 -0.38,-3.87 -0.13,-5.25 0.33,-1.78 1.12,-3.44 2.53,-3.44 1.38,0 2.06,1.5 1.87,5.14 z M 83.04,18.55 a 9.54,9.54 0 0 1 -0.87,3.8 c -0.88,1.7 -2.63,2.24 -3.4,-0.23 -0.55,-1.77 -0.36,-4.2 -0.13,-5.5 0.34,-1.95 1.2,-3.32 2.53,-3.2 1.38,0.14 2.04,1.9 1.87,5.13 z m 61.45,1.81 c -0.33,0 -0.49,0.35 -0.61,0.93 -0.44,2.02 -0.9,2.48 -1.5,2.48 -0.66,0 -1.26,-1 -1.42,-3 -0.12,-1.58 -0.1,-4.48 0.06,-7.37 0.03,-0.59 -0.14,-1.17 -1.73,-1.75 -0.68,-0.25 -1.68,-0.62 -2.17,0.58 a 29.65,29.65 0 0 0 -2.08,7.14 c 0,0.06 -0.08,0.07 -0.1,-0.06 -0.07,-0.87 -0.26,-2.46 -0.28,-5.79 0,-0.65 -0.14,-1.2 -0.86,-1.65 -0.47,-0.3 -1.88,-0.81 -2.4,-0.2 -0.43,0.5 -0.94,1.87 -1.47,3.48 l -0.74,2.2 0.01,-4.88 c 0,-0.5 -0.34,-0.67 -0.45,-0.7 a 9.54,9.54 0 0 0 -1.8,-0.37 c -0.48,0 -0.6,0.27 -0.6,0.67 0,0.05 -0.08,4.65 -0.08,7.87 v 0.46 c -0.27,1.48 -1.14,3.49 -2.09,3.49 -0.95,0 -1.4,-0.84 -1.4,-4.68 0,-2.24 0.07,-3.21 0.1,-4.83 0.02,-0.94 0.06,-1.65 0.06,-1.81 -0.01,-0.5 -0.87,-0.75 -1.27,-0.85 -0.4,-0.09 -0.76,-0.13 -1.03,-0.11 -0.4,0.02 -0.67,0.27 -0.67,0.62 v 0.55 a 3.71,3.71 0 0 0 -1.83,-1.49 c -1.44,-0.43 -2.94,-0.05 -4.07,1.53 a 9.31,9.31 0 0 0 -1.66,4.73 c -0.16,1.5 -0.1,3.01 0.17,4.3 -0.33,1.44 -0.96,2.04 -1.64,2.04 -0.99,0 -1.7,-1.62 -1.62,-4.4 0.06,-1.84 0.42,-3.13 0.82,-4.99 0.17,-0.8 0.04,-1.2 -0.31,-1.6 -0.32,-0.37 -1,-0.56 -1.99,-0.33 -0.7,0.16 -1.7,0.34 -2.6,0.47 0,0 0.05,-0.21 0.1,-0.6 0.23,-2.03 -1.98,-1.87 -2.69,-1.22 -0.42,0.39 -0.7,0.84 -0.82,1.67 -0.17,1.3 0.9,1.91 0.9,1.91 a 22.22,22.22 0 0 1 -3.4,7.23 v -0.7 c -0.01,-3.36 0.03,-6 0.05,-6.95 0.02,-0.94 0.06,-1.63 0.06,-1.8 0,-0.36 -0.22,-0.5 -0.66,-0.67 -0.4,-0.16 -0.86,-0.26 -1.34,-0.3 -0.6,-0.05 -0.97,0.27 -0.96,0.65 v 0.52 A 3.7,3.7 0 0 0 94.64,11.29 C 93.2,10.86 91.7,11.24 90.57,12.82 a 10.1,10.1 0 0 0 -1.66,4.72 c -0.15,1.57 -0.13,2.9 0.09,4.04 -0.23,1.13 -0.89,2.3 -1.63,2.3 -0.95,0 -1.5,-0.83 -1.5,-4.67 0,-2.24 0.07,-3.21 0.1,-4.83 0.02,-0.94 0.06,-1.65 0.06,-1.81 0,-0.5 -0.87,-0.75 -1.27,-0.85 -0.42,-0.1 -0.79,-0.13 -1.06,-0.1 -0.37,0.02 -0.63,0.35 -0.63,0.6 v 0.56 a 3.7,3.7 0 0 0 -1.84,-1.49 c -1.44,-0.43 -2.93,-0.04 -4.07,1.53 -0.75,1.03 -1.35,2.17 -1.66,4.7 a 15.8,15.8 0 0 0 -0.12,2.04 c -0.3,1.81 -1.61,3.9 -2.68,3.9 -0.63,0 -1.23,-1.21 -1.23,-3.8 0,-3.45 0.22,-8.36 0.25,-8.83 l 1.62,-0.03 c 0.68,0 1.29,0.01 2.19,-0.04 0.45,-0.02 0.88,-1.64 0.42,-1.84 -0.21,-0.09 -1.7,-0.17 -2.3,-0.18 -0.5,-0.01 -1.88,-0.11 -1.88,-0.11 0,0 0.13,-3.26 0.16,-3.6 C 71.95,4.73 71.58,4.59 71.36,4.5 A 7.77,7.77 0 0 0 69.83,4.06 c -0.76,-0.15 -1.1,0 -1.17,0.64 -0.1,0.97 -0.15,3.82 -0.15,3.82 -0.56,0 -2.47,-0.11 -3.02,-0.11 -0.52,0 -1.08,2.22 -0.36,2.25 l 3.2,0.09 -0.03,6.53 v 0.47 c -0.53,2.73 -2.37,4.2 -2.37,4.2 0.4,-1.8 -0.42,-3.15 -1.87,-4.3 -0.54,-0.42 -1.6,-1.22 -2.79,-2.1 0,0 0.69,-0.68 1.3,-2.04 0.43,-0.96 0.45,-2.06 -0.61,-2.3 -1.75,-0.41 -3.2,0.87 -3.63,2.25 a 2.61,2.61 0 0 0 0.5,2.66 l 0.15,0.19 c -0.4,0.76 -0.94,1.78 -1.4,2.58 -1.27,2.2 -2.24,3.95 -2.97,3.95 -0.58,0 -0.57,-1.77 -0.57,-3.43 0,-1.43 0.1,-3.58 0.19,-5.8 0.03,-0.74 -0.34,-1.16 -0.96,-1.54 a 4.33,4.33 0 0 0 -1.64,-0.69 c -0.7,0 -2.7,0.1 -4.6,5.57 -0.23,0.69 -0.7,1.94 -0.7,1.94 l 0.04,-6.57 c 0,-0.16 -0.08,-0.3 -0.27,-0.4 a 4.68,4.68 0 0 0 -1.93,-0.54 c -0.36,0 -0.54,0.17 -0.54,0.5 l -0.07,10.3 c 0,0.78 0.02,1.69 0.1,2.09 0.08,0.4 0.2,0.72 0.36,0.91 0.15,0.2 0.33,0.34 0.62,0.4 0.28,0.06 1.78,0.25 1.86,-0.32 0.1,-0.69 0.1,-1.43 0.89,-4.2 1.22,-4.31 2.82,-6.42 3.58,-7.16 0.13,-0.14 0.28,-0.14 0.27,0.07 l -0.22,5.32 c -0.2,5.37 0.78,6.36 2.17,6.36 1.07,0 2.58,-1.06 4.2,-3.74 l 2.7,-4.5 1.58,1.46 c 1.28,1.2 1.7,2.36 1.42,3.45 -0.21,0.83 -1.02,1.7 -2.44,0.86 -0.42,-0.25 -0.6,-0.44 -1.01,-0.71 -0.23,-0.15 -0.57,-0.2 -0.78,-0.04 -0.53,0.4 -0.84,0.92 -1.01,1.55 -0.17,0.61 0.45,0.94 1.09,1.22 0.55,0.25 1.74,0.47 2.5,0.5 2.94,0.1 5.3,-1.42 6.94,-5.34 0.3,3.38 1.55,5.3 3.72,5.3 1.45,0 2.91,-1.88 3.55,-3.72 0.18,0.75 0.45,1.4 0.8,1.96 1.68,2.65 4.93,2.07 6.56,-0.18 0.5,-0.69 0.58,-0.94 0.58,-0.94 a 3.07,3.07 0 0 0 2.94,2.87 c 1.1,0 2.23,-0.52 3.03,-2.31 0.09,0.2 0.2,0.38 0.3,0.56 1.68,2.65 4.93,2.07 6.56,-0.18 l 0.2,-0.28 0.05,1.4 -1.5,1.37 c -2.52,2.3 -4.44,4.05 -4.58,6.09 -0.18,2.6 1.93,3.56 3.53,3.69 a 4.5,4.5 0 0 0 4.04,-2.11 c 0.78,-1.15 1.3,-3.63 1.26,-6.08 l -0.06,-3.56 a 28.55,28.55 0 0 0 5.42,-9.44 c 0,0 0.93,0.01 1.92,-0.05 0.32,-0.02 0.41,0.04 0.35,0.27 -0.07,0.28 -1.25,4.84 -0.17,7.88 0.74,2.08 2.4,2.75 3.4,2.75 1.15,0 2.26,-0.87 2.85,-2.17 l 0.23,0.42 c 1.68,2.65 4.92,2.07 6.56,-0.18 0.37,-0.5 0.58,-0.94 0.58,-0.94 0.36,2.2 2.07,2.88 3.05,2.88 1.02,0 2,-0.42 2.78,-2.28 0.03,0.82 0.08,1.49 0.16,1.7 0.05,0.13 0.34,0.3 0.56,0.37 0.93,0.34 1.88,0.18 2.24,0.11 0.24,-0.05 0.43,-0.25 0.46,-0.75 0.07,-1.33 0.03,-3.56 0.43,-5.21 0.67,-2.79 1.3,-3.87 1.6,-4.4 0.17,-0.3 0.36,-0.35 0.37,-0.03 0.01,0.64 0.04,2.52 0.3,5.05 0.2,1.86 0.46,2.96 0.65,3.3 0.57,1 1.27,1.05 1.83,1.05 0.36,0 1.12,-0.1 1.05,-0.73 -0.03,-0.31 0.02,-2.22 0.7,-4.96 0.43,-1.79 1.15,-3.4 1.41,-4 0.1,-0.21 0.15,-0.04 0.15,0 -0.06,1.22 -0.18,5.25 0.32,7.46 0.68,2.98 2.65,3.32 3.34,3.32 1.47,0 2.67,-1.12 3.07,-4.05 0.1,-0.7 -0.05,-1.25 -0.48,-1.25 z"
         fill="currentColor"
         fill-rule="evenodd"
         id="path1" /></g></g></svg>
