<svg viewBox="0 0 136 24" fill="none"
    xmlns="http://www.w3.org/2000/svg">
    <path fill-rule="evenodd" clip-rule="evenodd" d="M78.2496 7.05261C80.3864 7.05261 82.0257 8.1309 82.7073 9.11833V1.24289C82.707 1.19232 82.7167 1.14221 82.7358 1.09542C82.7549 1.04864 82.783 1.0061 82.8185 0.970264C82.8539 0.934424 82.8961 0.905984 82.9425 0.886579C82.9889 0.867174 83.0387 0.857178 83.089 0.857178H86.5668C86.6171 0.857178 86.6669 0.867174 86.7133 0.886579C86.7597 0.905984 86.8019 0.934424 86.8373 0.970264C86.8728 1.0061 86.9009 1.04864 86.92 1.09542C86.939 1.14221 86.9487 1.19232 86.9485 1.24289V22.4332C86.9485 22.535 86.9083 22.6327 86.8367 22.7047C86.7651 22.7767 86.6681 22.8172 86.5668 22.8172H83.2048C83.0729 22.8172 82.9463 22.7644 82.853 22.6706C82.7597 22.5767 82.7073 22.4494 82.7073 22.3166V21.0892C82.0274 22.0766 80.3864 23.1566 78.2496 23.1566C74.1327 23.1566 70.9752 19.4778 70.9752 15.0995C70.9752 10.7212 74.1327 7.05261 78.2496 7.05261ZM75.2472 15.0995C75.2472 17.5046 76.8251 19.2926 79.1476 19.2926C81.4719 19.2926 83.0481 17.5046 83.0481 15.0995C83.0481 12.6943 81.4702 10.9063 79.1476 10.9063C76.8251 10.9063 75.2472 12.6943 75.2472 15.0995ZM64.9907 16.5806V11.4755C64.9907 11.3736 65.0309 11.2759 65.1025 11.2039C65.174 11.1319 65.2711 11.0915 65.3724 11.0915H68.3509C68.4522 11.0915 68.5493 11.051 68.6208 10.979C68.6924 10.907 68.7326 10.8093 68.7326 10.7075V7.77605C68.7326 7.67421 68.6924 7.57653 68.6208 7.50451C68.5493 7.4325 68.4522 7.39203 68.3509 7.39203H65.3724C65.2711 7.39203 65.174 7.35159 65.1025 7.27958C65.0309 7.20756 64.9907 7.10988 64.9907 7.00804V3.48862C64.9902 3.38692 64.9498 3.2895 64.8784 3.21758C64.8069 3.14567 64.71 3.10508 64.609 3.10462H61.1311C61.0808 3.10462 61.031 3.1146 60.9846 3.13401C60.9382 3.15341 60.8961 3.18185 60.8606 3.21769C60.8251 3.25353 60.797 3.29606 60.778 3.34285C60.7589 3.38964 60.7492 3.43977 60.7494 3.49034C60.7494 7.16405 60.654 7.37834 58.1184 7.39034C57.9873 7.39079 57.8617 7.44323 57.7689 7.53632C57.676 7.62941 57.6235 7.7556 57.6226 7.88747V10.5943C57.6226 10.6598 57.6354 10.7245 57.6603 10.785C57.6853 10.8454 57.7218 10.9003 57.7679 10.9465C57.814 10.9927 57.8686 11.0292 57.9288 11.0541C57.9889 11.079 58.0534 11.0917 58.1184 11.0915H60.3677C60.4689 11.0915 60.566 11.1319 60.6376 11.2039C60.7092 11.2759 60.7494 11.3736 60.7494 11.4755V17.412C60.7494 21.1835 63.3804 22.9937 66.6623 22.9937C67.4714 23.0116 68.2794 22.9252 69.0666 22.7366C69.1491 22.7159 69.2222 22.668 69.2744 22.6006C69.3266 22.5332 69.3548 22.4501 69.3546 22.3646V19.4383C69.3544 19.3798 69.3409 19.3222 69.3151 19.2698C69.2894 19.2174 69.2521 19.1715 69.206 19.1358C69.16 19.1001 69.1065 19.0754 69.0496 19.0637C68.9926 19.0519 68.9338 19.0534 68.8775 19.0681C68.4654 19.1613 68.0439 19.2055 67.6216 19.2C65.7949 19.2 64.9907 18.4612 64.9907 16.5806ZM23.7744 15.0995C23.7744 10.536 27.2114 7.05261 31.9178 7.05261C35.975 7.05261 39.533 9.6429 39.5398 14.6469C39.5398 14.9435 39.5398 15.2812 39.5074 15.7355C39.501 15.8331 39.458 15.9247 39.3872 15.9918C39.3164 16.0589 39.223 16.0965 39.1257 16.0972H27.8998C28.1469 18.1629 29.9718 19.3029 32.0166 19.3029C33.7547 19.3029 35.0617 18.5692 35.7995 17.6521C35.8608 17.5781 35.9477 17.5304 36.0427 17.5186C36.1376 17.5069 36.2334 17.5319 36.3107 17.5886L38.8548 19.4743C38.8954 19.5042 38.9298 19.5418 38.9559 19.5851C38.982 19.6283 38.9993 19.6764 39.0069 19.7264C39.0145 19.7764 39.0122 19.8274 39.0002 19.8766C38.9881 19.9257 38.9665 19.9719 38.9366 20.0126C37.4797 21.9052 35.0651 23.1566 31.9792 23.1566C27.3664 23.1566 23.7744 19.9715 23.7744 15.0995ZM31.7968 10.5412C30.2138 10.5412 28.4502 11.3383 28.048 13.224H35.2951C34.9237 11.3983 33.3798 10.5412 31.7968 10.5412ZM51.6364 7.39204H55.726C55.7954 7.39169 55.8636 7.41039 55.9232 7.44609C55.9828 7.48179 56.0316 7.53317 56.0644 7.59469C56.0972 7.65621 56.1126 7.72556 56.1092 7.79527C56.1057 7.86498 56.0834 7.93242 56.0447 7.99034L51.3297 15.0326C51.2849 15.0969 51.2609 15.1735 51.2609 15.2521C51.2609 15.3306 51.2849 15.4072 51.3297 15.4715L56.1435 22.2C56.1846 22.2574 56.2092 22.3251 56.2145 22.3957C56.2198 22.4662 56.2056 22.5369 56.1736 22.5998C56.1415 22.6628 56.0927 22.7156 56.0327 22.7524C55.9727 22.7893 55.9037 22.8087 55.8334 22.8086H51.7438C51.6831 22.8085 51.6233 22.7938 51.5694 22.7658C51.5154 22.7378 51.4689 22.6972 51.4337 22.6475L48.3154 18.2452L45.1987 22.6475C45.1635 22.6972 45.117 22.7378 45.0631 22.7658C45.0091 22.7938 44.9493 22.8085 44.8886 22.8086H40.7666C40.6963 22.8087 40.6273 22.7893 40.5673 22.7524C40.5073 22.7156 40.4585 22.6628 40.4265 22.5998C40.3944 22.5369 40.3802 22.4662 40.3855 22.3957C40.3908 22.3251 40.4154 22.2574 40.4565 22.2L45.2771 15.4715C45.3212 15.4069 45.3448 15.3304 45.3448 15.2521C45.3448 15.1737 45.3212 15.0972 45.2771 15.0326L40.5605 7.99034C40.5218 7.93255 40.4995 7.86525 40.496 7.79569C40.4924 7.72613 40.5078 7.65691 40.5403 7.59544C40.5729 7.53398 40.6215 7.48257 40.6808 7.44674C40.7402 7.41091 40.8082 7.392 40.8774 7.39204H44.9329C44.9957 7.39204 45.0575 7.4077 45.1128 7.43762C45.1681 7.46753 45.2152 7.51077 45.2499 7.56347L48.2847 12.1098L51.3195 7.56347C51.3541 7.51077 51.4012 7.46753 51.4565 7.43762C51.5118 7.4077 51.5737 7.39204 51.6364 7.39204ZM133.382 7.2069C131.649 7.2069 130.07 8.3469 129.543 9.8589V7.77605C129.543 7.67421 129.503 7.57653 129.431 7.50451C129.36 7.4325 129.263 7.39204 129.162 7.39204H125.685C125.635 7.39181 125.585 7.40159 125.539 7.42079C125.492 7.43999 125.45 7.46823 125.414 7.50391C125.379 7.53959 125.351 7.58199 125.331 7.62869C125.312 7.67539 125.302 7.72548 125.302 7.77605V22.4229C125.302 22.5249 125.343 22.6226 125.415 22.6945C125.487 22.7665 125.584 22.8069 125.685 22.8069H129.162C129.263 22.8069 129.36 22.7664 129.431 22.6944C129.503 22.6224 129.543 22.5248 129.543 22.4229V15.4372C129.543 12.9086 130.876 11.3366 132.888 11.3366C133.375 11.3369 133.859 11.4021 134.328 11.5303C134.384 11.5456 134.443 11.5476 134.501 11.5362C134.558 11.5249 134.612 11.5004 134.658 11.4648C134.704 11.4292 134.742 11.3833 134.768 11.3308C134.793 11.2782 134.807 11.2204 134.807 11.1618V7.68862C134.806 7.5997 134.775 7.51367 134.719 7.445C134.663 7.37633 134.585 7.32917 134.499 7.31147C134.131 7.2359 133.757 7.20084 133.382 7.2069ZM89.0545 15.0995C89.0545 10.5978 92.7062 7.05261 97.1963 7.05261C101.685 7.05261 105.338 10.5892 105.338 15.0995C105.338 19.6098 101.686 23.1566 97.1963 23.1566C92.7062 23.1566 89.0545 19.6012 89.0545 15.0995ZM93.3265 15.0995C93.3265 17.4738 94.9674 19.2 97.1963 19.2C99.4251 19.2 101.034 17.4738 101.034 15.0995C101.034 12.7252 99.4251 10.9989 97.1963 10.9989C94.9674 10.9989 93.3265 12.7252 93.3265 15.0995ZM115.056 7.05261C110.568 7.05261 106.914 10.5978 106.914 15.0995C106.914 19.6012 110.568 23.1566 115.056 23.1566C119.544 23.1566 123.198 19.6098 123.198 15.0995C123.198 10.5892 119.544 7.05261 115.056 7.05261ZM115.056 19.2C112.827 19.2 111.186 17.4738 111.186 15.0995C111.186 12.7252 112.827 10.9989 115.056 10.9989C117.285 10.9989 118.895 12.7252 118.895 15.0995C118.895 17.4738 117.285 19.2 115.056 19.2ZM7.20977 10.1983C8.57297 8.18232 11.0046 6.86576 13.8554 6.86576C18.2653 6.86576 21.6699 10.0166 21.6699 14.0229V22.4229C21.6699 22.5247 21.6297 22.6224 21.5581 22.6944C21.4865 22.7664 21.3895 22.8069 21.2882 22.8069H17.7814C17.6802 22.8069 17.5831 22.7664 17.5115 22.6944C17.4399 22.6224 17.3997 22.5247 17.3997 22.4229V14.6075C17.3997 12.8709 16.0706 10.9012 13.8554 10.9012C11.5345 10.9012 10.311 12.8709 10.311 14.6075V22.4212C10.3106 22.5232 10.27 22.6209 10.1982 22.6928C10.1263 22.7648 10.029 22.8052 9.92765 22.8052H6.42081C6.37077 22.8054 6.32118 22.7957 6.27488 22.7766C6.22858 22.7575 6.18648 22.7294 6.15102 22.6938C6.11555 22.6583 6.08741 22.6161 6.06821 22.5696C6.04901 22.5231 6.03912 22.4732 6.03912 22.4229V14.8612C6.03798 14.7503 6.00043 14.643 5.93232 14.5559C5.8642 14.4687 5.76934 14.4067 5.66254 14.3795C2.57829 13.536 1.44173 11.1823 1.36334 7.81205C1.36243 7.7609 1.37169 7.71009 1.39057 7.66259C1.40945 7.61509 1.43758 7.57187 1.4733 7.53546C1.50901 7.49905 1.5516 7.47019 1.59855 7.45056C1.64551 7.43094 1.6959 7.42095 1.74674 7.42118H4.51404V7.44004H5.3507C5.44924 7.44123 5.54361 7.48023 5.61454 7.54904C5.68548 7.61786 5.72763 7.71131 5.7324 7.81033C5.77159 9.18862 6.04764 9.92919 6.69857 10.3235C6.78347 10.3726 6.88387 10.387 6.97902 10.3637C7.07417 10.3404 7.15678 10.2812 7.20977 10.1983Z" fill="#8ED500"/>
</svg>
