<?xml version="1.0" encoding="UTF-8" standalone="no"?>
<!-- Created with Inkscape (http://www.inkscape.org/) -->

<svg
   width="40.073997mm"
   height="40.099991mm"
   viewBox="0 0 40.073997 40.099991"
   version="1.1"
   id="svg3967"
   inkscape:version="1.2 (dc2aedaf03, 2022-05-15)"
   sodipodi:docname="party-icon.svg"
   xmlns:inkscape="http://www.inkscape.org/namespaces/inkscape"
   xmlns:sodipodi="http://sodipodi.sourceforge.net/DTD/sodipodi-0.dtd"
   xmlns="http://www.w3.org/2000/svg"
   xmlns:svg="http://www.w3.org/2000/svg">
  <sodipodi:namedview
     id="namedview3969"
     pagecolor="#ffffff"
     bordercolor="#000000"
     borderopacity="0.25"
     inkscape:showpageshadow="2"
     inkscape:pageopacity="0.0"
     inkscape:pagecheckerboard="0"
     inkscape:deskcolor="#d1d1d1"
     inkscape:document-units="mm"
     showgrid="false"
     inkscape:zoom="8.5247318"
     inkscape:cx="75.77951"
     inkscape:cy="75.77951"
     inkscape:window-width="2560"
     inkscape:window-height="1537"
     inkscape:window-x="-8"
     inkscape:window-y="-8"
     inkscape:window-maximized="1"
     inkscape:current-layer="layer1" />
  <defs
     id="defs3964" />
  <g
     inkscape:label="Layer 1"
     inkscape:groupmode="layer"
     id="layer1">
    <path
       style="fill:#040404;stroke:none;stroke-width:0.078326;image-rendering:auto"
       d="m 35.536804,0.02842931 c -1.00336,0.29488 -1.01754,1.65772999 -1.8015,2.19528999 -0.67783,0.4648 -1.53864,-0.0401 -2.27147,0.0566 -0.42906,0.0566 -0.86636,0.19687 -0.93341,0.68752 -0.16197,1.18646 1.42774,1.53985 1.55352,2.58477 0.11138,0.92562 -1.49226,2.3089 -0.46125,3.10908 0.96489,0.74896 2.00749,-0.8359 2.9742,-0.66138 0.98949,0.17866 1.58539,1.93817 2.74141,1.50777 1.0231,-0.38089 0.16041,-2.26691 0.4308,-3.01556 0.24429,-0.67662 1.23669,-1.01471 1.76233,-1.44033 0.30923,-0.25041 0.7029,-0.63221 0.47435,-1.06393 -0.51531,-0.97307 -2.11207,-0.50063 -2.80455,-1.26192 -0.47991,-0.52759 -0.48985,-1.46486 -0.75499,-2.10826999 -0.15524,-0.3768 -0.46329,-0.72075 -0.90944,-0.58964 m -23.10622,0.0737 c -1.01715,0.25662 -0.58713,1.79428999 0.39162,1.49698999 0.91314,-0.2774 0.55431,-1.73559999 -0.39162,-1.49698999 m 2.50643,1.41213999 c -0.59622,0.12008 -0.79705,0.8415 -0.45038,1.29673 0.34292,0.45026 0.75052,0.84154 1.04653,1.33155 1.15146,1.90584 1.42607,4.37076 0.48083,6.4227497 -0.24006,0.52111 -0.5193,1.03414 -0.87247,1.48819 -0.23584,0.30321 -0.58596,0.59763 -0.75718,0.93992 -0.25581,0.51162 0.1319,1.15241 0.70933,1.12704 0.84317,-0.0372 1.53652,-1.33805 1.89941,-1.98863 1.40148,-2.5121497 1.45435,-5.3623197 0.34157,-7.9892697 -0.32967,-0.77826 -0.8713,-1.58719 -1.45992,-2.19314 -0.23639,-0.24339 -0.57217,-0.50876 -0.93772,-0.43514 m 7.7543,1.09222 c -2.49517,0.43318 -2.79947,4.04047 -0.31332,4.77136 0.34276,0.10076 0.82314,0.0956 1.1749,0.037 3.03929,-0.50654 2.14888,-5.33099 -0.86158,-4.80835 m 12.76716,-0.0304 c 0.24845,1.20673 0.7445,1.72359 1.95816,1.95815 -0.1612,0.39284 -0.65176,0.5445 -0.93341,0.86158 -0.43527,0.49014 -0.3542,1.20533 -0.24149,1.80151 l -1.48819,-0.85289 -1.40988,0.38294 0.38295,-1.33156 -0.85291,-1.48819 c 0.51805,0 1.2002,0.12505 1.64486,-0.19364 0.4145,-0.29708 0.55463,-0.83011 0.93991,-1.1379 m -12.61051,1.58611 c 1.12124,-0.25237 1.51365,1.46555 0.39163,1.71229 -1.10965,0.24402 -1.5023,-1.46233 -0.39163,-1.71229 m 3.21137,7.1864197 c -2.5073,0 -4.7172,1.66756 -5.21739,4.15129 -0.17826,0.88509 -0.14169,1.69749 -0.10879,2.58476 0.0174,0.46652 0.16331,1.01981 0.70494,1.09007 0.38121,0.0495 0.75052,-0.15516 0.842,-0.54179 0.18501,-0.78169 -0.0921,-1.68643 0.037,-2.50642 0.29333,-1.86332 1.85132,-3.20347 3.74227,-3.21138 0.003,0.63161 0.20787,1.30146 0.45687,1.87982 0.52769,1.22542 2.36569,3.21992 3.57911,1.48821 1.27619,-1.82125 -0.73939,-4.40562 -2.54779,-4.77791 0.14851,-0.40165 0.17953,-0.84545 0.34378,-1.25321 0.38865,-0.9650597 1.06407,-1.8146597 1.84935,-2.4890397 0.49722,-0.42698 1.44066,-0.84329 1.13574,-1.66226 -0.41192,-1.10643 -1.78012,0.099 -2.2323,0.48736 -1.31134,1.12618 -2.57725,2.96409 -2.58476,4.7604997 m 1.72317,1.87983 c 0.70297,0.5139 1.09288,1.15829 1.09657,2.03648 -0.55776,-0.1001 -1.3899,-1.50292 -1.09657,-2.03648 m 7.12768,0.50473 c -0.39875,0.0693 -0.66953,0.39978 -0.93991,0.67016 -0.6028,0.60281 -2.15913,1.63898 -2.02998,2.58477 0.0817,0.59755 0.92026,1.16173 1.32505,1.56652 0.47237,0.47239 1.18695,1.5706 1.95815,1.39029 0.35489,-0.0829 0.61549,-0.43925 0.86159,-0.68535 l 1.48819,-1.4882 c 0.31817,-0.31887 0.62098,-0.60797 0.5396,-1.09657 -0.10465,-0.62801 -0.97384,-1.2175 -1.40118,-1.64485 -0.43205,-0.43204 -1.09391,-1.41958 -1.80151,-1.29677 m -23.26288,1.32724 c -1.05496,0.20514 -1.3844,0.98034 -1.8188896,1.84936 -0.559,1.11803 -1.08606,2.25039 -1.64485,3.36803 -1.99813,3.9962 -3.99969,8.00799 -5.87666,12.06223 -0.68825,1.48663 -1.62374996,2.91836 -2.17136996,4.46459 -0.57121,1.61282 0.7387,3.46304 2.50426996,3.2832 0.62927,-0.0642 1.16508,-0.41661 1.72317,-0.67886 1.237,-0.58125 2.44223,-1.22783 3.68133,-1.80149 3.8946896,-1.80307 7.7524996,-3.72175 11.5922796,-5.64168 1.17019,-0.5851 2.35504,-1.13832 3.52468,-1.72318 0.74371,-0.37181 1.36789,-0.60178 1.6927,-1.42725 0.62677,-1.59277 -0.47637,-3.68298 -1.2706,-5.01288 -1.80065,-3.01501 -4.43836,-5.49756 -7.39314,-7.36486 -1.29754,-0.81992 -2.9503,-1.68691 -4.54292,-1.37721 m 23.41954,3.02425 c -0.34057,-0.21609 -1.06666,-0.77504 -1.18798,-1.17489 -0.0925,-0.30516 0.8807,-1.26105 1.18798,-1.21844 0.28831,0.0401 1.2009,0.91736 1.10965,1.21844 -0.12572,0.4145 -0.80622,0.87146 -1.10965,1.17489 m -22.87125,-1.54913 c 1.0426,-0.12548 2.28595,0.69945 3.13304,1.20536 2.61751,1.56324 5.09873,3.93166 6.70559,6.53155 0.59411,0.96121 1.26865,1.99818 1.44473,3.13304 0.0845,0.54484 -0.0112,1.14216 -0.631,1.29889 -1.05615,0.26709 -2.35809,-0.60022 -3.21137,-1.11177 -2.69599,-1.61633 -5.24809,-3.98092 -6.87751,-6.68819 -0.55949,-0.92974 -1.18633,-1.89244 -1.39459,-2.9764 -0.13026,-0.67792 0.0786,-1.30186 0.83111,-1.39248 m -1.87982,3.03733 c 0.5265,0.87013 0.90529,1.81239 1.48818,2.66309 1.34143,1.95769 3.08324,3.73891 4.93456,5.21738 1.1839,0.94548 2.48819,1.52729 3.75965,2.30194 -0.44246,0.42483 -1.1741,0.60828 -1.72317,0.87897 -1.3299,0.65575 -2.66896,1.29537 -3.99464,1.95817 l -1.40987,0.70493 c -0.15359,0.0769 -0.36673,0.24077 -0.54608,0.23278 -0.20976,-0.01 -0.31747,-0.26177 -0.4265,-0.40683 -0.26473,-0.35215 -0.55282,-0.64478 -0.90724,-0.90725 -0.92872,-0.68793 -2.1191996,-0.78655 -3.2113796,-0.5135 -1.66987,0.41747 -3.03291,1.88656 -3.20484,3.61388 -0.0353,0.35451 0.0321,0.75499 0.12619,1.09657 0.0559,0.20295 0.22318,0.48178 0.15231,0.69624 -0.0735,0.22222 -0.48629,0.32255 -0.67667,0.41772 -0.65458,0.32733 -1.67205,1.11646 -2.42811,0.98346 -0.55401,-0.0976 -0.8215,-0.63515 -0.66794,-1.1575 0.33268,-1.13158 1.09633,-2.31016 1.62526,-3.36803 1.68966,-3.3793 3.2885,-6.80333 4.97808,-10.1824 0.4807,-0.96146 0.9292,-1.93678 1.40988,-2.89807 0.21383,-0.42766 0.39382,-0.98942 0.7223296,-1.33155 m 21.30471,2.30193 c -1.75826,0.28895 -3.33975,0.65293 -4.77789,1.8015 -0.29498,0.23553 -0.68684,0.49111 -0.86597,0.83112 -0.23044,0.43761 -0.0603,1.07628 0.47434,1.1662 0.78389,0.1319 1.56362,-0.91642 2.19313,-1.29238 1.15163,-0.68778 2.64664,-1.09806 3.99464,-0.96388 1.28321,0.12775 2.45733,0.55134 3.52468,1.2728 0.52258,0.35325 1.08646,1.17254 1.8015,0.96819 0.44951,-0.12838 0.59692,-0.67251 0.43298,-1.0726 -0.19378,-0.47294 -0.81365,-0.85556 -1.21625,-1.14443 -1.4784,-1.06093 -3.71564,-1.86988 -5.56116,-1.56652 m -21.14806,2.66309 c -0.5740596,0.0996 -1.0803496,0.31502 -1.4817096,0.75279 -1.49198,1.62762 -0.0402,4.47031 2.1866496,4.0425 0.99677,-0.19151 1.80846,-0.91157 2.006,-1.92769 0.30578,-1.57255 -1.09516,-3.14817 -2.71094,-2.8676 m 0.15665,1.55564 c 1.06249,-0.21148 1.4412,1.43862 0.39164,1.68401 -1.1225796,0.26247 -1.5272096,-1.45796 -0.39164,-1.68401 m 0.70494,8.20466 -3.1330596,1.50559 -1.40987,0.60922 c -0.25824,-0.94555 -0.13825,-1.94076 0.63314,-2.63262 1.11933,-1.00398 3.2264596,-1.01652 3.9097896,0.51781 z"
       id="path21065" />
  </g>
</svg>
