<svg width="146" height="36" viewBox="0 0 146 36" fill="none" xmlns="http://www.w3.org/2000/svg">
	<path d="M6.23501 21.3338L6.22294 35.3417L0 35.3518V0.365234L8.88402 0.373286C14.1951 0.377312 15.3213 3.01121 15.3173 7.28867L15.3113 14.2926C15.3072 18.5701 13.5661 21.3419 9.19501 21.3378L6.23401 21.3348L6.23501 21.3338ZM6.24005 15.6463H7.41559C8.82564 15.6483 9.01485 14.7556 9.01586 13.6747L9.02089 7.84625C9.02089 6.6244 8.8347 5.77797 7.42465 5.77697H6.24911L6.24105 15.6463H6.24005Z" fill="white"/>
	<path d="M30.5426 0.389977L30.5376 6.5475L23.431 6.54146L23.425 14.1563L28.7834 14.1604L28.7783 20.4588L23.4199 20.4547L23.4129 29.057L30.5577 29.063L30.5527 35.3614L17.1567 35.3503L17.1859 0.378906L30.5447 0.389977H30.5426Z" fill="white"/>
	<path d="M45.7787 0.401696L45.7737 6.55921L38.655 6.55318L38.649 14.168L44.0074 14.1731L44.0023 20.4715L38.6439 20.4665L38.6369 29.0687L45.7817 29.0747L45.7767 35.3731L32.3807 35.3621L32.4099 0.390625L45.7807 0.401696H45.7787Z" fill="white"/>
	<path d="M53.8529 35.3798L47.6008 35.3748L47.63 0.40332L57.5013 0.411372C61.3087 0.414391 63.2341 2.53097 63.2311 6.24481L63.226 11.8387C63.224 14.6588 61.6248 16.0678 60.4492 16.5369C61.4829 16.9133 63.1274 18.0435 63.1254 20.6754L63.1153 32.5677C63.1143 34.0714 63.3951 34.7296 63.6306 35.1533V35.3888L57.3785 35.3838C57.0967 35.0074 56.8159 34.2556 56.8169 32.7036L56.825 22.5042C56.826 20.9059 56.4506 20.4359 55.1814 20.4349H53.865L53.8529 35.3808V35.3798ZM53.87 14.1465H55.0918C56.3137 14.1485 56.831 13.6785 56.833 12.034L56.837 7.79073C56.8381 6.28708 56.5562 5.81606 55.2871 5.81505H53.877L53.87 14.1465V14.1465Z" fill="white"/>
	<path d="M73.6719 0.00201784C78.5602 0.00604368 80.392 2.26353 80.388 6.87009L80.3839 11.5703L74.3673 11.5652L74.3714 7.19317C74.3714 6.06493 74.1379 5.3594 73.0096 5.35839C71.9287 5.35839 71.6459 6.06191 71.6449 7.23745V8.03658C71.6429 9.68114 72.0183 10.8104 73.5682 12.5505L77.1371 16.5492C80.2833 20.0769 80.9395 22.5688 80.9375 25.5298V27.1744C80.9315 32.3919 78.4848 35.8209 73.3146 35.8169H72.0927C67.3453 35.8118 64.9499 33.2715 64.9539 28.5714L64.959 22.2729L71.1165 22.278L71.1114 27.8719C71.1104 29.2819 71.5805 29.9875 72.7077 29.9885C73.7886 29.9885 74.2596 29.144 74.2607 27.4512V26.793C74.2627 24.3483 74.0765 23.3609 72.2447 21.339L68.6285 17.3403C66.0459 14.5182 65.2961 11.7444 65.2991 8.45426V6.95061C65.3042 2.48495 68.0327 -0.00402096 72.4037 4.87613e-06H73.6729L73.6719 0.00201784Z" fill="white"/>
	<path d="M89.0182 21.3338L89.0062 35.3417L82.754 35.3367L82.7832 0.365234L91.6672 0.37228C96.9793 0.376305 98.1045 3.01021 98.1015 7.28766L98.0955 14.2916C98.0915 18.5691 96.3503 21.3408 91.9792 21.3368L89.0182 21.3348V21.3338ZM89.0233 15.6463H90.1978C91.6078 15.6483 91.7971 14.7556 91.7981 13.6746L91.8031 7.84625C91.8031 6.6244 91.6169 5.77797 90.2069 5.77697H89.0323L89.0243 15.6473L89.0233 15.6463Z" fill="white"/>
	<path d="M107.227 29.4816L103.467 29.4786L102.897 35.3543L97.3505 35.3492L101.798 0.381836L109.225 0.387875L113.943 35.3633L107.879 35.3583L107.226 29.4816H107.227ZM104.083 23.463L106.621 23.465L105.315 10.1968L104.083 23.463Z" fill="white"/>
	<path d="M124.405 20.5225L130.61 20.5275L130.603 27.921C130.6 32.1048 128.904 36.0049 123.358 35.9998H122.088C116.072 35.9938 114.712 32.0917 114.715 27.7197L114.731 7.97799C114.734 3.74784 116.571 0.0360165 122.118 0.0400423H123.387C129.356 0.0460811 130.622 3.75991 130.619 7.75556L130.614 14.1657L124.409 14.1607L124.414 7.98604C124.414 6.66959 123.993 5.96406 122.818 5.96305C121.644 5.96305 121.266 6.61927 121.265 7.98302L121.249 27.7247C121.248 29.0885 121.718 29.8403 122.845 29.8413C123.974 29.8413 124.397 28.9969 124.398 27.7277L124.404 20.5225H124.405Z" fill="white"/>
	<path d="M145.838 0.401696L145.833 6.55921L138.714 6.55318L138.708 14.168L144.067 14.1731L144.062 20.4715L138.703 20.4665L138.696 29.0687L145.841 29.0747L145.836 35.3731L132.44 35.3621L132.469 0.390625L145.84 0.401696H145.838Z" fill="white"/>
</svg>
