<?xml version="1.0" encoding="UTF-8" standalone="no"?>
<!-- Created with Inkscape (http://www.inkscape.org/) -->

<svg
   width="40.08894mm"
   height="40.140877mm"
   viewBox="0 0 40.08894 40.140877"
   version="1.1"
   id="svg10124"
   inkscape:version="1.2 (dc2aedaf03, 2022-05-15)"
   sodipodi:docname="photo-icon.svg"
   xmlns:inkscape="http://www.inkscape.org/namespaces/inkscape"
   xmlns:sodipodi="http://sodipodi.sourceforge.net/DTD/sodipodi-0.dtd"
   xmlns="http://www.w3.org/2000/svg"
   xmlns:svg="http://www.w3.org/2000/svg">
  <sodipodi:namedview
     id="namedview10126"
     pagecolor="#ffffff"
     bordercolor="#000000"
     borderopacity="0.25"
     inkscape:showpageshadow="2"
     inkscape:pageopacity="0.0"
     inkscape:pagecheckerboard="0"
     inkscape:deskcolor="#d1d1d1"
     inkscape:document-units="mm"
     showgrid="false"
     inkscape:zoom="0.2102413"
     inkscape:cx="380.51515"
     inkscape:cy="561.25984"
     inkscape:window-width="2560"
     inkscape:window-height="1537"
     inkscape:window-x="-8"
     inkscape:window-y="-8"
     inkscape:window-maximized="1"
     inkscape:current-layer="layer1" />
  <defs
     id="defs10121" />
  <g
     inkscape:label="Layer 1"
     inkscape:groupmode="layer"
     id="layer1">
    <path
       style="fill:#050505;stroke:none;stroke-width:0.086726"
       d="m 22.441632,0.02971276 c -0.52068,0.17516 -0.47081,0.65033 -0.55411,1.08394004 -0.10453,0.54447 -0.33987,1.04724 -0.69367,1.47418 -0.40791,0.49236 -0.99972,0.8138 -1.61389,0.96592 -0.30543,0.0756 -0.68482,0.0218 -0.95149,0.20476 -0.41461,0.2846 -0.45149,0.92101 0,1.19716 0.28493,0.1743 0.64086,0.11331 0.95149,0.18307 0.48032,0.10782 0.92632,0.36191 1.3007,0.67687 0.49451,0.41589 0.81209,1.00706 0.96589,1.62835 0.0671,0.2758 0.0237,0.61458 0.15656,0.86716 0.16463,0.31622 0.53638,0.4518 0.87211,0.34205 0.71614,-0.23419 0.5983,-1.75228 1.06224,-2.33653 0.45164,-0.5689 1.01238,-0.96254 1.71259,-1.15381 0.35946,-0.0982 0.8012,-0.0143 1.10563,-0.27701 0.33777,-0.29125 0.28814,-0.87634 -0.0661,-1.12731 -0.22978,-0.16228 -0.5163,-0.11352 -0.778,-0.16381 -0.5311,-0.10204 -1.05831,-0.33039 -1.47418,-0.67927 -0.48295,-0.40515 -0.86579,-1.01086 -1.0044,-1.62834 -0.0685,-0.31066004 -0.01,-0.66652004 -0.18314,-0.95148004 -0.15485,-0.25321 -0.51935,-0.40268 -0.80686,-0.3059 m 13.00752,0.78043 c -0.47416,0.17778 -0.39048,0.68306004 -0.46749,1.08396004 -0.0922,0.47763 -0.28037,0.92505 -0.59253,1.30075 -0.45378,0.546 -1.01642,0.93435 -1.71498,1.09118 -0.31863,0.0715 -0.65636,0.0163 -0.94679,0.20234 -0.43028,0.27587 -0.41424,0.89099 -0.006,1.1779 0.27429,0.19206 0.71738,0.16089 1.03814,0.23365 0.44941,0.10194 0.86066,0.33102 1.2141,0.62388 0.50429,0.41784 0.86142,1.06367 1.00448,1.7006 0.0589,0.25897 0.0137,0.53496 0.13249,0.78045 0.15346,0.31374 0.51236,0.5131 0.8575,0.39023 0.69399,-0.24706 0.60352,-1.62812 0.99226,-2.21128 0.73026,-1.09513 1.56421,-1.03166 2.64967,-1.43082 0.33822,-0.12429 0.5443,-0.47128 0.45786,-0.8238 -0.15393,-0.62747 -0.74419,-0.53224 -1.23813,-0.64315 -0.42853,-0.0962 -0.88214,-0.28915 -1.21402,-0.5781 -0.52361,-0.45571 -0.88378,-0.96874 -1.06719,-1.64039 -0.0932,-0.34012 -0.024,-0.72331 -0.22635,-1.03338 -0.17679,-0.27304004 -0.58025,-0.33436004 -0.87434,-0.22402004 m -12.74735,2.29798004 1.12734,1.21403 v 0.0867 l -1.12734,1.12733 h -0.0867 l -1.21402,-1.21405 1.3008,-1.21402 m 13.09411,0.78045 1.12736,1.30074 -1.12736,1.12732 h -0.0866 l -1.12734,-1.12732 1.21403,-1.30074 m -6.85061,1.25739 c -0.48907,0.18093 -0.46481,0.74554 -0.5395,1.17067 -0.0751,0.43008 -0.27189,0.86875 -0.53722,1.21402 -0.3899,0.50737 -0.98182,0.93964 -1.61144,1.0912 -0.34317,0.0826 -0.82766,0.0359 -1.12017,0.25292 -0.35913,0.26657 -0.36063,0.87627 -0.006,1.1417902 0.28716,0.21419 0.70632,0.1632 1.03814,0.23848 0.4778,0.1083 0.93019,0.35926 1.30082,0.67681 0.45824,0.39274 0.78453,0.95432 0.9177,1.54165 0.0686,0.30594 0.0289,0.6705 0.18557,0.95388 0.17293,0.31478 0.55846,0.42734 0.89112,0.30351 0.53524,-0.19927 0.44666,-0.8878 0.55653,-1.34411 0.0888,-0.36871 0.29031,-0.74134 0.52032,-1.04059 0.74615,-0.97088 1.5785,-0.82866 2.56535,-1.25496 0.35083,-0.1516702 0.5255,-0.5472702 0.39018,-0.9129602 -0.18688,-0.50511 -0.81897,-0.45335 -1.25738,-0.53956 -0.42637,-0.0838 -0.88696,-0.31028 -1.21403,-0.59497 -0.46815,-0.40752 -0.85701,-0.9412 -1.00444,-1.55368 -0.0779,-0.32542 -0.0448,-0.74061 -0.20467,-1.03819 -0.16343,-0.3024 -0.55206,-0.4243 -0.87211,-0.30591 m 0.26019,3.07843 1.214,1.30075 -1.12719,1.1273102 h -0.17351 l -1.1274,-1.1273102 v -0.17342 l 1.21409,-1.12732 M 10.473692,16.722603 H 5.1840523 c -1.75887,0 -3.53747,0.0445 -4.56218005,1.73433 -0.86701,1.42927 -0.55422,3.42713 -0.55422,5.02957 v 9.5388 c 0,1.50176 -0.27832,3.34813 0.29407,4.76941 0.61392,1.52422 2.14546005,2.21162 3.69497005,2.25463 7.4156797,0.20595 14.8672897,0 22.2861097,0 h 5.0296 c 1.30513,0 2.64048,0.0198 3.72871,-0.81661 1.53744,-1.18142 1.38757,-3.09032 1.38757,-4.81996 v -11.53326 c 0,-1.74326 0.26636,-3.73054 -1.0743,-5.08253 -1.06352,-1.07235 -2.45954,-1.07434 -3.86857,-1.07434 h -5.46316 c -0.0596,-1.17068 -0.55153,-2.41844 -0.83573,-3.55538 -0.16698,-0.66737 -0.32951,-1.33508 -0.89853,-1.78488 -0.82742,-0.65402 -1.96227,-0.46975 -2.94842,-0.46975 h -6.41702 c -0.97974,0 -2.06482,-0.16293 -2.85928,0.53956 -0.5092,0.45032 -0.65684,1.08568 -0.81404,1.71507 -0.28438,1.13694 -0.77694,2.3847 -0.83594,3.55538 m 2.86166,-4.30695 c 0.6687,-0.22711 1.72124,-0.029 2.42802,-0.029 h 5.37648 c 0.61148,0 1.98451,-0.25875 2.4015,0.26259 0.26424,0.3303 0.30446,0.89733 0.4047,1.2983 l 0.67451,2.68823 c 0.14357,0.57441 0.19192,1.31834 0.85512,1.51995 0.58487,0.17778 1.38553,0.041 1.99448,0.041 h 4.33573 c 1.13195,0 2.2497,-0.0731 2.91468,1.0406 0.67485,1.12975 0.29398,3.14443 0.29398,4.42254 v 10.4927 c 0,1.47348 0.38271,3.52866 -1.30091,4.24191 -0.73595,0.31175 -1.64741,0.18063 -2.42801,0.18063 h -4.68262 -16.47609 -5.0296797 c -0.87771,0 -1.83065,0.12851 -2.60159,-0.37575 -1.3617,-0.89092 -0.95384,-2.90968 -0.95384,-4.30694 v -10.49269 c 0,-1.28419 -0.37376,-3.23981 0.4073,-4.33582 0.63157,-0.88651 1.56727,-0.86717 2.54122,-0.86717 h 4.76939 c 0.61836,0 1.6482797,0.1991 2.1607497,-0.21436 0.33094,-0.26717 0.37518,-0.7861 0.47196,-1.1731 l 0.76124,-3.03508 c 0.11398,-0.45596 0.15847,-1.1809 0.68168,-1.35859 m -9.8857697,7.29867 c -0.40824,0.15201 -0.43273,0.53616 -0.43345,0.91052 v 2.68821 c 0,0.34175 -0.0868,0.82779 0.13006,1.12011 0.25178,0.3395 0.71383,0.26735 1.08404,0.26735 h 2.42792 c 0.30665,0 0.76086,0.0829 1.04061,-0.0625 0.38906,-0.20248 0.34697,-0.6051 0.34697,-0.97799 v -2.68822 c 0,-0.35561 0.0933,-0.84157 -0.18312,-1.11768 -0.27615,-0.27611 -0.76199,-0.18306 -1.11772,-0.18306 h -2.25456 c -0.31914,0 -0.73711,-0.0698 -1.04075,0.0433 m 13.7880197,-0.01 c -1.4275,0.23795 -2.80135,0.65471 -3.98893,1.5151 -1.0368,0.75114 -1.8821,1.69158 -2.54128,2.78699 -2.1000397,3.48938 -1.2307997,8.23217 1.7608,10.91907 1.93946,1.74187 4.65403,2.43413 7.19747,2.06915 1.17026,-0.16797 2.29071,-0.63858 3.2952,-1.24777 0.80568,-0.48864 1.50952,-1.11985 2.09802,-1.85477 3.96358,-4.94857 1.38281,-12.77073 -4.95966,-14.04807 -0.90676,-0.18263 -1.94039,-0.29328 -2.86162,-0.1397 m -10.5794597,1.35374 v 2.25462 h -1.5609 l -0.57804,-0.0624 -0.11572,-0.4577 0.11572,-1.67172 0.57804,-0.0624 h 1.5609 m 11.3599297,0.0192 c 0.52514,-0.073 1.12731,0.0674 1.64757,0.14933 3.1883,0.50191 5.5766,3.36476 5.88957,6.50859 0.38579,3.87691 -2.64536,7.50062 -6.49662,7.88399 -5.94921,0.59219 -10.0702797,-5.99453 -6.9903,-11.0925 1.34123,-2.21977 3.51044,-3.1106 5.94978,-3.44941 m -0.0866,1.48867 c -1.8439,0.30307 -3.53915,0.96107 -4.56232,2.65447 -2.48441,4.11227 0.76934,9.59587 5.68955,8.91254 2.64046,-0.36672 4.75654,-2.51295 5.0224,-5.18374 0.32457,-3.26123 -2.63997,-6.96012 -6.14963,-6.38327 m -0.17346,1.45969 c 3.30602,-0.46679 5.7668,3.0604 4.56224,6.0509 -0.62487,1.55144 -2.09469,2.44661 -3.69507,2.66897 -2.82945,0.39291 -5.05454,-2.45721 -4.6634,-5.09703 0.28459,-1.92103 1.91416,-3.35706 3.79623,-3.62284"
       id="path21499"
       sodipodi:nodetypes="cccsccccscccccssccsccsccccsccccccccccccccccccccccccccccsccccccccccccccccccccccccssssscsscsssscscssccccssscccsscsscsccsssssssscccccssssssssssccscscccscccccccccccccccccccccccsc" />
  </g>
</svg>
