<?xml version="1.0" encoding="UTF-8" standalone="no"?>

<svg width="3.753in" height="3.7645099in" 
viewBox="0 0 270.21584 271.045" xml:space="preserve" color-interpolation-filters="sRGB" 
class="st2" version="1.1" id="svg1054" sodipodi:docname="restroom sign.svg" inkscape:version="1.2 (dc2aedaf03, 2022-05-15)"
   xmlns:inkscape="http://www.inkscape.org/namespaces/inkscape"
   xmlns:sodipodi="http://sodipodi.sourceforge.net/DTD/sodipodi-0.dtd"
   xmlns="http://www.w3.org/2000/svg"
   xmlns:svg="http://www.w3.org/2000/svg"
   xmlns:v="http://schemas.microsoft.com/visio/2003/SVGExtensions/">
   <defs id="defs1058" />
   <sodipodi:namedview id="namedview1056" pagecolor="#ffffff" bordercolor="#666666" borderopacity="1.0" inkscape:pageshadow="2" inkscape:pageopacity="0.0" inkscape:pagecheckerboard="0" inkscape:document-units="in" showgrid="false" inkscape:zoom="6.4749464" inkscape:cx="124.55702" inkscape:cy="170.81222" inkscape:window-width="4480" inkscape:window-height="2690" inkscape:window-x="-12" inkscape:window-y="-12" inkscape:window-maximized="1" inkscape:current-layer="svg1054" inkscape:showpageshadow="2" inkscape:deskcolor="#d1d1d1" />
   <v:documentProperties v:langID="1033" v:viewMarkup="false" />

   <style type="text/css" id="style1001">
      <![CDATA[
		.st1 {fill:#FFFFFF;stroke:none;stroke-linecap:butt;stroke-width:0.1}
		.st2 {fill:none;fill-rule:evenodd;font-size:12px;overflow:visible;stroke-linecap:square;stroke-miterlimit:3}
      .st3 {fill:#FFFFFF;fill-opacity:1;stroke:#FFFFFF;stroke-width:3.5;stroke-miterlimit:3;stroke-dasharray:none;stroke-opacity:1}
      .st4 {fill:none;stroke:darkblue;stroke-width:1.9;stroke-linecap:butt;stroke-linejoin:miter;stroke-miterlimit:3;stroke-dasharray:none;stroke-opacity:1}
	]]>
   </style>

   <path d="M 35.43,0.945 C 18.78,3.555 5.5,15.705 0.96,32.485 c -0.81,2.97 -0.86,6.75 -0.86,103.23 0,96.48 0.05,100.26 0.86,103.23 2.16,8.01 6.07,14.58 12.06,20.34 5.76,5.54 12.64,9.18 20.34,10.85 3.42,0.76 9.9,0.81 101.74,0.81 91.08,0 98.37,-0.05 101.57,-0.77 13.32,-2.97 24.21,-11.74 29.88,-24.03 0.85,-1.84 2.02,-4.99 2.56,-7.06 l 0.99,-3.69 v -99.68 -99.67 l -0.99,-3.69 c -1.12,-4.23 -3.82,-10.26 -6.03,-13.5 -1.98,-2.88 -6.34,-7.43 -9.49,-9.86 -5.67,-4.41 -12.92,-7.33 -20.39,-8.23 -6.43,-0.77 -192.69,-0.59 -197.77,0.18 z m 203.17,9.76 c 10.85,3.69 19.08,12.51 22.14,23.76 0.77,2.75 0.81,8.28 0.81,101.25 0,92.97 -0.04,98.51 -0.81,101.25 -3.06,11.25 -11.29,20.07 -22.23,23.76 l -3.51,1.22 -98.55,0.13 c -71.82,0.09 -99.22,0 -101.02,-0.36 -10.8,-2.2 -20.25,-9.99 -24.44,-20.07 -2.47,-5.98 -2.34,0.23 -2.34,-105.93 0,-82.03 0.09,-98.73 0.63,-100.8 2.39,-9.58 9.05,-17.95 17.73,-22.23 7.38,-3.64 -2.07,-3.37 108.77,-3.28 L 235,9.495 Z" class="st1" id="path1009" />

   <!-- WC -->
   <path d="m 92.265,219.96 c 0.31,1.08 2.74,9.76 5.49,19.35 l 4.9,17.46 h 3.74 c 2.56,0 3.78,-0.18 3.91,-0.54 0.14,-0.32 1.53,-6.98 3.11,-14.76 1.84,-9 2.97,-13.77 3.15,-13.05 0.13,0.63 1.26,6.16 2.52,12.37 1.26,6.17 2.52,12.33 2.79,13.59 l 0.49,2.39 h 3.92 3.91 l 0.72,-2.61 c 6.71,-23.99 9.81,-35.06 9.99,-35.55 0.14,-0.41 -0.81,-0.54 -3.96,-0.54 h -4.18 l -3.11,13.72 c -1.71,7.52 -3.19,13.59 -3.28,13.5 -0.18,-0.13 -2.79,-12.73 -4.91,-23.31 l -0.76,-3.91 h -4.32 -4.37 l -2.38,12.24 c -3.06,15.84 -2.97,15.57 -3.29,14.76 -0.13,-0.36 -0.54,-2.39 -0.94,-4.5 -0.41,-2.12 -1.71,-7.97 -2.88,-13.05 l -2.16,-9.23 -4.32,-0.13 -4.37,-0.14 z" class="st1" id="path1047" />
   <path d="m 156.88,217.84 c -7.2,2.03 -11.88,8.69 -12.46,17.73 -0.5,7.29 1.48,13.82 5.26,17.6 4.82,4.81 13.82,6.16 20.12,3.01 3.78,-1.93 7.38,-6.7 8.41,-11.25 l 0.32,-1.26 -4.14,0.14 -4.14,0.13 -0.45,1.35 c -1.53,4.73 -6.71,6.89 -11.34,4.77 -3.92,-1.75 -5.63,-5.58 -5.63,-12.42 0,-5.08 0.9,-8.28 2.97,-10.53 2.07,-2.29 3.6,-2.88 7.07,-2.65 3.51,0.22 5.35,1.39 6.75,4.36 l 0.99,2.07 h 3.82 3.83 l -0.05,-1.44 c -0.18,-3.96 -4.54,-9.22 -8.95,-10.89 -3.51,-1.3 -9.05,-1.62 -12.38,-0.72 z" class="st1" id="path1042" />

   <!-- man body -->
   <path d="m 165.278,58.86 c -11.24676,3.332022 -12.95987,5.451714 -15.3,15.459105 L 149.618,85.18 c -0.5,19.49 -0.05,44.69 0.85,46.4 0.95,1.84 2.52,2.74 5.04,2.79 2.88,0.13 4.37,-0.95 5.85,-4.1 l 0.87251,-4.52913 0.47749,-19.99087 0.14,-21.92 h 1.71 1.71 l 0.27,4.82 c 0.18,2.61 0.31,30.69 0.31,62.32 0,62.1 -0.10104,57.66648 2.39792,61.05239 2.84478,2.41865 7.64208,3.07761 11.10208,1.31761 4.23,-2.16 4.5,-4.9 4.5,-46.48 v -32.63 h 1.76 1.75 l 0.14,37.22 c 0.18,36.58 0.18,37.3 1.12,39.06 2.16,4.18 9.28135,5.04313 13.33135,1.62313 2.71282,-3.45801 2.59865,2.42687 2.73865,-65.75313 0.09,-34.15 0.22,-62.719156 0.36,-62.809156 1.61304,0.25266 4.08143,-0.02703 4.08143,-0.02703 L 210.498,105.34 c 0.24127,14.26796 0.18,20.92836 0.5,22.04836 0.27,0.95 1.26,4.19164 2.2,5.22164 1.67,1.76 1.89,1.85 4.19,1.8 3.19,-0.09 4.27,-0.72 5.4,-3.24 0.9,-2.07 0.9,-2.74 0.9,-28.66 0,-18 -0.18,-27.41 -0.54,-29.25 -1.49,-7.88 -6.44,-12.6 -15.03,-14.36 -4.5,-0.94 -37.85,-0.99 -42.84,-0.04 z" class="st1" id="path1021" sodipodi:nodetypes="ccccccccccccsccscccccccccsccccsccc" />
   <ellipse class="st3" id="path4189-5" cx="184.75053" cy="38.919281" rx="13.915199" ry="13.451873" />
   <ellipse class="st3" id="path4189" cx="81.371201" cy="39.788017" rx="13.915199" ry="13.451873" />
   <path class="st4" d="m 166.33338,117.80033 39.7301,0.23166 0.57916,33.12773 -41.12008,0.34749 z" id="path1302" sodipodi:nodetypes="ccccc" />

   <!-- woman body -->
   <path d="m 66.66,60.745 c -3.02,0.54 -7.52,2.75 -9.36,4.64 -3.65,3.78 -5.54,8.32 -9.86,23.94 -1.03,3.69 -2.74,9.63 -3.87,13.18 -3.96,12.83 -5.04,18.59 -4,21.06 1.44,3.51 7.47,4.19 10.17,1.17 1.35,-1.48 2.38,-4.68 6.93,-20.79 5.13,-18.31 5.89,-20.52 7.42,-21.6 0.77,-0.54 1.35,-0.72 1.35,-0.45 0,0.54 4.869795,19.41928 1.795652,36.38826 -1.433727,10.89785 -1.737632,12.61895 -1.78665,24.47944 L 65.67,153.675 l 0.22,28.21 c 0.23,27.59 0.23,28.22 1.17,29.43 1.71,2.34 3.2,3.11 5.94,3.11 1.98,0 2.93,-0.23 4.1,-1.08 2.92,-2.12 2.92,-5.58243 2.83,-31.77243 -0.02661,-14.34051 0.181186,-24.85058 0.218338,-39.18945 L 84.3,142.3252 84.43,181.435 c 0.14,27.36 0.18,28.08 1.08,29.61 1.35,2.3 3.51,3.6 5.99,3.6 2.7,0 4.68,-1.21 5.98,-3.69 L 98.288338,208.04043 98.74,181.345 l 0.23,-27.67 -0.226496,-10.77064 c 0.707701,-11.17737 0.90475,-12.66318 -0.322506,-23.996 C 94.475141,100.92086 96.27,80.595 96.67,80.235 c 0.05,-0.05 0.77,0.58 1.58,1.39 1.62,1.71 2.34,3.65 6.84,18.5 4.5,14.98 7.15,22.68 8.32,24.07 0.63,0.72 1.85,1.53 2.7,1.8 1.94,0.63 5.44918,0.0625 6.25918,-0.74749 0.36,-0.36 1.30082,-1.68251 1.26082,-4.78251 -0.05,-4.82 -0.41,-6.44 -3.96,-17.64 -0.9,-2.97 -2.66,-8.87 -3.87,-13.05 -3.29,-11.34 -4.37,-14.45 -6.57,-18.77 -3.15,-6.16 -6.98,-9 -13.82,-10.3 -2.65,-0.5 -25.69,-0.45 -28.75,0.04 z" class="st1" id="path1034" sodipodi:nodetypes="ccccccccscccccsccccccscccccccccccscccccc" />
   <path class="st4" d="m 66.486884,90.464169 31.042759,-0.115833 0.463324,-6.370714 -7.413193,-25.367035 3.011613,16.216368 -24.556217,-2e-6 4.169924,-16.448028 -8.571508,25.019541 z" id="path7359" sodipodi:nodetypes="ccccccccc" />
   <path class="st4" d="m 80.148335,142.38312 -16.557231,-4.1965 1.621637,-16.3322 35.676009,-0.11583 0.46332,17.02718 -17.052068,3.55943 z" id="path6032" sodipodi:nodetypes="ccccccc" />
  
</svg>
