<?xml version="1.0" encoding="UTF-8" standalone="no"?>
<!-- Created with Inkscape (http://www.inkscape.org/) -->

<svg
   width="40.037998mm"
   height="39.999413mm"
   viewBox="0 0 40.037998 39.999413"
   version="1.1"
   id="svg20015"
   inkscape:version="1.2 (dc2aedaf03, 2022-05-15)"
   sodipodi:docname="sunbathing-icon.svg"
   xmlns:inkscape="http://www.inkscape.org/namespaces/inkscape"
   xmlns:sodipodi="http://sodipodi.sourceforge.net/DTD/sodipodi-0.dtd"
   xmlns="http://www.w3.org/2000/svg"
   xmlns:svg="http://www.w3.org/2000/svg">
  <sodipodi:namedview
     id="namedview20017"
     pagecolor="#ffffff"
     bordercolor="#000000"
     borderopacity="0.25"
     inkscape:showpageshadow="2"
     inkscape:pageopacity="0.0"
     inkscape:pagecheckerboard="0"
     inkscape:deskcolor="#d1d1d1"
     inkscape:document-units="mm"
     showgrid="false"
     inkscape:zoom="0.2102413"
     inkscape:cx="380.51515"
     inkscape:cy="561.25984"
     inkscape:window-width="2560"
     inkscape:window-height="1537"
     inkscape:window-x="-8"
     inkscape:window-y="-8"
     inkscape:window-maximized="1"
     inkscape:current-layer="layer1" />
  <defs
     id="defs20012" />
  <g
     inkscape:label="Layer 1"
     inkscape:groupmode="layer"
     id="layer1">
    <path
       style="fill:#060606;stroke:none;stroke-width:0.0780378"
       d="m 29.097831,0.03252495 c -0.63598,0.22571 -0.6006,1.60493005 -0.43129,2.14610005 0.10482,0.33514 0.47821,0.55106 0.82161,0.42928 0.61917,-0.21991 0.62174,-1.61794005 0.42925,-2.14613005 -0.11729,-0.32163 -0.48145,-0.54928 -0.81957,-0.42925 M 22.542601,2.761655 c -0.39682,0.11049 -0.56644,0.51964 -0.42922,0.89978 0.18583,0.51486 1.14941,1.5078 1.75582,1.28763 0.36681,-0.13316 0.47719,-0.54872 0.35125,-0.89759 -0.1761,-0.48741 -1.10317,-1.44951 -1.67785,-1.28982 m 13.11066,0.003 c -0.43825,0.15419 -1.2768,0.98095 -1.3701,1.44377 -0.10126,0.50328 0.43562,0.90867 0.90179,0.74145 0.42746,-0.1534 1.20302,-0.92001 1.30726,-1.36574 0.1189,-0.50825 -0.30213,-1.00826 -0.83895,-0.81948 m -7.10155,1.94231 c -0.94209,0.16365 -1.82517,0.48659 -2.57547,1.09258 -3.41678,2.76033 -2.16405,8.69729 2.34125,9.41691 0.54853,0.0875 1.16438,0.13921 1.71691,0.0433 2.57454,-0.44694 4.60436,-2.59226 4.60436,-5.27637 0,-3.11849 -2.94934,-5.82114 -6.08705,-5.2764 m 0.15608,1.31369 c 3.53803,-0.49953 6.12747,3.91347 3.58764,6.61607 -0.28252,0.30054 -0.57464,0.58772 -0.93432,0.79344 -0.45839,0.26206 -0.95868,0.44186 -1.48282,0.51592 -3.419,0.48275 -5.89944,-3.48121 -3.84777,-6.30391 0.29236,-0.40226 0.68971,-0.80347 1.11642,-1.06218 0.47475,-0.288 1.01034,-0.48154 1.56085,-0.55934 m -9.05266,3.39474 c -0.42544,0.2214 -0.42544,0.91455 0,1.13595 0.33402,0.17395 1.61672,0.17395 1.95094,0 0.42529,-0.2214 0.42529,-0.91455 0,-1.13595 -0.33422,-0.17396 -1.61692,-0.17396 -1.95094,0 m 17.32696,-0.0174 c -0.44617,0.17318 -0.46921,0.88225 -0.0736,1.12292 0.33686,0.20501 1.67182,0.21282 2.02245,0.0303 0.42539,-0.2214 0.42539,-0.91456 0,-1.13595 -0.35358,-0.1841 -1.57736,-0.16147 -1.94882,-0.0174 m -31.9985696,3.62883 c -0.64997,-0.24583 -1.32364,-0.43804 -2.02905,-0.27962 -2.35650998,0.52911 -2.48875998,3.24732 -1.01458,4.7279 -1.70205998,0.20743 -2.41435998,2.47457 -1.60840998,3.82396 0.65846,1.10232 1.79988998,1.9862 2.70119998,2.88748 l 5.15054,5.15064 c -1.44616,0 -3.40306,-0.37943 -4.60436,0.57882 -1.3738,1.09569 -1.1627,3.41285 0.31216,4.30734 0.82743,0.50188 1.80334,0.42057 2.73146,0.42057 0,1.28297 -0.35879,3.22694 0.31854,4.37023 0.84728,1.42954 3.5126296,1.26245 4.1881496,-0.23412 0.22338,-0.49454 0.17553,-1.03255 0.17553,-1.5608 v -2.57531 h 19.97842 c -0.37037,0.48953 -0.61868,1.09747 -0.62435,1.71687 -0.01,0.99548 0.21253,1.91651 0.94289,2.64688 2.02522,2.02515 5.77578,0.4954 5.68824,-2.41277 -0.0205,-0.71484 -0.30428,-1.33081 -0.62206,-1.95098 0.83127,0 1.79602,0.11962 2.49727,-0.42274 1.12711,-0.87172 1.19994,-3.67991 0,-4.535 -0.5894,-0.42001 -1.26748,-0.34899 -1.95101,-0.34899 -1.24283,0 -2.60242,0.15295 -3.82399,-0.078 0.21923,-0.68628 0.26077,-1.45669 -0.0975,-2.10707 -0.44898,-0.81491 -1.28073,-1.45631 -1.93154,-2.10708 -1.48163,-1.4816 -3.10129,-3.87625 -5.38478,-3.97139 -2.0412,-0.0851 -3.55823,2.14493 -4.83844,3.42511 -0.39417,0.39417 -0.8003,0.94475 -1.32667,1.16411 -0.96179,0.40075 -1.79835,-0.69837 -2.37167,-1.30287 -1.25099,-1.31919 -2.57399,-2.56541 -3.8607,-3.85213 -0.61405,-0.61411 -1.41894,-1.2076 -1.88383,-1.94016 0.54606,-0.14219 0.992,-0.65124 1.31578,-1.09256 0.84881,-1.15671 1.15134,-2.58343 0.80211,-3.98003 -0.78803,-3.15259 -4.6602696,-4.53554 -7.2686496,-2.6035 -0.69286,0.51334 -1.38107,1.26245 -1.56073,2.13525 m 3.90213,-1.69956 c 1.7704496,-0.24996 3.5559296,1.06923 3.7394096,2.87016 0.13936,1.36773 -0.66011,3.42073 -2.25678,3.58336 -0.9388196,0.0956 -1.6771196,-1.04636 -2.2629996,-1.63236 l -1.40495,-1.40472 c -0.19961,-0.19962 -0.51213,-0.42259 -0.59813,-0.70236 -0.0933,-0.30061 0.13125,-0.75707 0.27315,-1.01452 0.51539,-0.93546 1.45864,-1.55104 2.5103,-1.69956 m 2.2629796,8.64513 c -0.3863,0.28733 -0.67916,0.75043 -0.22757,1.15109 0.51879,0.46004 0.87186,-0.36687 1.32029,-0.10841 0.32119,0.18519 0.59711,0.56907 0.85839,0.83027 0.48469,0.48471 1.16669,0.98237 1.53483,1.56081 0.19243,0.30224 -0.0591,0.62541 0.20146,0.93428 0.32192,0.38131 0.56306,0.0805 0.91695,0.22117 0.2108,0.0836 0.39337,0.32379 0.54639,0.48339 0.17907,0.18682 0.36615,0.36272 0.14739,0.59396 -0.51094,0.54042 -1.26869,0.9602 -1.86424,1.4069 -0.17634,0.13228 -0.45775,0.43429 -0.70238,0.35337 -0.29101,-0.0964 -0.56899,-0.50391 -0.7804,-0.71539 l -1.79502,-1.79492 c -2.1589496,-2.15913 -4.3156696,-4.32068 -6.4772196,-6.47732 -0.58553,-0.58429 -1.20837,-1.13033 -1.79482,-1.71688 -0.33519,-0.33511 -0.71851,-0.67138 -0.77394,-1.1706 -0.1194,-1.07477 0.95203,-1.8945 1.94441,-1.39606 0.47433,0.23818 0.80999,0.71282 1.17068,1.0839 0.76303,0.78493 1.53069,1.59998 2.34114,2.33472 0.44685,0.40511 0.94998,1.08351 1.48285,1.35486 0.75421,0.38411 1.4180096,0.23076 1.9508396,1.07086 m 12.25234,-4.95554 c -0.41758,0.14983 -1.13704,0.87045 -1.28758,1.28767 -0.19491,0.53979 0.25533,1.07858 0.81934,0.88012 0.42589,-0.14983 1.13378,-0.84423 1.28779,-1.27033 0.1915,-0.53028 -0.25042,-1.10161 -0.81955,-0.89746 m 11.31584,0 c -0.3518,0.13018 -0.47235,0.56173 -0.35115,0.89746 0.18488,0.51202 1.151,1.5114 1.75588,1.28766 0.35184,-0.13017 0.47236,-0.56173 0.35109,-0.89745 -0.18472,-0.51203 -1.15082,-1.51141 -1.75582,-1.28767 m -5.61892,2.33901 c -0.62986,0.19097 -0.61734,1.63175 -0.42914,2.14829 0.11714,0.32161 0.48136,0.54925 0.81948,0.42922 0.80453,-0.28578 0.74587,-2.92182 -0.39034,-2.57751 m -26.6896896,1.30717 c 0.74071,-0.12517 1.23569,0.35984 1.71699,0.84112 l 1.95085,1.951 6.0092096,6.00908 c 0.96011,0.96005 1.88707,2.12222 2.96554,2.94601 0.38735,0.29594 1.02073,0.17559 1.48273,0.17559 h 3.66777 14.20341 2.6533 c 0.40351,0 0.88369,-0.068 1.24655,0.14961 0.52212,0.31302 0.50708,2.12713 0,2.45389 -0.38568,0.24847 -1.04267,0.1279 -1.48057,0.1279 h -3.66792 -13.81307 -3.98002 c -0.51476,0 -1.15478,0.13033 -1.56082,-0.23631 -1.22305,-1.10403 -2.34658,-2.3444 -3.51182,-3.50961 l -6.9454896,-6.94555 c -0.61929,-0.6191 -1.56508,-1.29017 -1.91848,-2.10709 -0.33965,-0.78462 0.12904,-1.71149 0.98184,-1.85564 m 21.9292296,7.39648 c -0.38341,-0.24333 -0.69446,-0.61277 -1.01438,-0.93648 -0.11842,-0.11972 -0.33827,-0.28078 -0.33827,-0.46824 0,-0.27774 0.47128,-0.6013 0.6504,-0.7804 0.64569,-0.6457 1.26936,-1.45068 2.26314,-1.48058 0.97329,-0.0294 1.63213,0.69339 2.26314,1.3245 l 3.43378,3.43377 c 0.52683,0.52809 1.13301,1.65928 0.0775,2.06805 -0.92305,0.35766 -1.62577,-0.65023 -2.18508,-1.20963 l -2.49723,-2.49727 c -0.28496,-0.28492 -0.638,-0.81919 -1.09254,-0.77392 -0.58453,0.0582 -1.16922,0.9286 -1.56093,1.3202 m -2.34123,-0.46825 1.27472,1.40473 -1.27472,1.40472 -0.93645,0.88014 -1.32667,0.0564 h -2.65341 l -1.24857,-0.026 -0.93644,-0.83245 v -0.078 c 0.60606,-0.48885 1.24832,-0.92977 1.87287,-1.39388 0.21479,-0.15958 0.50687,-0.48384 0.78038,-0.52248 0.21978,-0.0309 0.44231,0.17747 0.62431,0.27315 0.30278,0.15904 0.67373,0.27532 1.01459,0.31005 1.28373,0.13072 1.8676,-0.87873 2.80938,-1.47628 m 3.98008,0.70235 2.96552,3.04357 h -5.93095 l 0.8583,-1.01452 2.10713,-2.02905 m -13.8131,7.0236 H 5.9977114 c -0.88945,0 -1.83343,-0.10043 -2.01191,-1.17059 -0.26672,-1.60084 1.59426,-1.5608 2.63613,-1.5608 0.81433,0 2.03939,-0.23249 2.80939,0.026 0.31101,0.10441 0.54744,0.45083 0.7783696,0.66989 0.65133,0.61769 1.47396,1.28025 1.95304,2.03552 m -2.1850896,1.32668 v 2.57533 c 0,0.33518 0.0833,0.79904 -0.11709,1.09037 -0.33939,0.49454 -1.55339,0.47994 -1.82522,-0.0758 -0.16431,-0.33581 -0.0871,-0.80787 -0.0871,-1.1706 v -2.41926 h 2.02897 m 23.5681196,0.0174 c 2.57202,-0.42868 3.36961,3.42894 0.78038,3.93236 -2.51588,0.48923 -3.31688,-3.50961 -0.78038,-3.93236 m 0.15606,1.34838 c -0.75911,0.28079 -0.31332,1.51484 0.46823,1.23132 0.82026,-0.29757 0.33506,-1.5285 -0.46823,-1.23132 z"
       id="path22062" />
  </g>
</svg>
