<svg width="622" height="192" viewBox="0 0 622 192" fill="none" xmlns="http://www.w3.org/2000/svg">
<path fill="#FFFFFF" d="M614.319 57.0971C619.027 57.0971 622 60.9847 622 64.8723C622 65.8755 621.877 66.8787 621.506 67.7566L597.341 128.327C593.131 138.861 585.573 143 576.773 143C571.322 143 567.108 140.241 567.108 135.852C567.108 132.09 570.081 128.829 574.544 128.829C575.164 128.829 575.907 128.829 576.524 128.704C579.129 128.202 581.359 126.948 582.474 124.44L584.703 119.298L564.258 67.6312C563.887 66.7533 563.764 65.8755 563.764 64.9976C563.764 61.11 566.859 57.0971 571.694 57.0971C574.789 57.0971 577.766 59.1036 579.003 62.3641L592.882 99.986L606.761 62.3641C607.876 59.229 610.971 57.0971 614.319 57.0971ZM501.729 56.0097C517.3 56.0097 528.602 67.547 528.602 87.7375C528.602 107.928 517.3 119.59 501.729 119.59C494.571 119.59 487.916 116.581 483.018 110.31V134.137C483.018 138.401 479.502 141.913 474.981 141.913C470.586 141.913 467.07 138.401 467.07 134.137V64.5373C467.07 60.2735 470.586 56.7622 475.233 56.7622C479.502 56.7622 483.018 60.2735 483.018 64.5373V65.1643C487.664 59.2703 494.32 56.0097 501.729 56.0097ZM198.379 33.1748C207.954 33.1748 222.57 36.3312 227.231 42.5177C228.239 43.7803 228.743 45.2953 228.743 46.8104C228.743 51.6081 224.081 54.8908 219.798 54.8908C218.286 54.8908 216.774 54.512 215.262 53.6282C209.467 50.3455 202.915 48.8305 196.742 48.8305C189.056 48.8305 184.772 52.2394 184.772 57.2896C184.772 70.6726 233.027 61.7086 233.027 93.1463C233.027 108.55 222.065 120.165 199.387 120.165C187.166 120.165 172.048 116.125 167.386 109.181C166.504 107.918 166 106.403 166 104.888C166 100.091 170.158 96.5554 174.441 96.5554C176.079 96.5554 177.843 96.9339 179.229 97.9442C184.898 101.858 192.08 104.509 200.269 104.509C210.096 104.509 214.884 99.9641 214.884 95.1665C214.884 80.2681 166.504 90.495 166.504 58.8047C166.504 44.7903 178.599 33.1748 198.379 33.1748ZM320.667 57.0971C325.339 57.0971 328.622 60.7283 328.622 64.735C328.622 65.4863 328.495 66.2376 328.243 66.9889L314.606 111.315C313.218 115.822 308.798 119.078 304.126 119.078H303.874C298.95 119.078 294.657 115.947 293.268 111.315L282.535 77.1313L271.803 111.315C270.414 115.822 265.995 119.078 261.197 119.078H260.944C256.146 119.078 251.727 115.822 250.338 111.315L236.702 66.9889C236.449 66.2376 236.323 65.4863 236.323 64.735C236.323 60.8535 239.605 57.0971 244.403 57.0971C247.813 57.0971 251.095 59.3509 251.98 62.7317L261.954 98.5427L273.444 63.4829C274.707 59.7266 278.369 57.0971 282.661 57.0971C286.576 57.0971 290.237 59.7266 291.5 63.4829L302.99 98.5427L312.965 62.7317C313.849 59.3509 317.132 57.0971 320.667 57.0971ZM437.17 56.0097C448.334 56.0097 454.983 61.9263 454.983 74.3888V111.147C454.983 115.553 451.471 119.078 446.829 119.078C442.438 119.078 438.926 115.553 438.926 111.147V79.9278C438.926 74.2631 436.417 70.2345 429.894 70.2345C424.249 70.2345 419.607 74.0113 417.349 77.284V111.147C417.349 115.553 413.837 119.078 409.195 119.078C404.804 119.078 401.292 115.553 401.292 111.147V79.9278C401.292 74.2631 398.783 70.2345 392.259 70.2345C386.74 70.2345 382.098 74.0113 379.715 77.41V111.147C379.715 115.553 376.202 119.078 371.686 119.078C367.295 119.078 363.783 115.553 363.783 111.147V64.5699C363.783 60.2898 367.295 56.765 371.937 56.765C376.203 56.765 379.715 60.2898 379.715 64.5699V65.451C382.224 61.8004 390.252 56.0097 399.536 56.0097C408.442 56.0097 414.087 60.1639 416.345 67.0875C419.858 61.5486 427.887 56.0097 437.17 56.0097ZM344.265 55.7646C348.689 55.7646 352.332 59.2844 352.332 63.5585V110.071C352.332 114.47 348.689 117.99 344.005 117.99C339.451 117.99 335.807 114.47 335.807 110.071V63.5585C335.807 59.2844 339.451 55.7646 344.265 55.7646ZM546.929 33.1748C551.339 33.1748 554.973 36.6723 554.973 40.9193V110.121C554.973 114.493 551.339 117.99 546.668 117.99C542.126 117.99 538.492 114.493 538.492 110.121V40.9193C538.492 36.6723 542.127 33.1748 546.929 33.1748ZM496.706 70.1804C491.557 70.1804 485.655 73.1902 483.018 77.0779V98.5223C485.655 102.284 491.557 105.419 496.706 105.419C505.873 105.419 512.026 98.2715 512.026 87.7375C512.026 77.3287 505.873 70.1804 496.706 70.1804ZM344.005 31C349.47 31 353.894 35.1484 353.894 40.4281C353.894 45.7079 349.47 49.982 344.005 49.982C338.67 49.982 334.116 45.7079 334.116 40.4281C334.116 35.1484 338.67 31 344.005 31Z" />
<path  fill="#FFFFFF" fill-rule="evenodd" clip-rule="evenodd" d="M94.7134 74.0144L95.3867 74.054C117.507 75.4723 135.107 90.5911 137.71 114.172C141.705 150.357 103.314 155.175 91.1093 155.175C78.9044 155.175 64.4803 151.851 44.5086 148.526C33.2787 146.657 19.4882 145.838 3.13701 146.071C2.13206 146.086 1.25478 145.393 1.03511 144.413C0.778844 143.268 1.49862 142.133 2.64278 141.877L3.49655 141.687C21.0034 137.808 30.041 137.168 43.7282 138.021C50.9282 138.47 59.0245 139.823 67.1249 141.117L68.5975 141.351C82.3389 143.529 94.8971 145.437 103.991 142.234C104.632 142.008 104.069 142.154 104.684 141.92C118.234 136.768 125.274 126.765 122.849 109.235C120.092 89.2938 97.1802 80.4704 93.5229 76.5755L93.4228 76.4573C93.2043 76.1713 93.0933 75.8153 93.1127 75.4525C93.1576 74.6134 93.8743 73.9695 94.7134 74.0144ZM0.642792 97.2053C-1.26712 94.0424 1.34471 90.1564 4.98441 90.5461L6.84197 90.83L8.4017 91.058L10.0883 91.2917L12.7381 91.6333L15.2307 91.9261C16.6819 92.0883 19.5914 92.2314 22.5678 92.3547L23.5083 92.393C26.6399 92.5183 29.6832 92.6216 31.0153 92.7017L32.1615 92.7655L33.275 92.8171L34.3546 92.8564L35.916 92.8924L37.3884 92.9003C37.8645 92.8984 38.3259 92.8918 38.7602 92.8809L39.6442 92.852C40.3529 92.8231 41.0176 92.7815 41.6186 92.7291L42.3532 92.6567C42.3868 92.653 42.4265 92.6474 42.4728 92.6397L42.829 92.5686L45.2617 91.9902C46.4698 91.7342 47.407 91.6314 48.2232 91.7346C49.6714 91.9176 50.7304 92.8393 50.7304 94.3834C50.7304 98.0305 41.2121 101.904 34.5121 101.715L31.0912 101.617L31.0928 101.569L29.0078 101.438C27.0305 101.3 17.9981 101.118 15.8479 100.894L14.9588 100.797L15.1634 101.004C15.3697 101.254 15.6032 101.516 15.8673 101.795L16.4372 102.376L17.0946 103.008L17.8453 103.696L18.6953 104.447L19.6506 105.269L20.7171 106.166L25.3412 109.989L26.6841 111.13L27.5394 111.91L28.1727 112.52C28.8214 113.166 29.2677 113.7 29.5385 114.195C30.24 115.476 29.8236 116.989 28.2181 117.313C24.6816 118.027 14.2238 112.561 8.70017 107.148C6.58423 105.075 4.6135 102.797 2.81991 100.382L2.39432 99.802L1.82878 99.0072L1.34645 98.3025L0.950696 97.6992L0.642792 97.2053ZM111.075 25.3102C111.52 26.4785 113.133 28.6019 115.734 30.578C120.041 31.92 122.984 32.4737 124.564 32.2396C126.067 32.0167 127.781 31.4952 129.705 30.6748C131.264 30.0103 133.075 30.4604 134.141 31.7776C135.284 33.1902 135.252 35.219 134.064 36.5944C132.34 38.5909 130.419 40.2704 128.303 41.6328C125.353 43.532 121.631 45.6878 117.136 48.1004L121.646 52.999C123.076 54.5517 122.976 56.9693 121.423 58.399C121.109 58.6889 120.748 58.9234 120.356 59.0933L120.118 59.1874C117.957 59.9576 113.853 59.9576 110.571 58.2637C107.288 56.5698 104.718 53.9718 103.784 52.1239C102.749 50.0792 103.055 47.8141 104.703 45.3285C106.904 43.0167 108.473 40.8787 109.411 38.9144C110.001 37.678 110.379 35.8901 110.546 33.5509C101.247 15.2571 77.3868 1.97187 53.2451 16.9796C32.6588 36.9913 42.1092 53.4831 50.6086 69.173C51.8709 71.5032 48.1867 74.2392 37.2154 62.4661C30.0481 54.7749 22.4891 25.7383 45.8471 7.70217C66.4258 -8.1879 102.159 1.88792 111.075 25.3102ZM88.4606 26.8319C90.6896 25.7925 93.9711 28.1119 95.7901 32.0122C97.609 35.9124 97.2766 39.9166 95.0476 40.9559C92.8187 41.9953 89.5371 39.6759 87.7181 35.7757C85.8992 31.8754 86.2316 27.8713 88.4606 26.8319Z"/>
<path fill="#FFFFFF" d="M172.804 158.292V165.636H181.444V168.984H172.804V176.652H182.524V180H168.7V154.944H182.524V158.292H172.804ZM194.779 180.324C193.219 180.324 191.815 180.048 190.567 179.496C189.343 178.92 188.371 178.152 187.651 177.192C186.931 176.208 186.547 175.116 186.499 173.916H190.747C190.819 174.756 191.215 175.464 191.935 176.04C192.679 176.592 193.603 176.868 194.707 176.868C195.859 176.868 196.747 176.652 197.371 176.22C198.019 175.764 198.343 175.188 198.343 174.492C198.343 173.748 197.983 173.196 197.263 172.836C196.567 172.476 195.451 172.08 193.915 171.648C192.427 171.24 191.215 170.844 190.279 170.46C189.343 170.076 188.527 169.488 187.831 168.696C187.159 167.904 186.823 166.86 186.823 165.564C186.823 164.508 187.135 163.548 187.759 162.684C188.383 161.796 189.271 161.1 190.423 160.596C191.599 160.092 192.943 159.84 194.455 159.84C196.711 159.84 198.523 160.416 199.891 161.568C201.283 162.696 202.027 164.244 202.123 166.212H198.019C197.947 165.324 197.587 164.616 196.939 164.088C196.291 163.56 195.415 163.296 194.311 163.296C193.231 163.296 192.403 163.5 191.827 163.908C191.251 164.316 190.963 164.856 190.963 165.528C190.963 166.056 191.155 166.5 191.539 166.86C191.923 167.22 192.391 167.508 192.943 167.724C193.495 167.916 194.311 168.168 195.391 168.48C196.831 168.864 198.007 169.26 198.919 169.668C199.855 170.052 200.659 170.628 201.331 171.396C202.003 172.164 202.351 173.184 202.375 174.456C202.375 175.584 202.063 176.592 201.439 177.48C200.815 178.368 199.927 179.064 198.775 179.568C197.647 180.072 196.315 180.324 194.779 180.324ZM205.441 170.064C205.441 168.024 205.849 166.236 206.665 164.7C207.505 163.14 208.657 161.94 210.121 161.1C211.585 160.26 213.265 159.84 215.161 159.84C217.561 159.84 219.541 160.416 221.101 161.568C222.685 162.696 223.753 164.316 224.305 166.428H219.877C219.517 165.444 218.941 164.676 218.149 164.124C217.357 163.572 216.361 163.296 215.161 163.296C213.481 163.296 212.137 163.896 211.129 165.096C210.145 166.272 209.653 167.928 209.653 170.064C209.653 172.2 210.145 173.868 211.129 175.068C212.137 176.268 213.481 176.868 215.161 176.868C217.537 176.868 219.109 175.824 219.877 173.736H224.305C223.729 175.752 222.649 177.36 221.065 178.56C219.481 179.736 217.513 180.324 215.161 180.324C213.265 180.324 211.585 179.904 210.121 179.064C208.657 178.2 207.505 177 206.665 175.464C205.849 173.904 205.441 172.104 205.441 170.064ZM227.027 169.992C227.027 168 227.435 166.236 228.251 164.7C229.091 163.164 230.219 161.976 231.635 161.136C233.075 160.272 234.659 159.84 236.387 159.84C237.947 159.84 239.303 160.152 240.455 160.776C241.631 161.376 242.567 162.132 243.263 163.044V160.164H247.403V180H243.263V177.048C242.567 177.984 241.619 178.764 240.419 179.388C239.219 180.012 237.851 180.324 236.315 180.324C234.611 180.324 233.051 179.892 231.635 179.028C230.219 178.14 229.091 176.916 228.251 175.356C227.435 173.772 227.027 171.984 227.027 169.992ZM243.263 170.064C243.263 168.696 242.975 167.508 242.399 166.5C241.847 165.492 241.115 164.724 240.203 164.196C239.291 163.668 238.307 163.404 237.251 163.404C236.195 163.404 235.211 163.668 234.299 164.196C233.387 164.7 232.643 165.456 232.067 166.464C231.515 167.448 231.239 168.624 231.239 169.992C231.239 171.36 231.515 172.56 232.067 173.592C232.643 174.624 233.387 175.416 234.299 175.968C235.235 176.496 236.219 176.76 237.251 176.76C238.307 176.76 239.291 176.496 240.203 175.968C241.115 175.44 241.847 174.672 242.399 173.664C242.975 172.632 243.263 171.432 243.263 170.064ZM256.898 163.08C257.594 162.168 258.542 161.4 259.742 160.776C260.942 160.152 262.298 159.84 263.81 159.84C265.538 159.84 267.11 160.272 268.526 161.136C269.966 161.976 271.094 163.164 271.91 164.7C272.726 166.236 273.134 168 273.134 169.992C273.134 171.984 272.726 173.772 271.91 175.356C271.094 176.916 269.966 178.14 268.526 179.028C267.11 179.892 265.538 180.324 263.81 180.324C262.298 180.324 260.954 180.024 259.778 179.424C258.602 178.8 257.642 178.032 256.898 177.12V189.432H252.794V160.164H256.898V163.08ZM268.958 169.992C268.958 168.624 268.67 167.448 268.094 166.464C267.542 165.456 266.798 164.7 265.862 164.196C264.95 163.668 263.966 163.404 262.91 163.404C261.878 163.404 260.894 163.668 259.958 164.196C259.046 164.724 258.302 165.492 257.726 166.5C257.174 167.508 256.898 168.696 256.898 170.064C256.898 171.432 257.174 172.632 257.726 173.664C258.302 174.672 259.046 175.44 259.958 175.968C260.894 176.496 261.878 176.76 262.91 176.76C263.966 176.76 264.95 176.496 265.862 175.968C266.798 175.416 267.542 174.624 268.094 173.592C268.67 172.56 268.958 171.36 268.958 169.992ZM295.372 169.596C295.372 170.34 295.324 171.012 295.228 171.612H280.072C280.192 173.196 280.78 174.468 281.836 175.428C282.892 176.388 284.188 176.868 285.724 176.868C287.932 176.868 289.492 175.944 290.404 174.096H294.832C294.232 175.92 293.14 177.42 291.556 178.596C289.996 179.748 288.052 180.324 285.724 180.324C283.828 180.324 282.124 179.904 280.612 179.064C279.124 178.2 277.948 177 277.084 175.464C276.244 173.904 275.824 172.104 275.824 170.064C275.824 168.024 276.232 166.236 277.048 164.7C277.888 163.14 279.052 161.94 280.54 161.1C282.052 160.26 283.78 159.84 285.724 159.84C287.596 159.84 289.264 160.248 290.728 161.064C292.192 161.88 293.332 163.032 294.148 164.52C294.964 165.984 295.372 167.676 295.372 169.596ZM291.088 168.3C291.064 166.788 290.524 165.576 289.468 164.664C288.412 163.752 287.104 163.296 285.544 163.296C284.128 163.296 282.916 163.752 281.908 164.664C280.9 165.552 280.3 166.764 280.108 168.3H291.088ZM312.867 153.36V180H308.763V153.36H312.867ZM326.859 180.324C324.987 180.324 323.295 179.904 321.783 179.064C320.271 178.2 319.083 177 318.219 175.464C317.355 173.904 316.923 172.104 316.923 170.064C316.923 168.048 317.367 166.26 318.255 164.7C319.143 163.14 320.355 161.94 321.891 161.1C323.427 160.26 325.143 159.84 327.039 159.84C328.935 159.84 330.651 160.26 332.187 161.1C333.723 161.94 334.935 163.14 335.823 164.7C336.711 166.26 337.155 168.048 337.155 170.064C337.155 172.08 336.699 173.868 335.787 175.428C334.875 176.988 333.627 178.2 332.043 179.064C330.483 179.904 328.755 180.324 326.859 180.324ZM326.859 176.76C327.915 176.76 328.899 176.508 329.811 176.004C330.747 175.5 331.503 174.744 332.079 173.736C332.655 172.728 332.943 171.504 332.943 170.064C332.943 168.624 332.667 167.412 332.115 166.428C331.563 165.42 330.831 164.664 329.919 164.16C329.007 163.656 328.023 163.404 326.967 163.404C325.911 163.404 324.927 163.656 324.015 164.16C323.127 164.664 322.419 165.42 321.891 166.428C321.363 167.412 321.099 168.624 321.099 170.064C321.099 172.2 321.639 173.856 322.719 175.032C323.823 176.184 325.203 176.76 326.859 176.76ZM339.844 170.064C339.844 168.024 340.252 166.236 341.068 164.7C341.908 163.14 343.06 161.94 344.524 161.1C345.988 160.26 347.668 159.84 349.564 159.84C351.964 159.84 353.944 160.416 355.504 161.568C357.088 162.696 358.156 164.316 358.708 166.428H354.28C353.92 165.444 353.344 164.676 352.552 164.124C351.76 163.572 350.764 163.296 349.564 163.296C347.884 163.296 346.54 163.896 345.532 165.096C344.548 166.272 344.056 167.928 344.056 170.064C344.056 172.2 344.548 173.868 345.532 175.068C346.54 176.268 347.884 176.868 349.564 176.868C351.94 176.868 353.512 175.824 354.28 173.736H358.708C358.132 175.752 357.052 177.36 355.468 178.56C353.884 179.736 351.916 180.324 349.564 180.324C347.668 180.324 345.988 179.904 344.524 179.064C343.06 178.2 341.908 177 341.068 175.464C340.252 173.904 339.844 172.104 339.844 170.064ZM361.43 169.992C361.43 168 361.838 166.236 362.654 164.7C363.494 163.164 364.622 161.976 366.038 161.136C367.478 160.272 369.062 159.84 370.79 159.84C372.35 159.84 373.706 160.152 374.858 160.776C376.034 161.376 376.97 162.132 377.666 163.044V160.164H381.806V180H377.666V177.048C376.97 177.984 376.022 178.764 374.822 179.388C373.622 180.012 372.254 180.324 370.718 180.324C369.014 180.324 367.454 179.892 366.038 179.028C364.622 178.14 363.494 176.916 362.654 175.356C361.838 173.772 361.43 171.984 361.43 169.992ZM377.666 170.064C377.666 168.696 377.378 167.508 376.802 166.5C376.25 165.492 375.518 164.724 374.606 164.196C373.694 163.668 372.71 163.404 371.654 163.404C370.598 163.404 369.614 163.668 368.702 164.196C367.79 164.7 367.046 165.456 366.47 166.464C365.918 167.448 365.642 168.624 365.642 169.992C365.642 171.36 365.918 172.56 366.47 173.592C367.046 174.624 367.79 175.416 368.702 175.968C369.638 176.496 370.622 176.76 371.654 176.76C372.71 176.76 373.694 176.496 374.606 175.968C375.518 175.44 376.25 174.672 376.802 173.664C377.378 172.632 377.666 171.432 377.666 170.064ZM391.3 153.36V180H387.196V153.36H391.3ZM400.792 153.36V180H396.688V153.36H400.792ZM424.036 160.164L411.868 189.324H407.62L411.652 179.676L403.84 160.164H408.412L413.992 175.284L419.788 160.164H424.036ZM428.79 180.252C428.046 180.252 427.422 180 426.918 179.496C426.414 178.992 426.162 178.368 426.162 177.624C426.162 176.88 426.414 176.256 426.918 175.752C427.422 175.248 428.046 174.996 428.79 174.996C429.51 174.996 430.122 175.248 430.626 175.752C431.13 176.256 431.382 176.88 431.382 177.624C431.382 178.368 431.13 178.992 430.626 179.496C430.122 180 429.51 180.252 428.79 180.252Z" />
</svg>
