<?xml version="1.0" encoding="UTF-8" standalone="no"?>
<!-- Created with Inkscape (http://www.inkscape.org/) -->

<svg
   width="40.069008mm"
   height="36.785679mm"
   viewBox="0 0 40.069008 36.785679"
   version="1.1"
   id="svg13179"
   inkscape:version="1.2 (dc2aedaf03, 2022-05-15)"
   sodipodi:docname="swim-goggles-icon.svg"
   xmlns:inkscape="http://www.inkscape.org/namespaces/inkscape"
   xmlns:sodipodi="http://sodipodi.sourceforge.net/DTD/sodipodi-0.dtd"
   xmlns="http://www.w3.org/2000/svg"
   xmlns:svg="http://www.w3.org/2000/svg">
  <sodipodi:namedview
     id="namedview13181"
     pagecolor="#ffffff"
     bordercolor="#000000"
     borderopacity="0.25"
     inkscape:showpageshadow="2"
     inkscape:pageopacity="0.0"
     inkscape:pagecheckerboard="0"
     inkscape:deskcolor="#d1d1d1"
     inkscape:document-units="mm"
     showgrid="false"
     inkscape:zoom="0.2102413"
     inkscape:cx="380.51515"
     inkscape:cy="561.25984"
     inkscape:window-width="2560"
     inkscape:window-height="1537"
     inkscape:window-x="-8"
     inkscape:window-y="-8"
     inkscape:window-maximized="1"
     inkscape:current-layer="layer1" />
  <defs
     id="defs13176" />
  <g
     inkscape:label="Layer 1"
     inkscape:groupmode="layer"
     id="layer1">
    <path
       style="fill:#050505;stroke:none;stroke-width:0.107005"
       d="m 18.233494,0.10647682 c -2.34146,0.38481 -4.56041,0.79456 -6.74126,1.80420998 -4.9224098,2.27886 -9.0027898,6.83542 -10.52805982,12.0647102 -0.52024,1.78376 -0.92142,3.59192 -0.92142,5.45721 0,0.99696 0.0215,1.8958 0.86494,2.58298 1.09835002,0.89444 2.37894002,0.46942 3.62926002,0.24076 1.9905,-0.36403 3.99373,-0.59634 5.9922398,-0.8739 5.83258,-0.81003 12.12593,-0.7042 17.9767,-0.12188 2.14532,0.21358 4.29215,0.51436 6.42024,0.88878 1.054,0.18543 2.25073,0.60895 3.31714,0.35963 1.64144,-0.38371 1.81907,-1.896 1.81907,-3.29037 0,-2.79655 -0.84416,-5.88342 -2.16683,-8.34632 -3.18873,-5.9376702 -8.97381,-10.02397018 -15.70287,-10.70934018 -1.2544,-0.12777 -2.70398,-0.26274 -3.95915,-0.0565 m 11.87746,4.34555998 c -0.9472,1.09155 -2.13976,1.95893 -3.06149,3.10312 -2.64226,3.2801102 -4.4288,7.6297102 -4.4288,11.8774602 h -5.1362 c 0,-4.24678 -1.78665,-8.59756 -4.42879,-11.8774602 -0.92238,-1.14505 -2.11259,-2.00964 -3.0614998,-3.10312 5.8164198,-3.93462998 14.3018498,-3.93363998 20.1167798,0 M 15.986404,19.539587 c -3.38272,0 -6.8318898,0.41818 -10.1653898,1.00466 -0.9562,0.16822 -3.13586,0.99483 -3.95024,0.33589 -0.3867,-0.31288 -0.32992,-0.7869 -0.32992,-1.23354 0,-0.98155 0.0742,-1.92126 0.23778,-2.88911 0.56198,-3.3257 2.14616,-6.45791 4.35451,-8.9883502 0.59923,-0.68665 1.56194,-1.99552 2.46998,-2.27084 0.35996,-0.10915 0.71307,0.28677 0.96303,0.49339 0.7780298,0.64299 1.5294198,1.41931 2.1608498,2.20547 2.57151,3.2013502 4.2594,7.1962402 4.2594,11.3424302 m 8.13232,0 c 0,-4.19723 1.69387,-8.24071 4.34555,-11.4494402 0.61409,-0.74304 1.3308,-1.48372 2.07469,-2.09846 0.24997,-0.20662 0.60308,-0.60254 0.96304,-0.49339 0.90804,0.27532 1.87076,1.58419 2.46998,2.27084 2.1968,2.5172802 3.98869,5.8363302 4.37829,9.2023502 0.10486,0.90644 0.21401,1.75841 0.21401,2.67511 0,0.44664 0.0568,0.92066 -0.3299,1.23354 -0.8144,0.65894 -2.99408,-0.16767 -3.95027,-0.33589 -3.33522,-0.5868 -6.78096,-1.00466 -10.16539,-1.00466 m -13.26852,5.81985 c -1.6940798,0.27843 -3.2697198,0.53256 -4.8151798,1.35543 -0.76937,0.40961 -1.38249,1.14473 -2.14008,1.52181 -0.47467,0.23616 -1.28616,0.1131 -1.81908,0.20801 -1.22589002,0.21851 -2.04111002,1.33435 -2.07466002,2.54435 -0.0414,1.4895 0.98921,2.4963 2.39567002,2.74049 0.46163,0.0801 1.07487,-0.0927 1.49807,0.11887 0.46578,0.23296 0.84662,0.72774 1.28404,1.02554 0.94474,0.64287 2.00408,1.11337 3.10313,1.42368 2.5028198,0.70687 5.3153198,0.74197 7.5972898,-0.64202 0.62832,-0.38104 1.13724,-0.95159 1.53368,-1.56343 0.20268,-0.31268 0.32669,-0.79869 0.61828,-1.03442 0.45434,-0.36724 1.5675,-0.37227 2.1282,-0.35665 0.50699,0.0141 1.39951,0.0301 1.81019,0.35665 0.33899,0.26965 0.49051,0.78391 0.72228,1.14142 0.38147,0.58852 0.84715,1.03065 1.42669,1.42379 1.91676,1.3 4.55003,1.37051 6.74126,0.88867 1.40358,-0.30859 2.759,-0.80809 3.95915,-1.61094 0.44803,-0.29972 0.80971,-0.81506 1.28405,-1.05229 0.39656,-0.19827 0.96165,-0.0434 1.39105,-0.0862 1.28791,-0.12819 2.42247,-1.00284 2.55922,-2.34521 0.13194,-1.29571 -0.58146,-2.63925 -1.91719,-2.95149 -0.60468,-0.14135 -1.49314,0.0411 -2.03308,-0.22888 -0.64812,-0.32411 -1.1794,-0.99718 -1.81907,-1.37917 -1.58312,-0.9455 -3.4313,-1.3504 -5.2432,-1.53081 -1.92458,-0.19154 -4.0881,0.38307 -5.56422,1.63781 -0.46076,0.39163 -0.715,1.181 -1.2038,1.48618 -0.28677,0.17902 -0.82499,0.0773 -1.15028,0.0773 -0.97471,0 -2.14886,0.18126 -3.10313,-0.0119 -0.65293,-0.13216 -1.18518,-1.34119 -1.71207,-1.76557 -1.39886,-1.12687 -3.68276,-1.68274 -5.45721,-1.39105 m -0.107,1.48019 c 1.8606,-0.25843 4.12137,0.25445 5.30558,1.79531 1.16399,1.51454 0.9167,4.14523 -0.49928,5.41559 -0.78626,0.70537 -1.84978,1.04939 -2.88022,1.19491 -2.23329,0.31534 -4.9168498,-0.34647 -6.7412698,-1.65556 -1.0296,-0.73887 -1.87107,-1.79393 -1.56045,-3.13587 0.57537,-2.4856 4.26016,-3.32056 6.3756398,-3.61438 m 16.79965,0 c 2.17797,-0.30251 4.74499,0.40971 6.52726,1.65556 0.86319,0.60351 1.74341,1.45943 1.70907,2.60085 -0.083,2.76102 -4.14599,3.84883 -6.31026,4.1494 -1.77712,0.24675 -3.98515,-0.0856 -5.23431,-1.4743 -1.37994,-1.53412 -1.33799,-4.24785 0.20512,-5.66234 0.86288,-0.79098 1.97091,-1.11188 3.10312,-1.26917 m -24.6109498,2.97234 v 2.4611 c -1.82679,-0.0307 -1.81083,-2.36982 0,-2.4611 m 34.1343198,2.4611 v -2.4611 c 1.94822,0.0328 1.94811,2.45297 0,2.4611 m -15.19459,-2.24709 -0.10701,1.39105 h -3.53113 v -1.39105 z"
       id="path21387" />
  </g>
</svg>
